<svg xmlns="http://www.w3.org/2000/svg" width="500" height="265" viewBox="0 0 500 265">
  <g id="Group_1740" data-name="Group 1740" transform="translate(-6396 -362)">
    <path id="Path_1526" data-name="Path 1526" d="M-8146,341V562.171h447" transform="translate(14594.998 32.13)" fill="none" stroke="#707070" stroke-width="1" stroke-dasharray="3"/>
    <line id="Line_373" data-name="Line 373" y1="37.464" x2="390.11" transform="translate(6488.5 545.036)" fill="none" stroke="#eb0f43" stroke-width="4"/>
    <line id="Line_374" data-name="Line 374" y1="43.047" x2="390.11" transform="translate(6488.5 404.453)" fill="none" stroke="#00ccb1" stroke-width="4"/>
    <circle id="Ellipse_134" data-name="Ellipse 134" cx="10" cy="10" r="10" transform="translate(6483 572)" fill="#eb0f43"/>
    <circle id="Ellipse_135" data-name="Ellipse 135" cx="10" cy="10" r="10" transform="translate(6483 437)" fill="#00ccb1"/>
    <circle id="Ellipse_136" data-name="Ellipse 136" cx="11" cy="11" r="11" transform="translate(6860 532)" fill="#eb0f43"/>
    <circle id="Ellipse_137" data-name="Ellipse 137" cx="11" cy="11" r="11" transform="translate(6859 391)" fill="#00ccb1"/>
    <text id="_1994" data-name="1994" transform="translate(6473 604)" fill="#8d8d8d" font-size="18" font-family="ArialMT, Arial"><tspan x="0" y="16">1994</tspan></text>
    <text id="_所_" data-name="(所)" transform="translate(6396 592)" fill="#8d8d8d" font-size="18" font-family="ArialMT, Arial"><tspan x="0" y="0">(</tspan><tspan y="0" font-family="YuGothicUI-Regular, Yu Gothic UI">所</tspan><tspan y="0">)</tspan></text>
    <text id="_年_" data-name="(年)" transform="translate(6849 617)" fill="#8d8d8d" font-size="18" font-family="ArialMT, Arial"><tspan x="0" y="0">(</tspan><tspan y="0" font-family="YuGothicUI-Regular, Yu Gothic UI">年</tspan><tspan y="0">)</tspan></text>
    <text id="_0" data-name="0" transform="translate(6425 593)" fill="#8d8d8d" font-size="18" font-family="ArialMT, Arial"><tspan x="0" y="0">0</tspan></text>
    <text id="_200" data-name="200" transform="translate(6407 526)" fill="#8d8d8d" font-size="18" font-family="ArialMT, Arial"><tspan x="0" y="0">200</tspan></text>
    <text id="_400" data-name="400" transform="translate(6407 451)" fill="#8d8d8d" font-size="18" font-family="ArialMT, Arial"><tspan x="0" y="0">400</tspan></text>
    <text id="_600" data-name="600" transform="translate(6407 385)" fill="#8d8d8d" font-size="18" font-family="ArialMT, Arial"><tspan x="0" y="0">600</tspan></text>
    <text id="_2019" data-name="2019" transform="translate(6806 601)" fill="#8d8d8d" font-size="18" font-family="ArialMT, Arial"><tspan x="0" y="16">2019</tspan></text>
    <text id="_23" data-name="23" transform="translate(6474 564)" fill="#eb0f43" font-size="25" font-family="Arial-BoldMT, Arial" font-weight="700"><tspan x="0" y="0">23</tspan></text>
    <text id="_402" data-name="402" transform="translate(6469 426)" fill="#00ccb1" font-size="25" font-family="Arial-BoldMT, Arial" font-weight="700"><tspan x="0" y="0">402</tspan></text>
    <text id="_126" data-name="126" transform="translate(6836 527)" fill="#eb0f43" font-size="25" font-family="Arial-BoldMT, Arial" font-weight="700"><tspan x="0" y="0">126</tspan></text>
    <text id="_513" data-name="513" transform="translate(6836 385)" fill="#00ccb1" font-size="25" font-family="Arial-BoldMT, Arial" font-weight="700"><tspan x="0" y="0">513</tspan></text>
    <text id="大學數量" transform="translate(6587 622)" fill="#8d8d8d" font-size="18" font-family="YuGothicUI-Regular, Yu Gothic UI"><tspan x="0" y="0">大學數量</tspan></text>
    <text id="高中數量" transform="translate(6699 622)" fill="#8d8d8d" font-size="18" font-family="YuGothicUI-Regular, Yu Gothic UI"><tspan x="0" y="0">高中數量</tspan></text>
    <rect id="Rectangle_1900" data-name="Rectangle 1900" width="20" height="11" transform="translate(6560 610)" fill="#eb0f43"/>
    <rect id="Rectangle_1901" data-name="Rectangle 1901" width="19" height="11" transform="translate(6672 610)" fill="#00ccb1"/>
  </g>
</svg>
