<svg xmlns="http://www.w3.org/2000/svg" width="900" height="341" viewBox="0 0 900 341">
  <g id="Group_2053" data-name="Group 2053" transform="translate(-190 -3549)">
    <rect id="Rectangle_2603" data-name="Rectangle 2603" width="900" height="341" rx="5" transform="translate(190 3549)" fill="#fff"/>
    <text id="內文p" transform="translate(280 3661)" font-size="20" font-family="SourceHanSansTW-Regular, Source Han Sans TW"><tspan x="0" y="23">擔憂與焦慮的原因前三名（複選）：</tspan></text>
    <text id="內文p-2" data-name="內文p" transform="translate(280 3634)" font-size="25" font-family="SourceHanSansTW-Bold, Source Han Sans TW" font-weight="700"><tspan x="0" y="0">38.8%感到擔憂、焦慮</tspan></text>
    <text id="內文p-3" data-name="內文p" transform="translate(420 3729)" font-size="20" font-family="SourceHanSansTW-Regular, Source Han Sans TW"><tspan x="-140" y="0">升學制度更複雜</tspan></text>
    <text id="內文p-4" data-name="內文p" transform="translate(280 3767)" font-size="20" font-family="SourceHanSansTW-Regular, Source Han Sans TW"><tspan x="0" y="0">對台灣過去教改經驗</tspan><tspan x="0" y="28">沒信心</tspan></text>
    <text id="內文p-5" data-name="內文p" transform="translate(420 3834)" font-size="20" font-family="SourceHanSansTW-Regular, Source Han Sans TW"><tspan x="-140" y="0">新舊課綱難銜接</tspan></text>
    <rect id="Rectangle_2644" data-name="Rectangle 2644" width="513" height="25" transform="translate(487 3711)" fill="#f6f6f6"/>
    <rect id="Rectangle_2641" data-name="Rectangle 2641" width="513" height="25" transform="translate(487 3749)" fill="#f6f6f6"/>
    <rect id="Rectangle_2640" data-name="Rectangle 2640" width="513" height="25" transform="translate(487 3815)" fill="#f6f6f6"/>
    <rect id="Rectangle_2645" data-name="Rectangle 2645" width="122" height="25" transform="translate(487 3711)" fill="#00ccb1"/>
    <rect id="Rectangle_2642" data-name="Rectangle 2642" width="110" height="25" transform="translate(487 3749)" fill="#00ccb1"/>
    <rect id="Rectangle_2643" data-name="Rectangle 2643" width="96" height="25" transform="translate(487 3815)" fill="#00ccb1"/>
    <text id="內文p-6" data-name="內文p" transform="translate(590 3835)" fill="#8e8e8e" font-size="20" font-family="Arial-BoldMT, Arial" font-weight="700"><tspan x="0" y="0">19.5</tspan><tspan y="0" font-size="15">%</tspan></text>
    <text id="內文p-7" data-name="內文p" transform="translate(618 3732)" fill="#8e8e8e" font-size="20" font-family="Arial-BoldMT, Arial" font-weight="700"><tspan x="0" y="0">23.3</tspan><tspan y="0" font-size="15">%</tspan></text>
    <text id="內文p-8" data-name="內文p" transform="translate(604 3770)" fill="#8e8e8e" font-size="20" font-family="Arial-BoldMT, Arial" font-weight="700"><tspan x="0" y="0">20.9</tspan><tspan y="0" font-size="15">%</tspan></text>
  </g>
</svg>
