<svg xmlns="http://www.w3.org/2000/svg" width="900" height="450" viewBox="0 0 900 450">
  <g id="Group_2051" data-name="Group 2051" transform="translate(-190 -2531)">
    <rect id="Rectangle_2596" data-name="Rectangle 2596" width="900" height="450" rx="5" transform="translate(190 2531)" fill="#fff"/>
    <text id="內文p" transform="translate(280 2616)" font-size="25" font-family="SourceHanSansTW-Bold, Source Han Sans TW" font-weight="700"><tspan x="0" y="0">政策溝通失效？民眾沒聽過、家長不清楚</tspan></text>
    <text id="內文p-2" data-name="內文p" transform="translate(288 2891)" font-size="20" font-family="SourceHanSansTW-Regular, Source Han Sans TW"><tspan x="0" y="0">民眾沒聽過108課綱</tspan></text>
    <text id="內文p-3" data-name="內文p" transform="translate(640 2891)" font-size="20" font-family="SourceHanSansTW-Regular, Source Han Sans TW"><tspan x="-120" y="0">家長完全不清楚或不太清楚</tspan><tspan x="-80" y="34">新課綱理念與內容</tspan></text>
    <text id="內文p-4" data-name="內文p" transform="translate(906 2891)" font-size="20" font-family="SourceHanSansTW-Regular, Source Han Sans TW"><tspan x="-70" y="0">民眾認為政府的</tspan><tspan x="-70" y="34">宣導與說明不足</tspan></text>
    <text id="_62.6_" data-name="62.6%" transform="translate(318 2771)" fill="#8e8e8e" font-size="40" font-family="Arial-Black, Arial" font-weight="800"><tspan x="0" y="0">62.6</tspan><tspan y="0" font-size="25">%</tspan></text>
    <path id="Subtraction_4" data-name="Subtraction 4" d="M103,206a103.772,103.772,0,0,1-20.758-2.093,102.437,102.437,0,0,1-36.83-15.5A103.311,103.311,0,0,1,8.094,143.092a102.516,102.516,0,0,1-6-19.334,104.006,104.006,0,0,1,0-41.516,102.422,102.422,0,0,1,15.5-36.83A103.3,103.3,0,0,1,62.907,8.094a102.494,102.494,0,0,1,19.334-6,104,104,0,0,1,41.517,0,102.422,102.422,0,0,1,36.83,15.5,103.306,103.306,0,0,1,37.318,45.317,102.462,102.462,0,0,1,6,19.334,103.994,103.994,0,0,1,0,41.516,102.415,102.415,0,0,1-15.5,36.83,103.3,103.3,0,0,1-45.317,37.318,102.494,102.494,0,0,1-19.334,6A103.774,103.774,0,0,1,103,206Zm.395-181.532a78.927,78.927,0,1,0,78.927,78.927A79.016,79.016,0,0,0,103.395,24.468Z" transform="translate(271 2655)" fill="#eee"/>
    <path id="Subtraction_6" data-name="Subtraction 6" d="M74.529,206a103.761,103.761,0,0,1-20.759-2.092,102.422,102.422,0,0,1-36.831-15.5A103.741,103.741,0,0,1,1.7,175.835c-.568-.568-1.138-1.152-1.7-1.736l16.107-18.123A78.913,78.913,0,1,0,74.923,24.469h-.4V0a103.762,103.762,0,0,1,20.76,2.092,102.418,102.418,0,0,1,36.83,15.5,103.295,103.295,0,0,1,37.318,45.317,102.441,102.441,0,0,1,6,19.335,103.973,103.973,0,0,1,0,41.516,102.45,102.45,0,0,1-15.5,36.831,103.319,103.319,0,0,1-45.317,37.319,102.525,102.525,0,0,1-19.334,6A103.76,103.76,0,0,1,74.529,206Z" transform="translate(299.473 2655)" fill="#00ccb1"/>
    <text id="_77.4_" data-name="77.4%" transform="translate(584 2771)" fill="#8e8e8e" font-size="40" font-family="Arial-Black, Arial" font-weight="800"><tspan x="0" y="0">77.4</tspan><tspan y="0" font-size="25">%</tspan></text>
    <text id="_58.2_" data-name="58.2%" transform="translate(850 2771)" fill="#8e8e8e" font-size="40" font-family="Arial-Black, Arial" font-weight="800"><tspan x="0" y="0">58.2</tspan><tspan y="0" font-size="25">%</tspan></text>
    <path id="Subtraction_7" data-name="Subtraction 7" d="M103,206a103.772,103.772,0,0,1-20.758-2.093,102.437,102.437,0,0,1-36.83-15.5A103.311,103.311,0,0,1,8.094,143.092a102.516,102.516,0,0,1-6-19.334,104.006,104.006,0,0,1,0-41.516,102.422,102.422,0,0,1,15.5-36.83A103.3,103.3,0,0,1,62.907,8.094a102.494,102.494,0,0,1,19.334-6,104,104,0,0,1,41.517,0,102.422,102.422,0,0,1,36.83,15.5,103.306,103.306,0,0,1,37.318,45.317,102.462,102.462,0,0,1,6,19.334,103.994,103.994,0,0,1,0,41.516,102.415,102.415,0,0,1-15.5,36.83,103.3,103.3,0,0,1-45.317,37.318,102.494,102.494,0,0,1-19.334,6A103.774,103.774,0,0,1,103,206Zm.395-181.532a78.927,78.927,0,1,0,78.927,78.927A79.016,79.016,0,0,0,103.395,24.468Z" transform="translate(537 2655)" fill="#eee"/>
    <path id="Subtraction_28" data-name="Subtraction 28" d="M103,206a103.772,103.772,0,0,1-20.758-2.093,102.437,102.437,0,0,1-36.83-15.5A103.311,103.311,0,0,1,8.094,143.092a102.516,102.516,0,0,1-6-19.334,104.006,104.006,0,0,1,0-41.516,102.422,102.422,0,0,1,15.5-36.83A103.3,103.3,0,0,1,62.907,8.094a102.494,102.494,0,0,1,19.334-6,104,104,0,0,1,41.517,0,102.422,102.422,0,0,1,36.83,15.5,103.306,103.306,0,0,1,37.318,45.317,102.462,102.462,0,0,1,6,19.334,103.994,103.994,0,0,1,0,41.516,102.415,102.415,0,0,1-15.5,36.83,103.3,103.3,0,0,1-45.317,37.318,102.494,102.494,0,0,1-19.334,6A103.774,103.774,0,0,1,103,206Zm.395-181.532a78.927,78.927,0,1,0,78.927,78.927A79.016,79.016,0,0,0,103.395,24.468Z" transform="translate(803 2655)" fill="#eee"/>
    <path id="Subtraction_23" data-name="Subtraction 23" d="M3891.667,3411a103.828,103.828,0,0,1-20.758-2.092,102.435,102.435,0,0,1-36.831-15.5,103.321,103.321,0,0,1-37.317-45.316,102.581,102.581,0,0,1-6-19.335,104.091,104.091,0,0,1-.906-36.436l24.16,4.274a78.931,78.931,0,1,0,78.048-67.129h-.4V3205a103.756,103.756,0,0,1,20.758,2.092,102.414,102.414,0,0,1,36.83,15.5,103.316,103.316,0,0,1,37.317,45.317,102.383,102.383,0,0,1,6,19.334,103.97,103.97,0,0,1,0,41.516,102.391,102.391,0,0,1-15.5,36.83,103.3,103.3,0,0,1-45.316,37.318,102.457,102.457,0,0,1-19.334,6A103.832,103.832,0,0,1,3891.667,3411Z" transform="translate(-3251.667 -550)" fill="#00ccb1"/>
    <path id="Subtraction_31" data-name="Subtraction 31" d="M-1302.667,204.333a103.755,103.755,0,0,1-20.759-2.093,102.439,102.439,0,0,1-19.334-6c-1.337-.565-2.683-1.169-4-1.795l13.99-19.919a78.253,78.253,0,0,0,30.5,6.13,79.016,79.016,0,0,0,78.926-78.927A79.016,79.016,0,0,0-1302.272,22.8h-.4V-1.667A103.754,103.754,0,0,1-1281.909.426a102.507,102.507,0,0,1,19.334,6,102.954,102.954,0,0,1,17.5,9.5A103.733,103.733,0,0,1-1229.836,28.5a103.684,103.684,0,0,1,12.577,15.244,103.006,103.006,0,0,1,9.5,17.5,102.461,102.461,0,0,1,6,19.334,103.756,103.756,0,0,1,2.093,20.758,103.76,103.76,0,0,1-2.093,20.758,102.475,102.475,0,0,1-6,19.334,103.006,103.006,0,0,1-9.5,17.5,103.7,103.7,0,0,1-12.577,15.244,103.8,103.8,0,0,1-15.243,12.578,103.015,103.015,0,0,1-17.5,9.5,102.47,102.47,0,0,1-19.334,6A103.756,103.756,0,0,1-1302.667,204.333Z" transform="translate(2208.667 2656.667)" fill="#00ccb1"/>
  </g>
</svg>
