<svg xmlns="http://www.w3.org/2000/svg" width="900" height="270" viewBox="0 0 900 270">
  <g id="Group_2054" data-name="Group 2054" transform="translate(-190 -3915)">
    <rect id="Rectangle_2604" data-name="Rectangle 2604" width="900" height="270" rx="5" transform="translate(190 3915)" fill="#fff"/>
    <text id="內文p" transform="translate(280 3971)" font-size="25" font-family="SourceHanSansTW-Bold, Source Han Sans TW" font-weight="700"><tspan x="0" y="29">最擔心的變革是？（複選）</tspan></text>
    <text id="內文p-2" data-name="內文p" transform="translate(360 4053)" font-size="20" font-family="SourceHanSansTW-Regular, Source Han Sans TW"><tspan x="-80" y="0">升學制度</tspan></text>
    <text id="內文p-3" data-name="內文p" transform="translate(280 4091)" font-size="20" font-family="SourceHanSansTW-Regular, Source Han Sans TW"><tspan x="0" y="0">素養學習</tspan></text>
    <text id="內文p-4" data-name="內文p" transform="translate(400 4129)" font-size="20" font-family="SourceHanSansTW-Regular, Source Han Sans TW"><tspan x="-120" y="0">必修時數減少</tspan></text>
    <rect id="Rectangle_2638" data-name="Rectangle 2638" width="513" height="25" transform="translate(487 4031)" fill="#f6f6f6"/>
    <rect id="Rectangle_2636" data-name="Rectangle 2636" width="513" height="25" transform="translate(487 4069)" fill="#f6f6f6"/>
    <rect id="Rectangle_2634" data-name="Rectangle 2634" width="513" height="25" transform="translate(487 4108)" fill="#f6f6f6"/>
    <rect id="Rectangle_2639" data-name="Rectangle 2639" width="191" height="25" transform="translate(487 4031)" fill="#00ccb1"/>
    <rect id="Rectangle_2637" data-name="Rectangle 2637" width="120" height="25" transform="translate(487 4069)" fill="#00ccb1"/>
    <rect id="Rectangle_2635" data-name="Rectangle 2635" width="115" height="25" transform="translate(487 4108)" fill="#00ccb1"/>
    <text id="內文p-5" data-name="內文p" transform="translate(609 4127)" fill="#8e8e8e" font-size="20" font-family="Arial-BoldMT, Arial" font-weight="700"><tspan x="0" y="0">21.7</tspan><tspan y="0" font-size="15">%</tspan></text>
    <text id="內文p-6" data-name="內文p" transform="translate(686 4050)" fill="#8e8e8e" font-size="20" font-family="Arial-BoldMT, Arial" font-weight="700"><tspan x="0" y="0">37.2</tspan><tspan y="0" font-size="15">%</tspan></text>
    <text id="內文p-7" data-name="內文p" transform="translate(615 4089)" fill="#8e8e8e" font-size="20" font-family="Arial-BoldMT, Arial" font-weight="700"><tspan x="0" y="0">22.9</tspan><tspan y="0" font-size="15">%</tspan></text>
  </g>
</svg>
