<svg xmlns="http://www.w3.org/2000/svg" width="32.965" height="31.116" viewBox="0 0 32.965 31.116">
  <g id="_1" data-name="1" transform="translate(-14.7 -11.5)">
    <path id="Path_1529" data-name="Path 1529" d="M61.381,32.172c0-2.191-.023-4.36.023-6.551.023-1.2,1.362-1.084,2.224-1.355a7.818,7.818,0,0,0,2.836-1.581,13.15,13.15,0,0,0,3.381-5.376c.454-1.175.749-2.44,1.135-3.637.272-.858.7-1.672,1.725-1.672,1.861,0,2.11,1.491,2.292,2.982a24.55,24.55,0,0,1-.386,6.935c-.182,1.129.023,1.423,1.225,1.446,1.316.023,2.655-.023,3.971,0,2.156.023,3.177,1.084,3.2,3.208a4.425,4.425,0,0,0,.5,1.852c.726,1.672,1.021,3.275-.182,4.9a2.053,2.053,0,0,0-.318,1.22,3.37,3.37,0,0,1-1.384,3.05,1.214,1.214,0,0,0-.363.994c.2,1.852-.772,3.456-2.632,3.5a50.985,50.985,0,0,1-14.795-1.423c-.93-.248-2.405-.474-2.428-1.694C61.358,36.69,61.381,34.431,61.381,32.172Z" transform="translate(-36.938)" fill="#fff" stroke="#9f9f9f" stroke-width="1"/>
    <path id="Path_1530" data-name="Path 1530" d="M13.222,66.937c-.022-.938.335-1.363,1.3-1.34,2.3.022,4.6.022,6.925,0,.871,0,1.318.4,1.318,1.273V80.5a1.131,1.131,0,0,1-1.3,1.3H14.429c-.894,0-1.229-.469-1.229-1.34C13.245,78.152,13.245,69.149,13.222,66.937Z" transform="translate(2 -41.291)" fill="#fff" stroke="#9f9f9f" stroke-width="1"/>
  </g>
</svg>
