<svg xmlns="http://www.w3.org/2000/svg" width="348" height="254" viewBox="0 0 348 254">
  <g id="Group_2025" data-name="Group 2025" transform="translate(-36 -4377)">
    <path id="Path_1525" data-name="Path 1525" d="M-8146,341V548.667h306" transform="translate(8223.999 4041)" fill="none" stroke="#707070" stroke-width="1" stroke-dasharray="3"/>
    <line id="Line_371" data-name="Line 371" y1="35" x2="232.5" transform="translate(109 4544.5)" fill="none" stroke="#eb0f43" stroke-width="4"/>
    <line id="Line_372" data-name="Line 372" y1="39" x2="232.5" transform="translate(109 4412.5)" fill="none" stroke="#00ccb1" stroke-width="4"/>
    <circle id="Ellipse_91" data-name="Ellipse 91" cx="6" cy="6" r="6" transform="translate(106 4573)" fill="#eb0f43"/>
    <circle id="Ellipse_93" data-name="Ellipse 93" cx="6" cy="6" r="6" transform="translate(106 4445)" fill="#00ccb1"/>
    <circle id="Ellipse_92" data-name="Ellipse 92" cx="6" cy="6" r="6" transform="translate(337 4538)" fill="#eb0f43"/>
    <circle id="Ellipse_94" data-name="Ellipse 94" cx="6" cy="6" r="6" transform="translate(337 4406)" fill="#00ccb1"/>
    <text id="_1994" data-name="1994" transform="translate(75 4607)" fill="#8d8d8d" font-size="15" font-family="ArialMT, Arial"><tspan x="0" y="0">1994</tspan></text>
    <text id="_所_" data-name="(所)" transform="translate(36 4589)" fill="#8d8d8d" font-size="15" font-family="ArialMT, Arial"><tspan x="0" y="0">(</tspan><tspan y="0" font-family="YuGothicUI-Regular, Yu Gothic UI">所</tspan><tspan y="0">)</tspan></text>
    <text id="_年_" data-name="(年)" transform="translate(359 4607)" fill="#8d8d8d" font-size="15" font-family="ArialMT, Arial"><tspan x="0" y="0">(</tspan><tspan y="0" font-family="YuGothicUI-Regular, Yu Gothic UI">年</tspan><tspan y="0">)</tspan></text>
    <text id="_0" data-name="0" transform="translate(64 4590)" fill="#8d8d8d" font-size="15" font-family="ArialMT, Arial"><tspan x="0" y="0">0</tspan></text>
    <text id="_200" data-name="200" transform="translate(47 4528)" fill="#8d8d8d" font-size="15" font-family="ArialMT, Arial"><tspan x="0" y="0">200</tspan></text>
    <text id="_400" data-name="400" transform="translate(47 4458)" fill="#8d8d8d" font-size="15" font-family="ArialMT, Arial"><tspan x="0" y="0">400</tspan></text>
    <text id="_600" data-name="600" transform="translate(47 4391)" fill="#8d8d8d" font-size="15" font-family="ArialMT, Arial"><tspan x="0" y="0">600</tspan></text>
    <text id="_2019" data-name="2019" transform="translate(325 4607)" fill="#8d8d8d" font-size="15" font-family="ArialMT, Arial"><tspan x="0" y="0">2019</tspan></text>
    <text id="_23" data-name="23" transform="translate(101 4568)" fill="#eb0f43" font-size="22" font-family="Arial-BoldMT, Arial" font-weight="700"><tspan x="0" y="0">23</tspan></text>
    <text id="_402" data-name="402" transform="translate(97 4437)" fill="#00ccb1" font-size="22" font-family="Arial-BoldMT, Arial" font-weight="700"><tspan x="0" y="0">402</tspan></text>
    <text id="_126" data-name="126" transform="translate(324 4534)" fill="#eb0f43" font-size="22" font-family="Arial-BoldMT, Arial" font-weight="700"><tspan x="0" y="0">126</tspan></text>
    <text id="_513" data-name="513" transform="translate(323 4400)" fill="#00ccb1" font-size="22" font-family="Arial-BoldMT, Arial" font-weight="700"><tspan x="0" y="0">513</tspan></text>
    <g id="Group_1968" data-name="Group 1968" transform="translate(-5)">
      <text id="大學數量" transform="translate(158 4627)" fill="#8d8d8d" font-size="15" font-family="YuGothicUI-Regular, Yu Gothic UI"><tspan x="0" y="0">大學數量</tspan></text>
      <text id="高中數量" transform="translate(250 4627)" fill="#8d8d8d" font-size="15" font-family="YuGothicUI-Regular, Yu Gothic UI"><tspan x="0" y="0">高中數量</tspan></text>
      <rect id="Rectangle_1900" data-name="Rectangle 1900" width="11" height="11" transform="translate(142 4616)" fill="#eb0f43"/>
      <rect id="Rectangle_1901" data-name="Rectangle 1901" width="11" height="11" transform="translate(234 4616)" fill="#00ccb1"/>
    </g>
  </g>
</svg>
