<svg xmlns="http://www.w3.org/2000/svg" width="850" height="468" viewBox="0 0 850 468">
  <g id="poll_chart__web" data-name="poll_chart９_web" transform="translate(-215 -7514)">
    <rect id="Rectangle_3224" data-name="Rectangle 3224" width="850" height="468" rx="5" transform="translate(215 7514)" fill="#fff"/>
    <text id="內文p" transform="translate(280 7599)" font-size="25" font-family="SourceHanSansTW-Bold, Source Han Sans TW" font-weight="700"><tspan x="0" y="0">新課綱的改革方向，能否改變台灣社會認為考上頂尖學校、</tspan><tspan x="0" y="34">進入理想科系就是「人生勝利組」的看法？</tspan></text>
    <text id="內文p-2" data-name="內文p" transform="translate(350 7926)" font-size="20" font-family="SourceHanSansTW-Regular, Source Han Sans TW"><tspan x="0" y="0">不行</tspan></text>
    <text id="內文p-3" data-name="內文p" transform="translate(640 7926)" font-size="20" font-family="SourceHanSansTW-Regular, Source Han Sans TW"><tspan x="-20" y="0">可以</tspan></text>
    <text id="內文p-4" data-name="內文p" transform="translate(909 7926)" font-size="20" font-family="SourceHanSansTW-Regular, Source Han Sans TW"><tspan x="-70" y="0">無意見／未回答</tspan></text>
    <text id="_62.2_" data-name="62.2%" transform="translate(318 7806)" fill="#8e8e8e" font-size="40" font-family="Arial-Black, Arial" font-weight="800"><tspan x="0" y="0">62.2</tspan><tspan y="0" font-size="25">%</tspan></text>
    <path id="Subtraction_130" data-name="Subtraction 130" d="M103,206a103.772,103.772,0,0,1-20.758-2.093,102.437,102.437,0,0,1-36.83-15.5A103.311,103.311,0,0,1,8.094,143.092a102.516,102.516,0,0,1-6-19.334,104.006,104.006,0,0,1,0-41.516,102.422,102.422,0,0,1,15.5-36.83A103.3,103.3,0,0,1,62.907,8.094a102.494,102.494,0,0,1,19.334-6,104,104,0,0,1,41.517,0,102.422,102.422,0,0,1,36.83,15.5,103.306,103.306,0,0,1,37.318,45.317,102.462,102.462,0,0,1,6,19.334,103.994,103.994,0,0,1,0,41.516,102.415,102.415,0,0,1-15.5,36.83,103.3,103.3,0,0,1-45.317,37.318,102.494,102.494,0,0,1-19.334,6A103.774,103.774,0,0,1,103,206Zm.395-181.532a78.927,78.927,0,1,0,78.927,78.927A79.016,79.016,0,0,0,103.395,24.468Z" transform="translate(271 7690)" fill="#eee"/>
    <text id="_29.3_" data-name="29.3%" transform="translate(584 7806)" fill="#8e8e8e" font-size="40" font-family="Arial-Black, Arial" font-weight="800"><tspan x="0" y="0">29.3</tspan><tspan y="0" font-size="25">%</tspan></text>
    <text id="_8.5_" data-name="8.5%" transform="translate(865 7806)" fill="#8e8e8e" font-size="40" font-family="Arial-Black, Arial" font-weight="800"><tspan x="0" y="0">8.5</tspan><tspan y="0" font-size="25">%</tspan></text>
    <path id="Subtraction_134" data-name="Subtraction 134" d="M103,206a103.772,103.772,0,0,1-20.758-2.093,102.437,102.437,0,0,1-36.83-15.5A103.311,103.311,0,0,1,8.094,143.092a102.516,102.516,0,0,1-6-19.334,104.006,104.006,0,0,1,0-41.516,102.422,102.422,0,0,1,15.5-36.83A103.3,103.3,0,0,1,62.907,8.094a102.494,102.494,0,0,1,19.334-6,104,104,0,0,1,41.517,0,102.422,102.422,0,0,1,36.83,15.5,103.306,103.306,0,0,1,37.318,45.317,102.462,102.462,0,0,1,6,19.334,103.994,103.994,0,0,1,0,41.516,102.415,102.415,0,0,1-15.5,36.83,103.3,103.3,0,0,1-45.317,37.318,102.494,102.494,0,0,1-19.334,6A103.774,103.774,0,0,1,103,206Zm.395-181.532a78.927,78.927,0,1,0,78.927,78.927A79.016,79.016,0,0,0,103.395,24.468Z" transform="translate(537 7690)" fill="#eee"/>
    <path id="Subtraction_139" data-name="Subtraction 139" d="M103,206a103.772,103.772,0,0,1-20.758-2.093,102.437,102.437,0,0,1-36.83-15.5A103.311,103.311,0,0,1,8.094,143.092a102.516,102.516,0,0,1-6-19.334,104.006,104.006,0,0,1,0-41.516,102.422,102.422,0,0,1,15.5-36.83A103.3,103.3,0,0,1,62.907,8.094a102.494,102.494,0,0,1,19.334-6,104,104,0,0,1,41.517,0,102.422,102.422,0,0,1,36.83,15.5,103.306,103.306,0,0,1,37.318,45.317,102.462,102.462,0,0,1,6,19.334,103.994,103.994,0,0,1,0,41.516,102.415,102.415,0,0,1-15.5,36.83,103.3,103.3,0,0,1-45.317,37.318,102.494,102.494,0,0,1-19.334,6A103.774,103.774,0,0,1,103,206Zm.395-181.532a78.927,78.927,0,1,0,78.927,78.927A79.016,79.016,0,0,0,103.395,24.468Z" transform="translate(803 7690)" fill="#eee"/>
    <path id="Subtraction_138" data-name="Subtraction 138" d="M3987,3347.073h0l-21.612-9.463a78.932,78.932,0,0,0-73.323-108.143l-.394,0V3205a103.731,103.731,0,0,1,20.757,2.094,102.4,102.4,0,0,1,36.83,15.5,103.348,103.348,0,0,1,37.319,45.317,102.545,102.545,0,0,1,6,19.335,103.933,103.933,0,0,1,0,41.516,102.546,102.546,0,0,1-5.576,18.313Z" transform="translate(-3251.667 4485)" fill="#00ccb1"/>
    <path id="Subtraction_144" data-name="Subtraction 144" d="M-1255.081,38.5h0a78.2,78.2,0,0,0-47.192-15.7l-.394,0V-1.665A103.781,103.781,0,0,1-1281.908.429a102.5,102.5,0,0,1,19.333,6,102.842,102.842,0,0,1,17.5,9.5c.622.42,1.25.855,1.867,1.291L-1255.08,38.5Z" transform="translate(2208.667 7691.668)" fill="#00ccb1"/>
    <path id="Subtraction_148" data-name="Subtraction 148" d="M-1268,9690a103.7,103.7,0,0,1-20.758-2.093,102.493,102.493,0,0,1-19.334-6,103.018,103.018,0,0,1-17.495-9.5c-2.586-1.748-5.124-3.638-7.544-5.615l14.106-19.567a78.87,78.87,0,0,0,51.419,19.094,79.016,79.016,0,0,0,78.927-78.927,79.016,79.016,0,0,0-78.927-78.927c-1.475,0-2.954.04-4.395.12v-24.513c1.338-.052,2.684-.077,4-.077a103.663,103.663,0,0,1,20.758,2.1,102.3,102.3,0,0,1,19.335,6,102.916,102.916,0,0,1,17.5,9.5,103.836,103.836,0,0,1,15.244,12.579,103.721,103.721,0,0,1,12.577,15.241,103.207,103.207,0,0,1,9.5,17.5,102.32,102.32,0,0,1,6,19.335A103.667,103.667,0,0,1-1165,9587a103.676,103.676,0,0,1-2.093,20.756,102.58,102.58,0,0,1-6,19.337,103.077,103.077,0,0,1-9.5,17.5,103.753,103.753,0,0,1-12.577,15.243,104.09,104.09,0,0,1-15.244,12.579,103.178,103.178,0,0,1-17.5,9.5,102.5,102.5,0,0,1-19.335,6A103.665,103.665,0,0,1-1268,9690Z" transform="translate(1642 -1794)" fill="#eb0f43"/>
  </g>
</svg>
