<svg xmlns="http://www.w3.org/2000/svg" width="850" height="809" viewBox="0 0 850 809">
  <g id="poll_chart__web" data-name="poll_chart８_web" transform="translate(-215 -6680)">
    <rect id="Rectangle_3207" data-name="Rectangle 3207" width="850" height="809" rx="5" transform="translate(215 6680)" fill="#fff"/>
    <rect id="Rectangle_3210" data-name="Rectangle 3210" width="513" height="25" transform="translate(487 7191)" fill="#f6f6f6"/>
    <rect id="Rectangle_3212" data-name="Rectangle 3212" width="513" height="25" transform="translate(487 7227)" fill="#f6f6f6"/>
    <rect id="Rectangle_3216" data-name="Rectangle 3216" width="513" height="25" transform="translate(487 7303)" fill="#f6f6f6"/>
    <rect id="Rectangle_3222" data-name="Rectangle 3222" width="513" height="25" transform="translate(487 7378)" fill="#f6f6f6"/>
    <rect id="Rectangle_3214" data-name="Rectangle 3214" width="513" height="25" transform="translate(487 7263)" fill="#f6f6f6"/>
    <rect id="Rectangle_3218" data-name="Rectangle 3218" width="513" height="25" transform="translate(487 7339)" fill="#f6f6f6"/>
    <rect id="Rectangle_3220" data-name="Rectangle 3220" width="513" height="25" transform="translate(487 7414)" fill="#f6f6f6"/>
    <rect id="Rectangle_3208" data-name="Rectangle 3208" width="513" height="25" transform="translate(487 7153)" fill="#f6f6f6"/>
    <rect id="Rectangle_3211" data-name="Rectangle 3211" width="128" height="25" transform="translate(487 7191)" fill="#00ccb1"/>
    <rect id="Rectangle_3213" data-name="Rectangle 3213" width="84" height="25" transform="translate(487 7227)" fill="#00ccb1"/>
    <rect id="Rectangle_3217" data-name="Rectangle 3217" width="55" height="25" transform="translate(487 7303)" fill="#00ccb1"/>
    <rect id="Rectangle_3223" data-name="Rectangle 3223" width="26" height="25" transform="translate(487 7378)" fill="#00ccb1"/>
    <rect id="Rectangle_3215" data-name="Rectangle 3215" width="79" height="25" transform="translate(487 7263)" fill="#00ccb1"/>
    <rect id="Rectangle_3219" data-name="Rectangle 3219" width="31" height="25" transform="translate(487 7339)" fill="#00ccb1"/>
    <rect id="Rectangle_3221" data-name="Rectangle 3221" width="11" height="25" transform="translate(487 7414)" fill="#00ccb1"/>
    <rect id="Rectangle_3209" data-name="Rectangle 3209" width="175" height="25" transform="translate(487 7153)" fill="#00ccb1"/>
    <text id="內文p" transform="translate(669 7172)" fill="#8e8e8e" font-size="20" font-family="Arial-BoldMT, Arial" font-weight="700"><tspan x="0" y="0">33.6</tspan><tspan y="0" font-size="15">%</tspan></text>
    <text id="內文p-2" data-name="內文p" transform="translate(620 7210)" fill="#8e8e8e" font-size="20" font-family="Arial-BoldMT, Arial" font-weight="700"><tspan x="0" y="0">24.5</tspan><tspan y="0" font-size="15">%</tspan></text>
    <text id="內文p-3" data-name="內文p" transform="translate(575 7246)" fill="#8e8e8e" font-size="20" font-family="Arial-BoldMT, Arial" font-weight="700"><tspan x="0" y="0">15.9</tspan><tspan y="0" font-size="15">%</tspan></text>
    <text id="內文p-4" data-name="內文p" transform="translate(548 7322)" fill="#8e8e8e" font-size="20" font-family="Arial-BoldMT, Arial" font-weight="700"><tspan x="0" y="0">10.7</tspan><tspan y="0" font-size="15">%</tspan></text>
    <text id="內文p-5" data-name="內文p" transform="translate(518 7397)" fill="#8e8e8e" font-size="20" font-family="Arial-BoldMT, Arial" font-weight="700"><tspan x="0" y="0">3.0</tspan><tspan y="0" font-size="15">%</tspan></text>
    <text id="內文p-6" data-name="內文p" transform="translate(571 7282)" fill="#8e8e8e" font-size="20" font-family="Arial-BoldMT, Arial" font-weight="700"><tspan x="0" y="0">14.0</tspan><tspan y="0" font-size="15">%</tspan></text>
    <text id="內文p-7" data-name="內文p" transform="translate(524 7358)" fill="#8e8e8e" font-size="20" font-family="Arial-BoldMT, Arial" font-weight="700"><tspan x="0" y="0">4.9</tspan><tspan y="0" font-size="15">%</tspan></text>
    <text id="內文p-8" data-name="內文p" transform="translate(503 7433)" fill="#8e8e8e" font-size="20" font-family="Arial-BoldMT, Arial" font-weight="700"><tspan x="0" y="0">1.2</tspan><tspan y="0" font-size="15">%</tspan></text>
    <text id="內文p-9" data-name="內文p" transform="translate(280 7104)" font-size="20" font-family="SourceHanSansTW-Bold, Source Han Sans TW" font-weight="700"><tspan x="0" y="23">怎麼調整：（可複選）</tspan></text>
    <text id="內文p-10" data-name="內文p" transform="translate(408 7172)" font-size="20" font-family="SourceHanSansTW-Regular, Source Han Sans TW"><tspan x="-127.84" y="0">無意見/未回答</tspan></text>
    <text id="內文p-11" data-name="內文p" transform="translate(360 7210)" font-size="20" font-family="SourceHanSansTW-Regular, Source Han Sans TW"><tspan x="-80" y="0">親子共學</tspan></text>
    <text id="內文p-12" data-name="內文p" transform="translate(280 7249)" font-size="20" font-family="SourceHanSansTW-Regular, Source Han Sans TW"><tspan x="0" y="0">找補習班或家教</tspan></text>
    <text id="內文p-13" data-name="內文p" transform="translate(280 7325)" font-size="20" font-family="SourceHanSansTW-Regular, Source Han Sans TW"><tspan x="0" y="0">為孩子挑選特色學校</tspan></text>
    <text id="內文p-14" data-name="內文p" transform="translate(280 7400)" font-size="20" font-family="SourceHanSansTW-Regular, Source Han Sans TW"><tspan x="0" y="0">找升學顧問協助</tspan></text>
    <text id="內文p-15" data-name="內文p" transform="translate(280 7285)" font-size="20" font-family="SourceHanSansTW-Regular, Source Han Sans TW"><tspan x="0" y="0">尋找線上教學資源</tspan></text>
    <text id="內文p-16" data-name="內文p" transform="translate(280 7360)" font-size="20" font-family="SourceHanSansTW-Regular, Source Han Sans TW"><tspan x="0" y="0">轉學至私立學校</tspan></text>
    <text id="內文p-17" data-name="內文p" transform="translate(280 7435)" font-size="20" font-family="SourceHanSansTW-Regular, Source Han Sans TW"><tspan x="0" y="0">送孩子出國留學</tspan></text>
    <text id="內文p-18" data-name="內文p" transform="translate(280 6765)" font-size="25" font-family="SourceHanSansTW-Bold, Source Han Sans TW" font-weight="700"><tspan x="0" y="0">家長會因為新課綱調整教育方式嗎？</tspan></text>
    <text id="內文p-19" data-name="內文p" transform="translate(475 7048)" font-size="20" font-family="SourceHanSansTW-Regular, Source Han Sans TW"><tspan x="0" y="0">不會</tspan></text>
    <text id="_65.4_" data-name="65.4%" transform="translate(443 6928)" fill="#8e8e8e" font-size="40" font-family="Arial-Black, Arial" font-weight="800"><tspan x="0" y="0">65.4</tspan><tspan y="0" font-size="25">%</tspan></text>
    <path id="Subtraction_117" data-name="Subtraction 117" d="M103,206a103.772,103.772,0,0,1-20.758-2.093,102.437,102.437,0,0,1-36.83-15.5A103.311,103.311,0,0,1,8.094,143.092a102.516,102.516,0,0,1-6-19.334,104.006,104.006,0,0,1,0-41.516,102.422,102.422,0,0,1,15.5-36.83A103.3,103.3,0,0,1,62.907,8.094a102.494,102.494,0,0,1,19.334-6,104,104,0,0,1,41.517,0,102.422,102.422,0,0,1,36.83,15.5,103.306,103.306,0,0,1,37.318,45.317,102.462,102.462,0,0,1,6,19.334,103.994,103.994,0,0,1,0,41.516,102.415,102.415,0,0,1-15.5,36.83,103.3,103.3,0,0,1-45.317,37.318,102.494,102.494,0,0,1-19.334,6A103.774,103.774,0,0,1,103,206Zm.395-181.532a78.927,78.927,0,1,0,78.927,78.927A79.016,79.016,0,0,0,103.395,24.468Z" transform="translate(396 6812)" fill="#eee"/>
    <path id="Subtraction_125" data-name="Subtraction 125" d="M-1268,9690a103.7,103.7,0,0,1-20.759-2.091,102.626,102.626,0,0,1-19.336-6,103.3,103.3,0,0,1-17.495-9.5,103.918,103.918,0,0,1-15.243-12.577c-.655-.655-1.309-1.328-1.946-2l16.51-17.688a79.069,79.069,0,0,0,58.662,26.177,79.016,79.016,0,0,0,78.926-78.927,79.016,79.016,0,0,0-78.926-78.926c-1.451,0-2.93.041-4.394.121v-24.514c1.338-.052,2.683-.077,4-.077a103.729,103.729,0,0,1,20.758,2.094,102.661,102.661,0,0,1,19.333,6,102.789,102.789,0,0,1,17.495,9.5,103.712,103.712,0,0,1,15.245,12.578,103.818,103.818,0,0,1,12.575,15.243,102.962,102.962,0,0,1,9.5,17.5,102.405,102.405,0,0,1,6,19.333A103.754,103.754,0,0,1-1165,9587a103.739,103.739,0,0,1-2.094,20.756,102.376,102.376,0,0,1-6,19.336,103.061,103.061,0,0,1-9.5,17.5,103.867,103.867,0,0,1-12.575,15.245,104,104,0,0,1-15.245,12.577,103.2,103.2,0,0,1-17.495,9.5,102.661,102.661,0,0,1-19.333,6A103.731,103.731,0,0,1-1268,9690Z" transform="translate(1767 -2672)" fill="#00ccb1"/>
    <text id="內文p-20" data-name="內文p" transform="translate(765 7048)" font-size="20" font-family="SourceHanSansTW-Regular, Source Han Sans TW"><tspan x="-10" y="0">會</tspan></text>
    <text id="_30.7_" data-name="30.7%" transform="translate(709 6928)" fill="#8e8e8e" font-size="40" font-family="Arial-Black, Arial" font-weight="800"><tspan x="0" y="0">30.7</tspan><tspan y="0" font-size="25">%</tspan></text>
    <path id="Subtraction_121" data-name="Subtraction 121" d="M103,206a103.772,103.772,0,0,1-20.758-2.093,102.437,102.437,0,0,1-36.83-15.5A103.311,103.311,0,0,1,8.094,143.092a102.516,102.516,0,0,1-6-19.334,104.006,104.006,0,0,1,0-41.516,102.422,102.422,0,0,1,15.5-36.83A103.3,103.3,0,0,1,62.907,8.094a102.494,102.494,0,0,1,19.334-6,104,104,0,0,1,41.517,0,102.422,102.422,0,0,1,36.83,15.5,103.306,103.306,0,0,1,37.318,45.317,102.462,102.462,0,0,1,6,19.334,103.994,103.994,0,0,1,0,41.516,102.415,102.415,0,0,1-15.5,36.83,103.3,103.3,0,0,1-45.317,37.318,102.494,102.494,0,0,1-19.334,6A103.774,103.774,0,0,1,103,206Zm.395-181.532a78.927,78.927,0,1,0,78.927,78.927A79.016,79.016,0,0,0,103.395,24.468Z" transform="translate(662 6812)" fill="#eee"/>
    <path id="Subtraction_129" data-name="Subtraction 129" d="M3980,3361h0l-21.1-10.668a78.9,78.9,0,0,0-66.84-120.863l-.394,0V3205a103.731,103.731,0,0,1,20.757,2.094,102.4,102.4,0,0,1,36.83,15.5,103.348,103.348,0,0,1,37.319,45.317,102.545,102.545,0,0,1,6,19.335,103.933,103.933,0,0,1,0,41.516A102.294,102.294,0,0,1,3980,3361Z" transform="translate(-3126.667 3607)" fill="#00ccb1"/>
  </g>
</svg>
