<svg xmlns="http://www.w3.org/2000/svg" width="850" height="416" viewBox="0 0 850 416">
  <g id="poll_chart__web" data-name="poll_chart６_web" transform="translate(-215 -5286)">
    <rect id="Rectangle_2600" data-name="Rectangle 2600" width="850" height="416" rx="5" transform="translate(215 5286)" fill="#fff"/>
    <text id="內文p" transform="translate(280 5371)" font-size="25" font-family="SourceHanSansTW-Bold, Source Han Sans TW" font-weight="700"><tspan x="0" y="0">對學校及教師掌握、落實新課綱的能力，有沒有信心？</tspan></text>
    <g id="Group_1992" data-name="Group 1992" transform="translate(384.127 5410)">
      <text id="內文p-2" data-name="內文p" transform="translate(73 236)" font-size="20" font-family="SourceHanSansTW-Regular, Source Han Sans TW"><tspan x="0" y="0">有信心</tspan></text>
      <text id="_45.8_" data-name="45.8%" transform="translate(47 116)" fill="#8e8e8e" font-size="40" font-family="Arial-Black, Arial" font-weight="800"><tspan x="0" y="0">45.8</tspan><tspan y="0" font-size="25">%</tspan></text>
      <path id="Subtraction_35" data-name="Subtraction 35" d="M103,206a103.772,103.772,0,0,1-20.758-2.093,102.437,102.437,0,0,1-36.83-15.5A103.311,103.311,0,0,1,8.094,143.092a102.516,102.516,0,0,1-6-19.334,104.006,104.006,0,0,1,0-41.516,102.422,102.422,0,0,1,15.5-36.83A103.3,103.3,0,0,1,62.907,8.094a102.494,102.494,0,0,1,19.334-6,104,104,0,0,1,41.517,0,102.422,102.422,0,0,1,36.83,15.5,103.306,103.306,0,0,1,37.318,45.317,102.462,102.462,0,0,1,6,19.334,103.994,103.994,0,0,1,0,41.516,102.415,102.415,0,0,1-15.5,36.83,103.3,103.3,0,0,1-45.317,37.318,102.494,102.494,0,0,1-19.334,6A103.774,103.774,0,0,1,103,206Zm.395-181.532a78.927,78.927,0,1,0,78.927,78.927A79.016,79.016,0,0,0,103.395,24.468Z" fill="#eee"/>
      <path id="Subtraction_37" data-name="Subtraction 37" d="M64.511,183.3h0L46.745,167.244a79.26,79.26,0,0,0,32.577-63.85A79.016,79.016,0,0,0,.4,24.467H0V0A103.756,103.756,0,0,1,20.759,2.092a102.537,102.537,0,0,1,19.335,6,103.018,103.018,0,0,1,17.5,9.5A103.746,103.746,0,0,1,72.833,30.168,103.69,103.69,0,0,1,85.409,45.412a102.986,102.986,0,0,1,9.5,17.5,102.4,102.4,0,0,1,6,19.335A103.73,103.73,0,0,1,103,103a103.747,103.747,0,0,1-2.094,20.759,102.462,102.462,0,0,1-6,19.334,102.956,102.956,0,0,1-9.5,17.5,103.746,103.746,0,0,1-12.577,15.244,104.149,104.149,0,0,1-8.321,7.466Z" transform="translate(103 0)" fill="#00ccb1"/>
    </g>
    <g id="Group_1993" data-name="Group 1993" transform="translate(634.795 5410)">
      <text id="內文p-3" data-name="內文p" transform="translate(103 236)" font-size="20" font-family="SourceHanSansTW-Regular, Source Han Sans TW"><tspan x="-30" y="0">沒信心</tspan></text>
      <text id="_42.4_" data-name="42.4%" transform="translate(47 116)" fill="#8e8e8e" font-size="40" font-family="Arial-Black, Arial" font-weight="800"><tspan x="0" y="0">42.4</tspan><tspan y="0" font-size="25">%</tspan></text>
      <path id="Subtraction_32" data-name="Subtraction 32" d="M103,206a103.772,103.772,0,0,1-20.758-2.093,102.437,102.437,0,0,1-36.83-15.5A103.311,103.311,0,0,1,8.094,143.092a102.516,102.516,0,0,1-6-19.334,104.006,104.006,0,0,1,0-41.516,102.422,102.422,0,0,1,15.5-36.83A103.3,103.3,0,0,1,62.907,8.094a102.494,102.494,0,0,1,19.334-6,104,104,0,0,1,41.517,0,102.422,102.422,0,0,1,36.83,15.5,103.306,103.306,0,0,1,37.318,45.317,102.462,102.462,0,0,1,6,19.334,103.994,103.994,0,0,1,0,41.516,102.415,102.415,0,0,1-15.5,36.83,103.3,103.3,0,0,1-45.317,37.318,102.494,102.494,0,0,1-19.334,6A103.774,103.774,0,0,1,103,206Zm.395-181.532a78.927,78.927,0,1,0,78.927,78.927A79.016,79.016,0,0,0,103.395,24.468Z" fill="#eee"/>
      <path id="Subtraction_39" data-name="Subtraction 39" d="M76.977,169.329h0l-19.04-13.977A78.819,78.819,0,0,0,77.51,103.379c0-42.323-34.4-77.716-76.694-78.9L0,0A103.748,103.748,0,0,1,18.947,2.078a102.482,102.482,0,0,1,19.334,6,103.019,103.019,0,0,1,17.5,9.5A103.687,103.687,0,0,1,71.02,30.153,103.689,103.689,0,0,1,83.6,45.4a103.025,103.025,0,0,1,9.5,17.5,102.485,102.485,0,0,1,6,19.334,103.738,103.738,0,0,1,2.093,20.758A103.742,103.742,0,0,1,99.1,123.742a102.472,102.472,0,0,1-6,19.334,103.033,103.033,0,0,1-9.5,17.5,103.766,103.766,0,0,1-6.62,8.756Z" transform="translate(104.812 0.016)" fill="#eb0f43"/>
    </g>
  </g>
</svg>
