<svg xmlns="http://www.w3.org/2000/svg" width="850" height="691" viewBox="0 0 850 691">
  <g id="poll_chart21_web" transform="translate(-215 -16282)">
    <rect id="Rectangle_2596" data-name="Rectangle 2596" width="850" height="691" rx="5" transform="translate(215 16282)" fill="#fff"/>
    <text id="內文p" transform="translate(280.5 16367)" font-size="25" font-family="SourceHanSansTW-Bold, Source Han Sans TW" font-weight="700"><tspan x="0" y="0">高中對學習歷程檔案實施後的觀察？</tspan></text>
    <text id="內文p-2" data-name="內文p" transform="translate(314.5 16642)" font-size="20" font-family="SourceHanSansTW-Regular, Source Han Sans TW"><tspan x="0" y="0">正面影響較多</tspan></text>
    <text id="內文p-3" data-name="內文p" transform="translate(640.5 16642)" font-size="20" font-family="SourceHanSansTW-Regular, Source Han Sans TW"><tspan x="-60" y="0">負面影響較多</tspan></text>
    <text id="內文p-4" data-name="內文p" transform="translate(906.5 16642)" font-size="20" font-family="SourceHanSansTW-Regular, Source Han Sans TW"><tspan x="-30" y="0">無影響</tspan></text>
    <text id="_80.0_" data-name="80.0%" transform="translate(318.5 16522)" fill="#8e8e8e" font-size="40" font-family="Arial-Black, Arial" font-weight="800"><tspan x="0" y="0">80.0</tspan><tspan y="0" font-size="25">%</tspan></text>
    <path id="Subtraction_4" data-name="Subtraction 4" d="M103,206a103.772,103.772,0,0,1-20.758-2.093,102.437,102.437,0,0,1-36.83-15.5A103.311,103.311,0,0,1,8.094,143.092a102.516,102.516,0,0,1-6-19.334,104.006,104.006,0,0,1,0-41.516,102.422,102.422,0,0,1,15.5-36.83A103.3,103.3,0,0,1,62.907,8.094a102.494,102.494,0,0,1,19.334-6,104,104,0,0,1,41.517,0,102.422,102.422,0,0,1,36.83,15.5,103.306,103.306,0,0,1,37.318,45.317,102.462,102.462,0,0,1,6,19.334,103.994,103.994,0,0,1,0,41.516,102.415,102.415,0,0,1-15.5,36.83,103.3,103.3,0,0,1-45.317,37.318,102.494,102.494,0,0,1-19.334,6A103.774,103.774,0,0,1,103,206Zm.395-181.532a78.927,78.927,0,1,0,78.927,78.927A79.016,79.016,0,0,0,103.395,24.468Z" transform="translate(271.5 16406)" fill="#eee"/>
    <text id="_16.8_" data-name="16.8%" transform="translate(584.5 16522)" fill="#8e8e8e" font-size="40" font-family="Arial-Black, Arial" font-weight="800"><tspan x="0" y="0">16.8</tspan><tspan y="0" font-size="25">%</tspan></text>
    <text id="_3.2_" data-name="3.2%" transform="translate(862.5 16522)" fill="#8e8e8e" font-size="40" font-family="Arial-Black, Arial" font-weight="800"><tspan x="0" y="0">3.2</tspan><tspan y="0" font-size="25">%</tspan></text>
    <path id="Subtraction_7" data-name="Subtraction 7" d="M103,206a103.772,103.772,0,0,1-20.758-2.093,102.437,102.437,0,0,1-36.83-15.5A103.311,103.311,0,0,1,8.094,143.092a102.516,102.516,0,0,1-6-19.334,104.006,104.006,0,0,1,0-41.516,102.422,102.422,0,0,1,15.5-36.83A103.3,103.3,0,0,1,62.907,8.094a102.494,102.494,0,0,1,19.334-6,104,104,0,0,1,41.517,0,102.422,102.422,0,0,1,36.83,15.5,103.306,103.306,0,0,1,37.318,45.317,102.462,102.462,0,0,1,6,19.334,103.994,103.994,0,0,1,0,41.516,102.415,102.415,0,0,1-15.5,36.83,103.3,103.3,0,0,1-45.317,37.318,102.494,102.494,0,0,1-19.334,6A103.774,103.774,0,0,1,103,206Zm.395-181.532a78.927,78.927,0,1,0,78.927,78.927A79.016,79.016,0,0,0,103.395,24.468Z" transform="translate(537.5 16406)" fill="#eee"/>
    <path id="Subtraction_28" data-name="Subtraction 28" d="M103,206a103.772,103.772,0,0,1-20.758-2.093,102.437,102.437,0,0,1-36.83-15.5A103.311,103.311,0,0,1,8.094,143.092a102.516,102.516,0,0,1-6-19.334,104.006,104.006,0,0,1,0-41.516,102.422,102.422,0,0,1,15.5-36.83A103.3,103.3,0,0,1,62.907,8.094a102.494,102.494,0,0,1,19.334-6,104,104,0,0,1,41.517,0,102.422,102.422,0,0,1,36.83,15.5,103.306,103.306,0,0,1,37.318,45.317,102.462,102.462,0,0,1,6,19.334,103.994,103.994,0,0,1,0,41.516,102.415,102.415,0,0,1-15.5,36.83,103.3,103.3,0,0,1-45.317,37.318,102.494,102.494,0,0,1-19.334,6A103.774,103.774,0,0,1,103,206Zm.395-181.532a78.927,78.927,0,1,0,78.927,78.927A79.016,79.016,0,0,0,103.395,24.468Z" transform="translate(803.5 16406)" fill="#eee"/>
    <path id="Subtraction_23" data-name="Subtraction 23" d="M3965.9,3280.518a79.4,79.4,0,0,0-73.843-51.049h-.394V3205a103.583,103.583,0,0,1,20.758,2.093,102.434,102.434,0,0,1,36.831,15.5,103.312,103.312,0,0,1,37.316,45.314c.542,1.282,1.063,2.59,1.55,3.887l-22.217,8.725Z" transform="translate(-3251.167 13201)" fill="#e91d40"/>
    <path id="Subtraction_99" data-name="Subtraction 99" d="M3891.667,3411a103.828,103.828,0,0,1-20.758-2.092,102.435,102.435,0,0,1-36.831-15.5,103.321,103.321,0,0,1-37.317-45.316,102.581,102.581,0,0,1-6-19.335,104.018,104.018,0,0,1,0-41.516c.666-3.255,1.5-6.522,2.49-9.712l23.554,7.053a78.931,78.931,0,1,0,75.258-55.116h-.4V3205a103.756,103.756,0,0,1,20.758,2.092,102.414,102.414,0,0,1,36.83,15.5,103.316,103.316,0,0,1,37.317,45.317,102.383,102.383,0,0,1,6,19.334,103.97,103.97,0,0,1,0,41.516,102.391,102.391,0,0,1-15.5,36.83,103.3,103.3,0,0,1-45.316,37.318,102.457,102.457,0,0,1-19.334,6A103.832,103.832,0,0,1,3891.667,3411Z" transform="translate(-3517.167 13201)" fill="#00ccb1"/>
    <path id="Subtraction_31" data-name="Subtraction 31" d="M-1273.091,28.392h0a78.312,78.312,0,0,0-29.181-5.591h-.4V-1.665A103.68,103.68,0,0,1-1281.911.427a102.732,102.732,0,0,1,17.851,5.386l-9.031,22.578Z" transform="translate(2209.167 16407.668)" fill="#00ccb1"/>
    <text id="內文p-5" data-name="內文p" transform="translate(280.5 16698)" font-size="20" font-family="SourceHanSansTW-Bold, Source Han Sans TW" font-weight="700"><tspan x="0" y="23">學校認為的負面影響有哪些？（可複選）</tspan></text>
    <text id="內文p-6" data-name="內文p" transform="translate(499.5 16766)" font-size="20" font-family="SourceHanSansTW-Regular, Source Han Sans TW"><tspan x="-220" y="0">拉大城鄉與教學資源差距</tspan></text>
    <text id="內文p-7" data-name="內文p" transform="translate(479.5 16804)" font-size="20" font-family="SourceHanSansTW-Regular, Source Han Sans TW"><tspan x="-200" y="0">學生壓力與作業量變大</tspan></text>
    <text id="內文p-8" data-name="內文p" transform="translate(279.5 16843)" font-size="20" font-family="SourceHanSansTW-Regular, Source Han Sans TW"><tspan x="0" y="0">教師負擔加重</tspan></text>
    <text id="內文p-9" data-name="內文p" transform="translate(279.5 16919)" font-size="20" font-family="SourceHanSansTW-Regular, Source Han Sans TW"><tspan x="0" y="0">課堂成果不易呈現</tspan></text>
    <text id="內文p-10" data-name="內文p" transform="translate(279.5 16879)" font-size="20" font-family="SourceHanSansTW-Regular, Source Han Sans TW"><tspan x="0" y="0">升學複雜度變高</tspan></text>
    <rect id="Rectangle_3111" data-name="Rectangle 3111" width="494" height="25" transform="translate(506.5 16786)" fill="#f6f6f6"/>
    <rect id="Rectangle_3115" data-name="Rectangle 3115" width="494" height="25" transform="translate(506.5 16822)" fill="#f6f6f6"/>
    <rect id="Rectangle_3119" data-name="Rectangle 3119" width="494" height="25" transform="translate(506.5 16898)" fill="#f6f6f6"/>
    <rect id="Rectangle_3117" data-name="Rectangle 3117" width="494" height="25" transform="translate(506.5 16858)" fill="#f6f6f6"/>
    <rect id="Rectangle_3112" data-name="Rectangle 3112" width="494" height="25" transform="translate(506.5 16748)" fill="#f6f6f6"/>
    <rect id="Rectangle_3113" data-name="Rectangle 3113" width="400" height="25" transform="translate(506.5 16786)" fill="#00ccb1"/>
    <rect id="Rectangle_3116" data-name="Rectangle 3116" width="383" height="25" transform="translate(506.5 16822)" fill="#00ccb1"/>
    <rect id="Rectangle_3120" data-name="Rectangle 3120" width="338" height="25" transform="translate(506.5 16898)" fill="#00ccb1"/>
    <rect id="Rectangle_3118" data-name="Rectangle 3118" width="377" height="25" transform="translate(506.5 16858)" fill="#00ccb1"/>
    <rect id="Rectangle_3114" data-name="Rectangle 3114" width="406" height="25" transform="translate(506.5 16748)" fill="#00ccb1"/>
    <text id="內文p-11" data-name="內文p" transform="translate(918.5 16767)" fill="#8e8e8e" font-size="20" font-family="Arial-BoldMT, Arial" font-weight="700"><tspan x="0" y="0">81.9</tspan><tspan y="0" font-size="15">%</tspan></text>
    <text id="內文p-12" data-name="內文p" transform="translate(912.5 16805)" fill="#8e8e8e" font-size="20" font-family="Arial-BoldMT, Arial" font-weight="700"><tspan x="0" y="0">80.2</tspan><tspan y="0" font-size="15">%</tspan></text>
    <text id="內文p-13" data-name="內文p" transform="translate(894.5 16841)" fill="#8e8e8e" font-size="20" font-family="Arial-BoldMT, Arial" font-weight="700"><tspan x="0" y="0">76.4</tspan><tspan y="0" font-size="15">%</tspan></text>
    <text id="內文p-14" data-name="內文p" transform="translate(849.5 16917)" fill="#8e8e8e" font-size="20" font-family="Arial-BoldMT, Arial" font-weight="700"><tspan x="0" y="0">68.9</tspan><tspan y="0" font-size="15">%</tspan></text>
    <text id="內文p-15" data-name="內文p" transform="translate(889.5 16877)" fill="#8e8e8e" font-size="20" font-family="Arial-BoldMT, Arial" font-weight="700"><tspan x="0" y="0">75.7</tspan><tspan y="0" font-size="15">%</tspan></text>
  </g>
</svg>
