<svg xmlns="http://www.w3.org/2000/svg" width="850" height="850" viewBox="0 0 850 850">
  <g id="poll_chart16_web" transform="translate(-215 -13056)">
    <rect id="Rectangle_3059" data-name="Rectangle 3059" width="850" height="850" rx="5" transform="translate(215 13056)" fill="#fff"/>
    <rect id="Rectangle_3060" data-name="Rectangle 3060" width="513" height="25" transform="translate(487.5 13567)" fill="#f6f6f6"/>
    <rect id="Rectangle_3064" data-name="Rectangle 3064" width="513" height="25" transform="translate(487.5 13603)" fill="#f6f6f6"/>
    <rect id="Rectangle_3068" data-name="Rectangle 3068" width="513" height="25" transform="translate(487.5 13679)" fill="#f6f6f6"/>
    <rect id="Rectangle_3074" data-name="Rectangle 3074" width="513" height="25" transform="translate(487.5 13795)" fill="#f6f6f6"/>
    <rect id="Rectangle_3066" data-name="Rectangle 3066" width="513" height="25" transform="translate(487.5 13639)" fill="#f6f6f6"/>
    <rect id="Rectangle_3072" data-name="Rectangle 3072" width="513" height="25" transform="translate(487.5 13755)" fill="#f6f6f6"/>
    <rect id="Rectangle_3070" data-name="Rectangle 3070" width="513" height="25" transform="translate(487.5 13715)" fill="#f6f6f6"/>
    <rect id="Rectangle_3076" data-name="Rectangle 3076" width="513" height="25" transform="translate(487.5 13831)" fill="#f6f6f6"/>
    <rect id="Rectangle_3061" data-name="Rectangle 3061" width="513" height="25" transform="translate(487.5 13529)" fill="#f6f6f6"/>
    <rect id="Rectangle_3062" data-name="Rectangle 3062" width="216" height="25" transform="translate(487.5 13567)" fill="#00ccb1"/>
    <rect id="Rectangle_3065" data-name="Rectangle 3065" width="164" height="25" transform="translate(487.5 13603)" fill="#00ccb1"/>
    <rect id="Rectangle_3069" data-name="Rectangle 3069" width="113" height="25" transform="translate(487.5 13679)" fill="#00ccb1"/>
    <rect id="Rectangle_3075" data-name="Rectangle 3075" width="57" height="25" transform="translate(487.5 13795)" fill="#00ccb1"/>
    <rect id="Rectangle_3067" data-name="Rectangle 3067" width="128" height="25" transform="translate(487.5 13639)" fill="#00ccb1"/>
    <rect id="Rectangle_3073" data-name="Rectangle 3073" width="87" height="25" transform="translate(487.5 13755)" fill="#00ccb1"/>
    <rect id="Rectangle_3071" data-name="Rectangle 3071" width="94" height="25" transform="translate(487.5 13715)" fill="#00ccb1"/>
    <rect id="Rectangle_3077" data-name="Rectangle 3077" width="36" height="25" transform="translate(487.5 13831)" fill="#00ccb1"/>
    <rect id="Rectangle_3063" data-name="Rectangle 3063" width="226" height="25" transform="translate(487.5 13529)" fill="#00ccb1"/>
    <text id="內文p" transform="translate(718.5 13548)" fill="#8e8e8e" font-size="20" font-family="Arial-BoldMT, Arial" font-weight="700"><tspan x="0" y="0">43.7</tspan><tspan y="0" font-size="15">%</tspan></text>
    <text id="內文p-2" data-name="內文p" transform="translate(709.5 13586)" fill="#8e8e8e" font-size="20" font-family="Arial-BoldMT, Arial" font-weight="700"><tspan x="0" y="0">41.1</tspan><tspan y="0" font-size="15">%</tspan></text>
    <text id="內文p-3" data-name="內文p" transform="translate(655.5 13622)" fill="#8e8e8e" font-size="20" font-family="Arial-BoldMT, Arial" font-weight="700"><tspan x="0" y="0">31.0</tspan><tspan y="0" font-size="15">%</tspan></text>
    <text id="內文p-4" data-name="內文p" transform="translate(606.5 13698)" fill="#8e8e8e" font-size="20" font-family="Arial-BoldMT, Arial" font-weight="700"><tspan x="0" y="0">21.2</tspan><tspan y="0" font-size="15">%</tspan></text>
    <text id="內文p-5" data-name="內文p" transform="translate(548.5 13815)" fill="#8e8e8e" font-size="20" font-family="Arial-BoldMT, Arial" font-weight="700"><tspan x="0" y="0">11</tspan><tspan y="0" font-size="15">%</tspan></text>
    <text id="內文p-6" data-name="內文p" transform="translate(620.5 13658)" fill="#8e8e8e" font-size="20" font-family="Arial-BoldMT, Arial" font-weight="700"><tspan x="0" y="0">23.5</tspan><tspan y="0" font-size="15">%</tspan></text>
    <text id="內文p-7" data-name="內文p" transform="translate(580.5 13775)" fill="#8e8e8e" font-size="20" font-family="Arial-BoldMT, Arial" font-weight="700"><tspan x="0" y="0">16.9</tspan><tspan y="0" font-size="15">%</tspan></text>
    <text id="內文p-8" data-name="內文p" transform="translate(585.5 13734)" fill="#8e8e8e" font-size="20" font-family="Arial-BoldMT, Arial" font-weight="700"><tspan x="0" y="0">18</tspan><tspan y="0" font-size="15">%</tspan></text>
    <text id="內文p-9" data-name="內文p" transform="translate(526.5 13850)" fill="#8e8e8e" font-size="20" font-family="Arial-BoldMT, Arial" font-weight="700"><tspan x="0" y="0">6</tspan><tspan y="0" font-size="15">%</tspan></text>
    <text id="內文p-10" data-name="內文p" transform="translate(280.5 13480)" font-size="20" font-family="SourceHanSansTW-Bold, Source Han Sans TW" font-weight="700"><tspan x="0" y="23">遇到困難的領域/科目為：（可複選）</tspan></text>
    <text id="內文p-11" data-name="內文p" transform="translate(360.5 13548)" font-size="20" font-family="SourceHanSansTW-Regular, Source Han Sans TW"><tspan x="-80" y="0">自然科學</tspan></text>
    <text id="內文p-12" data-name="內文p" transform="translate(320.5 13586)" font-size="20" font-family="SourceHanSansTW-Regular, Source Han Sans TW"><tspan x="-40" y="0">科技</tspan></text>
    <text id="內文p-13" data-name="內文p" transform="translate(280.5 13625)" font-size="20" font-family="SourceHanSansTW-Regular, Source Han Sans TW"><tspan x="0" y="0">數學</tspan></text>
    <text id="內文p-14" data-name="內文p" transform="translate(280.5 13701)" font-size="20" font-family="SourceHanSansTW-Regular, Source Han Sans TW"><tspan x="0" y="0">語文</tspan></text>
    <text id="內文p-15" data-name="內文p" transform="translate(280.5 13817)" font-size="20" font-family="SourceHanSansTW-Regular, Source Han Sans TW"><tspan x="0" y="0">其他</tspan></text>
    <text id="內文p-16" data-name="內文p" transform="translate(280.5 13661)" font-size="20" font-family="SourceHanSansTW-Regular, Source Han Sans TW"><tspan x="0" y="0">社會</tspan></text>
    <text id="內文p-17" data-name="內文p" transform="translate(280.5 13777)" font-size="20" font-family="SourceHanSansTW-Regular, Source Han Sans TW"><tspan x="0" y="0">藝術</tspan></text>
    <text id="內文p-18" data-name="內文p" transform="translate(280.5 13737)" font-size="20" font-family="SourceHanSansTW-Regular, Source Han Sans TW"><tspan x="0" y="0">綜合活動</tspan></text>
    <text id="內文p-19" data-name="內文p" transform="translate(280.5 13853)" font-size="20" font-family="SourceHanSansTW-Regular, Source Han Sans TW"><tspan x="0" y="0">健康與體育</tspan></text>
    <text id="內文p-20" data-name="內文p" transform="translate(280.5 13141)" font-size="25" font-family="SourceHanSansTW-Bold, Source Han Sans TW" font-weight="700"><tspan x="0" y="0">高中部定必修課程是否遇到困難？</tspan></text>
    <text id="內文p-21" data-name="內文p" transform="translate(466.5 13424)" font-size="20" font-family="SourceHanSansTW-Regular, Source Han Sans TW"><tspan x="0" y="0">無困難</tspan></text>
    <text id="_76.7_" data-name="76.7%" transform="translate(443.5 13304)" fill="#8e8e8e" font-size="40" font-family="Arial-Black, Arial" font-weight="800"><tspan x="0" y="0">76.7</tspan><tspan y="0" font-size="25">%</tspan></text>
    <path id="Subtraction_40" data-name="Subtraction 40" d="M103,206a103.772,103.772,0,0,1-20.758-2.093,102.437,102.437,0,0,1-36.83-15.5A103.311,103.311,0,0,1,8.094,143.092a102.516,102.516,0,0,1-6-19.334,104.006,104.006,0,0,1,0-41.516,102.422,102.422,0,0,1,15.5-36.83A103.3,103.3,0,0,1,62.907,8.094a102.494,102.494,0,0,1,19.334-6,104,104,0,0,1,41.517,0,102.422,102.422,0,0,1,36.83,15.5,103.306,103.306,0,0,1,37.318,45.317,102.462,102.462,0,0,1,6,19.334,103.994,103.994,0,0,1,0,41.516,102.415,102.415,0,0,1-15.5,36.83,103.3,103.3,0,0,1-45.317,37.318,102.494,102.494,0,0,1-19.334,6A103.774,103.774,0,0,1,103,206Zm.395-181.532a78.927,78.927,0,1,0,78.927,78.927A79.016,79.016,0,0,0,103.395,24.468Z" transform="translate(396.5 13188)" fill="#eee"/>
    <path id="Subtraction_87" data-name="Subtraction 87" d="M-1286.333,230a103.757,103.757,0,0,1-20.759-2.092,102.439,102.439,0,0,1-19.334-6,102.974,102.974,0,0,1-17.5-9.5,103.734,103.734,0,0,1-15.244-12.577,103.693,103.693,0,0,1-12.577-15.244,102.951,102.951,0,0,1-9.5-17.5,102.544,102.544,0,0,1-6-19.334A103.824,103.824,0,0,1-1389.334,127c0-3.434.173-6.91.514-10.332l24.385,2.451a79.829,79.829,0,0,0-.431,8.276,79.017,79.017,0,0,0,78.927,78.927,79.016,79.016,0,0,0,78.926-78.927,79.016,79.016,0,0,0-78.926-78.927c-1.127,0-2.27.024-3.4.072v-24.5c1.008-.029,2.017-.043,3-.043a103.758,103.758,0,0,1,20.759,2.093,102.476,102.476,0,0,1,19.334,6,103.017,103.017,0,0,1,17.5,9.5A103.728,103.728,0,0,1-1213.5,54.168a103.729,103.729,0,0,1,12.578,15.244,103.007,103.007,0,0,1,9.5,17.5,102.481,102.481,0,0,1,6,19.334A103.756,103.756,0,0,1-1183.333,127a103.76,103.76,0,0,1-2.093,20.758,102.481,102.481,0,0,1-6,19.334,103.007,103.007,0,0,1-9.5,17.5,103.635,103.635,0,0,1-12.578,15.244,103.745,103.745,0,0,1-15.243,12.577,103.016,103.016,0,0,1-17.5,9.5,102.483,102.483,0,0,1-19.334,6A103.757,103.757,0,0,1-1286.333,230Z" transform="translate(1785.833 13164)" fill="#00ccb1"/>
    <text id="內文p-22" data-name="內文p" transform="translate(765.5 13424)" font-size="20" font-family="SourceHanSansTW-Regular, Source Han Sans TW"><tspan x="-30" y="0">有困難</tspan></text>
    <text id="_23.3_" data-name="23.3%" transform="translate(709.5 13304)" fill="#8e8e8e" font-size="40" font-family="Arial-Black, Arial" font-weight="800"><tspan x="0" y="0">23.3</tspan><tspan y="0" font-size="25">%</tspan></text>
    <path id="Subtraction_43" data-name="Subtraction 43" d="M103,206a103.772,103.772,0,0,1-20.758-2.093,102.437,102.437,0,0,1-36.83-15.5A103.311,103.311,0,0,1,8.094,143.092a102.516,102.516,0,0,1-6-19.334,104.006,104.006,0,0,1,0-41.516,102.422,102.422,0,0,1,15.5-36.83A103.3,103.3,0,0,1,62.907,8.094a102.494,102.494,0,0,1,19.334-6,104,104,0,0,1,41.517,0,102.422,102.422,0,0,1,36.83,15.5,103.306,103.306,0,0,1,37.318,45.317,102.462,102.462,0,0,1,6,19.334,103.994,103.994,0,0,1,0,41.516,102.415,102.415,0,0,1-15.5,36.83,103.3,103.3,0,0,1-45.317,37.318,102.494,102.494,0,0,1-19.334,6A103.774,103.774,0,0,1,103,206Zm.395-181.532a78.927,78.927,0,1,0,78.927,78.927A79.016,79.016,0,0,0,103.395,24.468Z" transform="translate(662.5 13188)" fill="#eee"/>
    <path id="Subtraction_86" data-name="Subtraction 86" d="M-1206.173,97.979a78.792,78.792,0,0,0-71.16-50.8V22.711a103.711,103.711,0,0,1,17.758,2.049,102.54,102.54,0,0,1,19.335,6,102.955,102.955,0,0,1,17.495,9.5A103.749,103.749,0,0,1-1207.5,52.835a103.664,103.664,0,0,1,12.577,15.244,102.95,102.95,0,0,1,9.5,17.5c1.067,2.524,2.046,5.129,2.91,7.742l-23.655,4.661h0Z" transform="translate(2045.833 13165.332)" fill="#eb0f43"/>
  </g>
</svg>
