<svg xmlns="http://www.w3.org/2000/svg" width="850" height="507" viewBox="0 0 850 507">
  <g id="poll_chart__web" data-name="poll_chart５_web" transform="translate(-215 -4835)">
    <rect id="Rectangle_2604" data-name="Rectangle 2604" width="850" height="507" rx="5" transform="translate(215 4835)" fill="#fff"/>
    <text id="內文p" transform="translate(280 4891)" font-size="25" font-family="SourceHanSansTW-Bold, Source Han Sans TW" font-weight="700"><tspan x="0" y="29">最擔心的變革是？（可複選）</tspan></text>
    <text id="內文p-2" data-name="內文p" transform="translate(360 4970)" font-size="20" font-family="SourceHanSansTW-Regular, Source Han Sans TW"><tspan x="-80" y="0">升學制度</tspan></text>
    <text id="內文p-3" data-name="內文p" transform="translate(360 5008)" font-size="20" font-family="SourceHanSansTW-Regular, Source Han Sans TW"><tspan x="-80" y="0">素養學習</tspan></text>
    <text id="內文p-4" data-name="內文p" transform="translate(400 5046)" font-size="20" font-family="SourceHanSansTW-Regular, Source Han Sans TW"><tspan x="-120" y="0">必修時數減少</tspan></text>
    <rect id="Rectangle_2638" data-name="Rectangle 2638" width="513" height="25" transform="translate(487 4948)" fill="#f6f6f6"/>
    <rect id="Rectangle_2636" data-name="Rectangle 2636" width="513" height="25" transform="translate(487 4986)" fill="#f6f6f6"/>
    <rect id="Rectangle_2634" data-name="Rectangle 2634" width="513" height="25" transform="translate(487 5025)" fill="#f6f6f6"/>
    <rect id="Rectangle_2639" data-name="Rectangle 2639" width="191" height="25" transform="translate(487 4948)" fill="#00ccb1"/>
    <rect id="Rectangle_2637" data-name="Rectangle 2637" width="120" height="25" transform="translate(487 4986)" fill="#00ccb1"/>
    <rect id="Rectangle_2635" data-name="Rectangle 2635" width="115" height="25" transform="translate(487 5025)" fill="#00ccb1"/>
    <text id="內文p-5" data-name="內文p" transform="translate(609 5044)" fill="#8e8e8e" font-size="20" font-family="Arial-BoldMT, Arial" font-weight="700"><tspan x="0" y="0">21.7</tspan><tspan y="0" font-size="15">%</tspan></text>
    <text id="內文p-6" data-name="內文p" transform="translate(686 4967)" fill="#8e8e8e" font-size="20" font-family="Arial-BoldMT, Arial" font-weight="700"><tspan x="0" y="0">37.2</tspan><tspan y="0" font-size="15">%</tspan></text>
    <text id="內文p-7" data-name="內文p" transform="translate(615 5006)" fill="#8e8e8e" font-size="20" font-family="Arial-BoldMT, Arial" font-weight="700"><tspan x="0" y="0">22.9</tspan><tspan y="0" font-size="15">%</tspan></text>
    <text id="內文p-8" data-name="內文p" transform="translate(360 5241)" font-size="20" font-family="SourceHanSansTW-Regular, Source Han Sans TW"><tspan x="-80" y="0">彈性課程</tspan></text>
    <text id="內文p-9" data-name="內文p" transform="translate(408 5280)" font-size="20" font-family="SourceHanSansTW-Regular, Source Han Sans TW"><tspan x="-127.84" y="0">無意見/未回答</tspan></text>
    <text id="內文p-10" data-name="內文p" transform="translate(360 5085)" font-size="20" font-family="SourceHanSansTW-Regular, Source Han Sans TW"><tspan x="-80" y="0">生涯引導</tspan></text>
    <text id="內文p-11" data-name="內文p" transform="translate(420 5124)" font-size="20" font-family="SourceHanSansTW-Regular, Source Han Sans TW"><tspan x="-140" y="0">多元選修課增加</tspan></text>
    <text id="內文p-12" data-name="內文p" transform="translate(400 5163)" font-size="20" font-family="SourceHanSansTW-Regular, Source Han Sans TW"><tspan x="-120" y="0">學習歷程檔案</tspan></text>
    <text id="內文p-13" data-name="內文p" transform="translate(360 5202)" font-size="20" font-family="SourceHanSansTW-Regular, Source Han Sans TW"><tspan x="-80" y="0">都不擔心</tspan></text>
    <rect id="Rectangle_3180" data-name="Rectangle 3180" width="513" height="25" transform="translate(487 5222)" fill="#f6f6f6"/>
    <rect id="Rectangle_4216" data-name="Rectangle 4216" width="513" height="25" transform="translate(487 5261)" fill="#f6f6f6"/>
    <rect id="Rectangle_3186" data-name="Rectangle 3186" width="513" height="25" transform="translate(487 5066)" fill="#f6f6f6"/>
    <rect id="Rectangle_3182" data-name="Rectangle 3182" width="513" height="25" transform="translate(487 5105)" fill="#f6f6f6"/>
    <rect id="Rectangle_3181" data-name="Rectangle 3181" width="513" height="25" transform="translate(487 5144)" fill="#f6f6f6"/>
    <rect id="Rectangle_4214" data-name="Rectangle 4214" width="513" height="25" transform="translate(487 5183)" fill="#f6f6f6"/>
    <rect id="Rectangle_3184" data-name="Rectangle 3184" width="56" height="25" transform="translate(487 5222)" fill="#00ccb1"/>
    <rect id="Rectangle_4217" data-name="Rectangle 4217" width="49" height="25" transform="translate(487 5261)" fill="#00ccb1"/>
    <rect id="Rectangle_3187" data-name="Rectangle 3187" width="106" height="25" transform="translate(487 5066)" fill="#00ccb1"/>
    <rect id="Rectangle_3183" data-name="Rectangle 3183" width="97" height="25" transform="translate(487 5105)" fill="#00ccb1"/>
    <rect id="Rectangle_3185" data-name="Rectangle 3185" width="92" height="25" transform="translate(487 5144)" fill="#00ccb1"/>
    <rect id="Rectangle_4215" data-name="Rectangle 4215" width="70" height="25" transform="translate(487 5183)" fill="#00ccb1"/>
    <text id="內文p-14" data-name="內文p" transform="translate(547 5241)" fill="#8e8e8e" font-size="20" font-family="Arial-BoldMT, Arial" font-weight="700"><tspan x="0" y="0">10.9</tspan><tspan y="0" font-size="15">%</tspan></text>
    <text id="內文p-15" data-name="內文p" transform="translate(542 5280)" fill="#8e8e8e" font-size="20" font-family="Arial-BoldMT, Arial" font-weight="700"><tspan x="0" y="0">9.4</tspan><tspan y="0" font-size="15">%</tspan></text>
    <text id="內文p-16" data-name="內文p" transform="translate(599 5086)" fill="#8e8e8e" font-size="20" font-family="Arial-BoldMT, Arial" font-weight="700"><tspan x="0" y="0">20.1</tspan><tspan y="0" font-size="15">%</tspan></text>
    <text id="內文p-17" data-name="內文p" transform="translate(588 5124)" fill="#8e8e8e" font-size="20" font-family="Arial-BoldMT, Arial" font-weight="700"><tspan x="0" y="0">18.7</tspan><tspan y="0" font-size="15">%</tspan></text>
    <text id="內文p-18" data-name="內文p" transform="translate(582 5163)" fill="#8e8e8e" font-size="20" font-family="Arial-BoldMT, Arial" font-weight="700"><tspan x="0" y="0">17.4</tspan><tspan y="0" font-size="15">%</tspan></text>
    <text id="內文p-19" data-name="內文p" transform="translate(562 5202)" fill="#8e8e8e" font-size="20" font-family="Arial-BoldMT, Arial" font-weight="700"><tspan x="0" y="0">13.6</tspan><tspan y="0" font-size="15">%</tspan></text>
  </g>
</svg>
