<svg xmlns="http://www.w3.org/2000/svg" width="850" height="416" viewBox="0 0 850 416">
  <g id="poll_chart10_web" transform="translate(-215 -8007)">
    <rect id="Rectangle_2601" data-name="Rectangle 2601" width="850" height="416" rx="5" transform="translate(215 8007)" fill="#fff"/>
    <text id="內文p" transform="translate(280 8092)" font-size="25" font-family="SourceHanSansTW-Bold, Source Han Sans TW" font-weight="700"><tspan x="0" y="0">民眾是否支持新課綱改革？</tspan></text>
    <g id="Group_1997" data-name="Group 1997" transform="translate(0 2975)">
      <text id="內文p-2" data-name="內文p" transform="translate(765 5392)" font-size="20" font-family="SourceHanSansTW-Regular, Source Han Sans TW"><tspan x="-30" y="0">不支持</tspan></text>
      <text id="_24.1_" data-name="24.1%" transform="translate(709 5272)" fill="#8e8e8e" font-size="40" font-family="Arial-Black, Arial" font-weight="800"><tspan x="0" y="0">24.1</tspan><tspan y="0" font-size="25">%</tspan></text>
      <path id="Subtraction_7" data-name="Subtraction 7" d="M103,206a103.772,103.772,0,0,1-20.758-2.093,102.437,102.437,0,0,1-36.83-15.5A103.311,103.311,0,0,1,8.094,143.092a102.516,102.516,0,0,1-6-19.334,104.006,104.006,0,0,1,0-41.516,102.422,102.422,0,0,1,15.5-36.83A103.3,103.3,0,0,1,62.907,8.094a102.494,102.494,0,0,1,19.334-6,104,104,0,0,1,41.517,0,102.422,102.422,0,0,1,36.83,15.5,103.306,103.306,0,0,1,37.318,45.317,102.462,102.462,0,0,1,6,19.334,103.994,103.994,0,0,1,0,41.516,102.415,102.415,0,0,1-15.5,36.83,103.3,103.3,0,0,1-45.317,37.318,102.494,102.494,0,0,1-19.334,6A103.774,103.774,0,0,1,103,206Zm.395-181.532a78.927,78.927,0,1,0,78.927,78.927A79.016,79.016,0,0,0,103.395,24.468Z" transform="translate(662 5156)" fill="#eee"/>
    </g>
    <text id="內文p-3" data-name="內文p" transform="translate(473 8367)" font-size="20" font-family="SourceHanSansTW-Regular, Source Han Sans TW"><tspan x="0" y="0">支持</tspan></text>
    <text id="_58.7_" data-name="58.7%" transform="translate(443 8247)" fill="#8e8e8e" font-size="40" font-family="Arial-Black, Arial" font-weight="800"><tspan x="0" y="0">58.7</tspan><tspan y="0" font-size="25">%</tspan></text>
    <path id="Subtraction_4" data-name="Subtraction 4" d="M103,206a103.772,103.772,0,0,1-20.758-2.093,102.437,102.437,0,0,1-36.83-15.5A103.311,103.311,0,0,1,8.094,143.092a102.516,102.516,0,0,1-6-19.334,104.006,104.006,0,0,1,0-41.516,102.422,102.422,0,0,1,15.5-36.83A103.3,103.3,0,0,1,62.907,8.094a102.494,102.494,0,0,1,19.334-6,104,104,0,0,1,41.517,0,102.422,102.422,0,0,1,36.83,15.5,103.306,103.306,0,0,1,37.318,45.317,102.462,102.462,0,0,1,6,19.334,103.994,103.994,0,0,1,0,41.516,102.415,102.415,0,0,1-15.5,36.83,103.3,103.3,0,0,1-45.317,37.318,102.494,102.494,0,0,1-19.334,6A103.774,103.774,0,0,1,103,206Zm.395-181.532a78.927,78.927,0,1,0,78.927,78.927A79.016,79.016,0,0,0,103.395,24.468Z" transform="translate(396 8131)" fill="#eee"/>
    <path id="Subtraction_27" data-name="Subtraction 27" d="M3885,3427.5a103.818,103.818,0,0,1-20.759-2.092,102.463,102.463,0,0,1-36.83-15.5c-2.8-1.892-5.545-3.951-8.157-6.119l16.333-17.711a78.914,78.914,0,1,0,49.806-140.112H3885V3221.5a103.727,103.727,0,0,1,20.759,2.093,102.414,102.414,0,0,1,36.829,15.5,103.313,103.313,0,0,1,37.318,45.317,102.474,102.474,0,0,1,6,19.333,104,104,0,0,1,0,41.516,102.4,102.4,0,0,1-15.5,36.83,103.289,103.289,0,0,1-45.317,37.318,102.456,102.456,0,0,1-19.333,6A103.818,103.818,0,0,1,3885,3427.5Z" transform="translate(-3386 4909.5)" fill="#00ccb1"/>
    <path id="Subtraction_153" data-name="Subtraction 153" d="M3970.171,3297.019a79.321,79.321,0,0,0-78.11-67.551h-.394V3205a103.751,103.751,0,0,1,20.758,2.093,102.452,102.452,0,0,1,36.831,15.5,103.319,103.319,0,0,1,37.317,45.316,102.568,102.568,0,0,1,6,19.334c.371,1.816.7,3.672.971,5.516l-23.374,4.262Z" transform="translate(-3126.667 4926)" fill="#00ccb1"/>
  </g>
</svg>
