<svg xmlns="http://www.w3.org/2000/svg" width="850" height="802" viewBox="0 0 850 802">
  <g id="poll_chart17_web" transform="translate(-215 -13931)">
    <rect id="Rectangle_3078" data-name="Rectangle 3078" width="850" height="802" rx="5" transform="translate(215 13931)" fill="#fff"/>
    <rect id="Rectangle_3081" data-name="Rectangle 3081" width="513" height="25" transform="translate(487.5 14470)" fill="#f6f6f6"/>
    <rect id="Rectangle_3083" data-name="Rectangle 3083" width="513" height="25" transform="translate(487.5 14506)" fill="#f6f6f6"/>
    <rect id="Rectangle_3087" data-name="Rectangle 3087" width="513" height="25" transform="translate(487.5 14582)" fill="#f6f6f6"/>
    <rect id="Rectangle_3085" data-name="Rectangle 3085" width="513" height="25" transform="translate(487.5 14542)" fill="#f6f6f6"/>
    <rect id="Rectangle_3091" data-name="Rectangle 3091" width="513" height="25" transform="translate(487.5 14658)" fill="#f6f6f6"/>
    <rect id="Rectangle_3089" data-name="Rectangle 3089" width="513" height="25" transform="translate(487.5 14618)" fill="#f6f6f6"/>
    <rect id="Rectangle_3079" data-name="Rectangle 3079" width="513" height="25" transform="translate(487.5 14432)" fill="#f6f6f6"/>
    <rect id="Rectangle_3082" data-name="Rectangle 3082" width="237" height="25" transform="translate(487.5 14470)" fill="#00ccb1"/>
    <rect id="Rectangle_3084" data-name="Rectangle 3084" width="198" height="25" transform="translate(487.5 14506)" fill="#00ccb1"/>
    <rect id="Rectangle_3088" data-name="Rectangle 3088" width="140" height="25" transform="translate(487.5 14582)" fill="#00ccb1"/>
    <rect id="Rectangle_3086" data-name="Rectangle 3086" width="184" height="25" transform="translate(487.5 14542)" fill="#00ccb1"/>
    <rect id="Rectangle_3092" data-name="Rectangle 3092" width="49" height="25" transform="translate(487.5 14658)" fill="#00ccb1"/>
    <rect id="Rectangle_3090" data-name="Rectangle 3090" width="108" height="25" transform="translate(487.5 14618)" fill="#00ccb1"/>
    <rect id="Rectangle_3080" data-name="Rectangle 3080" width="386" height="25" transform="translate(487.5 14432)" fill="#00ccb1"/>
    <text id="內文p" transform="translate(882.5 14451)" fill="#8e8e8e" font-size="20" font-family="Arial-BoldMT, Arial" font-weight="700"><tspan x="0" y="0">74.7</tspan><tspan y="0" font-size="15">%</tspan></text>
    <text id="內文p-2" data-name="內文p" transform="translate(727.5 14489)" fill="#8e8e8e" font-size="20" font-family="Arial-BoldMT, Arial" font-weight="700"><tspan x="0" y="0">46.9</tspan><tspan y="0" font-size="15">%</tspan></text>
    <text id="內文p-3" data-name="內文p" transform="translate(689.5 14525)" fill="#8e8e8e" font-size="20" font-family="Arial-BoldMT, Arial" font-weight="700"><tspan x="0" y="0">39.6</tspan><tspan y="0" font-size="15">%</tspan></text>
    <text id="內文p-4" data-name="內文p" transform="translate(633.5 14601)" fill="#8e8e8e" font-size="20" font-family="Arial-BoldMT, Arial" font-weight="700"><tspan x="0" y="0">28.3</tspan><tspan y="0" font-size="15">%</tspan></text>
    <text id="內文p-5" data-name="內文p" transform="translate(675.5 14561)" fill="#8e8e8e" font-size="20" font-family="Arial-BoldMT, Arial" font-weight="700"><tspan x="0" y="0">35.3</tspan><tspan y="0" font-size="15">%</tspan></text>
    <text id="內文p-6" data-name="內文p" transform="translate(541.5 14678)" fill="#8e8e8e" font-size="20" font-family="Arial-BoldMT, Arial" font-weight="700"><tspan x="0" y="0">9.6</tspan><tspan y="0" font-size="15">%</tspan></text>
    <text id="內文p-7" data-name="內文p" transform="translate(601.5 14637)" fill="#8e8e8e" font-size="20" font-family="Arial-BoldMT, Arial" font-weight="700"><tspan x="0" y="0">20.2</tspan><tspan y="0" font-size="15">%</tspan></text>
    <text id="內文p-8" data-name="內文p" transform="translate(280.5 14383)" font-size="20" font-family="SourceHanSansTW-Bold, Source Han Sans TW" font-weight="700"><tspan x="0" y="23">遇到的困難為：（可複選）</tspan></text>
    <text id="內文p-9" data-name="內文p" transform="translate(400.5 14451)" font-size="20" font-family="SourceHanSansTW-Regular, Source Han Sans TW"><tspan x="-120" y="0">教師負擔過重</tspan></text>
    <text id="內文p-10" data-name="內文p" transform="translate(440.5 14489)" font-size="20" font-family="SourceHanSansTW-Regular, Source Han Sans TW"><tspan x="-160" y="0">開課量或類型不足</tspan></text>
    <text id="內文p-11" data-name="內文p" transform="translate(280.5 14528)" font-size="20" font-family="SourceHanSansTW-Regular, Source Han Sans TW"><tspan x="0" y="0">設備、教室不足</tspan></text>
    <text id="內文p-12" data-name="內文p" transform="translate(280.5 14604)" font-size="20" font-family="SourceHanSansTW-Regular, Source Han Sans TW"><tspan x="0" y="0">課程規畫困難</tspan></text>
    <text id="內文p-13" data-name="內文p" transform="translate(280.5 14564)" font-size="20" font-family="SourceHanSansTW-Regular, Source Han Sans TW"><tspan x="0" y="0">外部資源難尋</tspan></text>
    <text id="內文p-14" data-name="內文p" transform="translate(280.5 14680)" font-size="20" font-family="SourceHanSansTW-Regular, Source Han Sans TW"><tspan x="0" y="0">其他</tspan></text>
    <text id="內文p-15" data-name="內文p" transform="translate(280.5 14640)" font-size="20" font-family="SourceHanSansTW-Regular, Source Han Sans TW"><tspan x="0" y="0">教學資源不足</tspan></text>
    <text id="內文p-16" data-name="內文p" transform="translate(280.5 14016)" font-size="25" font-family="SourceHanSansTW-Bold, Source Han Sans TW" font-weight="700"><tspan x="0" y="0">偏遠地區高中實施多元選修課程更困難</tspan></text>
    <text id="內文p-17" data-name="內文p" transform="translate(386.5 14299)" font-size="20" font-family="SourceHanSansTW-Regular, Source Han Sans TW"><tspan x="0" y="0">高中多元選修課遇到困難</tspan></text>
    <text id="_43.4_" data-name="43.4%" transform="translate(443.5 14179)" fill="#8e8e8e" font-size="40" font-family="Arial-Black, Arial" font-weight="800"><tspan x="0" y="0">43.4</tspan><tspan y="0" font-size="25">%</tspan></text>
    <path id="Subtraction_88" data-name="Subtraction 88" d="M103,206a103.772,103.772,0,0,1-20.758-2.093,102.437,102.437,0,0,1-36.83-15.5A103.311,103.311,0,0,1,8.094,143.092a102.516,102.516,0,0,1-6-19.334,104.006,104.006,0,0,1,0-41.516,102.422,102.422,0,0,1,15.5-36.83A103.3,103.3,0,0,1,62.907,8.094a102.494,102.494,0,0,1,19.334-6,104,104,0,0,1,41.517,0,102.422,102.422,0,0,1,36.83,15.5,103.306,103.306,0,0,1,37.318,45.317,102.462,102.462,0,0,1,6,19.334,103.994,103.994,0,0,1,0,41.516,102.415,102.415,0,0,1-15.5,36.83,103.3,103.3,0,0,1-45.317,37.318,102.494,102.494,0,0,1-19.334,6A103.774,103.774,0,0,1,103,206Zm.395-181.532a78.927,78.927,0,1,0,78.927,78.927A79.016,79.016,0,0,0,103.395,24.468Z" transform="translate(396.5 14063)" fill="#eee"/>
    <path id="Subtraction_97" data-name="Subtraction 97" d="M-1218.976,214.824h0l-14.46-19.174a79.173,79.173,0,0,0,46.425-71.922A79.016,79.016,0,0,0-1265.938,44.8c-.461,0-.932,0-1.4.012l-1.088-24.459c.715-.014,1.42-.021,2.095-.021a103.758,103.758,0,0,1,20.759,2.093,102.506,102.506,0,0,1,19.334,6,103.054,103.054,0,0,1,17.5,9.5A103.814,103.814,0,0,1-1193.5,50.5a103.739,103.739,0,0,1,12.577,15.243,103.089,103.089,0,0,1,9.5,17.5,102.4,102.4,0,0,1,6,19.335,103.738,103.738,0,0,1,2.093,20.758,103.738,103.738,0,0,1-2.093,20.758,102.468,102.468,0,0,1-6,19.335,102.986,102.986,0,0,1-9.5,17.5,103.8,103.8,0,0,1-12.577,15.244,103.751,103.751,0,0,1-15.244,12.577,103.358,103.358,0,0,1-10.23,6.081Z" transform="translate(1765.833 14042.668)" fill="#00ccb1"/>
    <text id="內文p-18" data-name="內文p" transform="translate(765.5 14299)" font-size="20" font-family="SourceHanSansTW-Regular, Source Han Sans TW"><tspan x="-110" y="0">偏遠地區高中多元選修課</tspan><tspan x="-40" y="28">遇到困難</tspan></text>
    <text id="_55.5_" data-name="55.5%" transform="translate(709.5 14179)" fill="#8e8e8e" font-size="40" font-family="Arial-Black, Arial" font-weight="800"><tspan x="0" y="0">55.5</tspan><tspan y="0" font-size="25">%</tspan></text>
    <path id="Subtraction_92" data-name="Subtraction 92" d="M103,206a103.772,103.772,0,0,1-20.758-2.093,102.437,102.437,0,0,1-36.83-15.5A103.311,103.311,0,0,1,8.094,143.092a102.516,102.516,0,0,1-6-19.334,104.006,104.006,0,0,1,0-41.516,102.422,102.422,0,0,1,15.5-36.83A103.3,103.3,0,0,1,62.907,8.094a102.494,102.494,0,0,1,19.334-6,104,104,0,0,1,41.517,0,102.422,102.422,0,0,1,36.83,15.5,103.306,103.306,0,0,1,37.318,45.317,102.462,102.462,0,0,1,6,19.334,103.994,103.994,0,0,1,0,41.516,102.415,102.415,0,0,1-15.5,36.83,103.3,103.3,0,0,1-45.317,37.318,102.494,102.494,0,0,1-19.334,6A103.774,103.774,0,0,1,103,206Zm.395-181.532a78.927,78.927,0,1,0,78.927,78.927A79.016,79.016,0,0,0,103.395,24.468Z" transform="translate(662.5 14063)" fill="#eee"/>
    <path id="Subtraction_96" data-name="Subtraction 96" d="M-1280.333,226.334c-1.318,0-2.655-.026-3.975-.076l1.478-23.654c.952.034,1.925.052,2.891.052a79.017,79.017,0,0,0,78.927-78.928c0-42.563-34.609-77.96-77.149-78.907l.451-24.454a103.718,103.718,0,0,1,18.134,2.059,102.536,102.536,0,0,1,19.335,6,103.129,103.129,0,0,1,17.5,9.5A103.8,103.8,0,0,1-1207.5,50.5a103.731,103.731,0,0,1,12.578,15.243,103.077,103.077,0,0,1,9.5,17.5,102.445,102.445,0,0,1,6,19.335,103.733,103.733,0,0,1,2.093,20.758,103.732,103.732,0,0,1-2.093,20.758,102.514,102.514,0,0,1-6,19.335,103.046,103.046,0,0,1-9.5,17.5,103.8,103.8,0,0,1-12.578,15.244,103.736,103.736,0,0,1-15.243,12.577,103.006,103.006,0,0,1-17.5,9.5,102.534,102.534,0,0,1-19.335,6A103.816,103.816,0,0,1-1280.333,226.334Z" transform="translate(2045.833 14042.668)" fill="#eb0f43"/>
  </g>
</svg>
