<svg xmlns="http://www.w3.org/2000/svg" width="850" height="426" viewBox="0 0 850 426">
  <g id="poll_chart__web" data-name="poll_chart５_web" transform="translate(-215 -4835)">
    <rect id="Rectangle_2604" data-name="Rectangle 2604" width="850" height="426" rx="5" transform="translate(215 4835)" fill="#fff"/>
    <text id="內文p" transform="translate(280 4891)" font-size="25" font-family="SourceHanSansTW-Bold, Source Han Sans TW" font-weight="700"><tspan x="0" y="29">最擔心的變革是？（可複選）</tspan></text>
    <text id="內文p-2" data-name="內文p" transform="translate(360 4973)" font-size="20" font-family="SourceHanSansTW-Regular, Source Han Sans TW"><tspan x="-80" y="0">升學制度</tspan></text>
    <text id="內文p-3" data-name="內文p" transform="translate(280 5011)" font-size="20" font-family="SourceHanSansTW-Regular, Source Han Sans TW"><tspan x="0" y="0">素養學習</tspan></text>
    <text id="內文p-4" data-name="內文p" transform="translate(400 5049)" font-size="20" font-family="SourceHanSansTW-Regular, Source Han Sans TW"><tspan x="-120" y="0">必修時數減少</tspan></text>
    <rect id="Rectangle_2638" data-name="Rectangle 2638" width="513" height="25" transform="translate(487 4951)" fill="#f6f6f6"/>
    <rect id="Rectangle_2636" data-name="Rectangle 2636" width="513" height="25" transform="translate(487 4989)" fill="#f6f6f6"/>
    <rect id="Rectangle_2634" data-name="Rectangle 2634" width="513" height="25" transform="translate(487 5028)" fill="#f6f6f6"/>
    <rect id="Rectangle_2639" data-name="Rectangle 2639" width="191" height="25" transform="translate(487 4951)" fill="#00ccb1"/>
    <rect id="Rectangle_2637" data-name="Rectangle 2637" width="120" height="25" transform="translate(487 4989)" fill="#00ccb1"/>
    <rect id="Rectangle_2635" data-name="Rectangle 2635" width="115" height="25" transform="translate(487 5028)" fill="#00ccb1"/>
    <text id="內文p-5" data-name="內文p" transform="translate(609 5047)" fill="#8e8e8e" font-size="20" font-family="Arial-BoldMT, Arial" font-weight="700"><tspan x="0" y="0">21.7</tspan><tspan y="0" font-size="15">%</tspan></text>
    <text id="內文p-6" data-name="內文p" transform="translate(686 4970)" fill="#8e8e8e" font-size="20" font-family="Arial-BoldMT, Arial" font-weight="700"><tspan x="0" y="0">37.2</tspan><tspan y="0" font-size="15">%</tspan></text>
    <text id="內文p-7" data-name="內文p" transform="translate(615 5009)" fill="#8e8e8e" font-size="20" font-family="Arial-BoldMT, Arial" font-weight="700"><tspan x="0" y="0">22.9</tspan><tspan y="0" font-size="15">%</tspan></text>
    <text id="內文p-8" data-name="內文p" transform="translate(360 5205)" font-size="20" font-family="SourceHanSansTW-Regular, Source Han Sans TW"><tspan x="-80" y="0">彈性課程</tspan></text>
    <text id="內文p-9" data-name="內文p" transform="translate(360 5088)" font-size="20" font-family="SourceHanSansTW-Regular, Source Han Sans TW"><tspan x="-80" y="0">生涯引導</tspan></text>
    <text id="內文p-10" data-name="內文p" transform="translate(420 5127)" font-size="20" font-family="SourceHanSansTW-Regular, Source Han Sans TW"><tspan x="-140" y="0">多元選修課增加</tspan></text>
    <text id="內文p-11" data-name="內文p" transform="translate(400 5166)" font-size="20" font-family="SourceHanSansTW-Regular, Source Han Sans TW"><tspan x="-120" y="0">學習歷程檔案</tspan></text>
    <rect id="Rectangle_3180" data-name="Rectangle 3180" width="513" height="25" transform="translate(487 5186)" fill="#f6f6f6"/>
    <rect id="Rectangle_3186" data-name="Rectangle 3186" width="513" height="25" transform="translate(487 5069)" fill="#f6f6f6"/>
    <rect id="Rectangle_3182" data-name="Rectangle 3182" width="513" height="25" transform="translate(487 5108)" fill="#f6f6f6"/>
    <rect id="Rectangle_3181" data-name="Rectangle 3181" width="513" height="25" transform="translate(487 5147)" fill="#f6f6f6"/>
    <rect id="Rectangle_3184" data-name="Rectangle 3184" width="56" height="25" transform="translate(487 5186)" fill="#00ccb1"/>
    <rect id="Rectangle_3187" data-name="Rectangle 3187" width="106" height="25" transform="translate(487 5069)" fill="#00ccb1"/>
    <rect id="Rectangle_3183" data-name="Rectangle 3183" width="97" height="25" transform="translate(487 5108)" fill="#00ccb1"/>
    <rect id="Rectangle_3185" data-name="Rectangle 3185" width="92" height="25" transform="translate(487 5147)" fill="#00ccb1"/>
    <text id="內文p-12" data-name="內文p" transform="translate(547 5205)" fill="#8e8e8e" font-size="20" font-family="Arial-BoldMT, Arial" font-weight="700"><tspan x="0" y="0">10.9</tspan><tspan y="0" font-size="15">%</tspan></text>
    <text id="內文p-13" data-name="內文p" transform="translate(599 5089)" fill="#8e8e8e" font-size="20" font-family="Arial-BoldMT, Arial" font-weight="700"><tspan x="0" y="0">20.1</tspan><tspan y="0" font-size="15">%</tspan></text>
    <text id="內文p-14" data-name="內文p" transform="translate(588 5127)" fill="#8e8e8e" font-size="20" font-family="Arial-BoldMT, Arial" font-weight="700"><tspan x="0" y="0">18.7</tspan><tspan y="0" font-size="15">%</tspan></text>
    <text id="內文p-15" data-name="內文p" transform="translate(582 5166)" fill="#8e8e8e" font-size="20" font-family="Arial-BoldMT, Arial" font-weight="700"><tspan x="0" y="0">17.4</tspan><tspan y="0" font-size="15">%</tspan></text>
  </g>
</svg>
