<svg xmlns="http://www.w3.org/2000/svg" width="850" height="809" viewBox="0 0 850 809">
  <g id="poll_chart__web" data-name="poll_chart３_web" transform="translate(-215 -3506)">
    <rect id="Rectangle_2603" data-name="Rectangle 2603" width="850" height="809" rx="5" transform="translate(215 3506)" fill="#fff"/>
    <text id="內文p" transform="translate(280 3618)" font-size="20" font-family="SourceHanSansTW-Regular, Source Han Sans TW"><tspan x="0" y="23">擔憂與焦慮的原因：</tspan></text>
    <text id="內文p-2" data-name="內文p" transform="translate(280 3591)" font-size="25" font-family="SourceHanSansTW-Bold, Source Han Sans TW" font-weight="700"><tspan x="0" y="0">38.8%感到擔憂、焦慮</tspan></text>
    <text id="內文p-3" data-name="內文p" transform="translate(420 3686)" font-size="20" font-family="SourceHanSansTW-Regular, Source Han Sans TW"><tspan x="-140" y="0">升學制度更複雜</tspan></text>
    <text id="內文p-4" data-name="內文p" transform="translate(280 3724)" font-size="20" font-family="SourceHanSansTW-Regular, Source Han Sans TW"><tspan x="0" y="0">對台灣過去教改經驗</tspan><tspan x="0" y="28">沒信心</tspan></text>
    <text id="內文p-5" data-name="內文p" transform="translate(420 3791)" font-size="20" font-family="SourceHanSansTW-Regular, Source Han Sans TW"><tspan x="-140" y="0">新舊課綱難銜接</tspan></text>
    <text id="內文p-6" data-name="內文p" transform="translate(380 4025)" font-size="20" font-family="SourceHanSansTW-Regular, Source Han Sans TW"><tspan x="-100" y="0">學校難落實</tspan></text>
    <text id="內文p-7" data-name="內文p" transform="translate(440 3908)" font-size="20" font-family="SourceHanSansTW-Regular, Source Han Sans TW"><tspan x="-160" y="0">教師授課方式老舊</tspan></text>
    <text id="內文p-8" data-name="內文p" transform="translate(380 4142)" font-size="20" font-family="SourceHanSansTW-Regular, Source Han Sans TW"><tspan x="-100" y="0">缺乏國際觀</tspan></text>
    <text id="內文p-9" data-name="內文p" transform="translate(400 3830)" font-size="20" font-family="SourceHanSansTW-Regular, Source Han Sans TW"><tspan x="-120" y="0">學生負擔加重</tspan></text>
    <text id="內文p-10" data-name="內文p" transform="translate(380 4064)" font-size="20" font-family="SourceHanSansTW-Regular, Source Han Sans TW"><tspan x="-100" y="0">實施太倉促</tspan></text>
    <text id="內文p-11" data-name="內文p" transform="translate(400 3947)" font-size="20" font-family="SourceHanSansTW-Regular, Source Han Sans TW"><tspan x="-120" y="0">城鄉差距拉大</tspan></text>
    <text id="內文p-12" data-name="內文p" transform="translate(460 4181)" font-size="20" font-family="SourceHanSansTW-Regular, Source Han Sans TW"><tspan x="-180" y="0">新課綱變動幅度太大</tspan></text>
    <text id="內文p-13" data-name="內文p" transform="translate(480 3869)" font-size="20" font-family="SourceHanSansTW-Regular, Source Han Sans TW"><tspan x="-200" y="0">課綱與教學現場落差大</tspan></text>
    <text id="內文p-14" data-name="內文p" transform="translate(400 4103)" font-size="20" font-family="SourceHanSansTW-Regular, Source Han Sans TW"><tspan x="-120" y="0">太重意識形態</tspan></text>
    <text id="內文p-15" data-name="內文p" transform="translate(460 3986)" font-size="20" font-family="SourceHanSansTW-Regular, Source Han Sans TW"><tspan x="-180" y="0">新課綱內容難以理解</tspan></text>
    <text id="內文p-16" data-name="內文p" transform="translate(380 4220)" font-size="20" font-family="SourceHanSansTW-Regular, Source Han Sans TW"><tspan x="-100" y="0">學用難銜接</tspan></text>
    <text id="內文p-17" data-name="內文p" transform="translate(408 4259)" font-size="20" font-family="SourceHanSansTW-Regular, Source Han Sans TW"><tspan x="-127.84" y="0">無意見/未回答</tspan></text>
    <rect id="Rectangle_2644" data-name="Rectangle 2644" width="513" height="25" transform="translate(487 3668)" fill="#f6f6f6"/>
    <rect id="Rectangle_2641" data-name="Rectangle 2641" width="513" height="25" transform="translate(487 3706)" fill="#f6f6f6"/>
    <rect id="Rectangle_2640" data-name="Rectangle 2640" width="513" height="25" transform="translate(487 3772)" fill="#f6f6f6"/>
    <rect id="Rectangle_3161" data-name="Rectangle 3161" width="513" height="25" transform="translate(487 4006)" fill="#f6f6f6"/>
    <rect id="Rectangle_3145" data-name="Rectangle 3145" width="513" height="25" transform="translate(487 3889)" fill="#f6f6f6"/>
    <rect id="Rectangle_3155" data-name="Rectangle 3155" width="513" height="25" transform="translate(487 4123)" fill="#f6f6f6"/>
    <rect id="Rectangle_3141" data-name="Rectangle 3141" width="513" height="25" transform="translate(487 3811)" fill="#f6f6f6"/>
    <rect id="Rectangle_3159" data-name="Rectangle 3159" width="513" height="25" transform="translate(487 4045)" fill="#f6f6f6"/>
    <rect id="Rectangle_3146" data-name="Rectangle 3146" width="513" height="25" transform="translate(487 3928)" fill="#f6f6f6"/>
    <rect id="Rectangle_3153" data-name="Rectangle 3153" width="513" height="25" transform="translate(487 4162)" fill="#f6f6f6"/>
    <rect id="Rectangle_3143" data-name="Rectangle 3143" width="513" height="25" transform="translate(487 3850)" fill="#f6f6f6"/>
    <rect id="Rectangle_3157" data-name="Rectangle 3157" width="513" height="25" transform="translate(487 4084)" fill="#f6f6f6"/>
    <rect id="Rectangle_3147" data-name="Rectangle 3147" width="513" height="25" transform="translate(487 3967)" fill="#f6f6f6"/>
    <rect id="Rectangle_3151" data-name="Rectangle 3151" width="513" height="25" transform="translate(487 4201)" fill="#f6f6f6"/>
    <rect id="Rectangle_3163" data-name="Rectangle 3163" width="513" height="25" transform="translate(487 4240)" fill="#f6f6f6"/>
    <rect id="Rectangle_2645" data-name="Rectangle 2645" width="122" height="25" transform="translate(487 3668)" fill="#00ccb1"/>
    <rect id="Rectangle_2642" data-name="Rectangle 2642" width="110" height="25" transform="translate(487 3706)" fill="#00ccb1"/>
    <rect id="Rectangle_2643" data-name="Rectangle 2643" width="96" height="25" transform="translate(487 3772)" fill="#00ccb1"/>
    <rect id="Rectangle_3162" data-name="Rectangle 3162" width="26" height="25" transform="translate(487 4006)" fill="#00ccb1"/>
    <rect id="Rectangle_3148" data-name="Rectangle 3148" width="42" height="25" transform="translate(487 3889)" fill="#00ccb1"/>
    <rect id="Rectangle_3156" data-name="Rectangle 3156" width="18" height="25" transform="translate(487 4123)" fill="#00ccb1"/>
    <rect id="Rectangle_3142" data-name="Rectangle 3142" width="92" height="25" transform="translate(487 3811)" fill="#00ccb1"/>
    <rect id="Rectangle_3160" data-name="Rectangle 3160" width="24" height="25" transform="translate(487 4045)" fill="#00ccb1"/>
    <rect id="Rectangle_3149" data-name="Rectangle 3149" width="38" height="25" transform="translate(487 3928)" fill="#00ccb1"/>
    <rect id="Rectangle_3154" data-name="Rectangle 3154" width="16" height="25" transform="translate(487 4162)" fill="#00ccb1"/>
    <rect id="Rectangle_3144" data-name="Rectangle 3144" width="59" height="25" transform="translate(487 3850)" fill="#00ccb1"/>
    <rect id="Rectangle_3158" data-name="Rectangle 3158" width="21" height="25" transform="translate(487 4084)" fill="#00ccb1"/>
    <rect id="Rectangle_3150" data-name="Rectangle 3150" width="36" height="25" transform="translate(487 3967)" fill="#00ccb1"/>
    <rect id="Rectangle_3152" data-name="Rectangle 3152" width="16" height="25" transform="translate(487 4201)" fill="#00ccb1"/>
    <rect id="Rectangle_3164" data-name="Rectangle 3164" width="58" height="25" transform="translate(487 4240)" fill="#00ccb1"/>
    <text id="內文p-18" data-name="內文p" transform="translate(590 3792)" fill="#8e8e8e" font-size="20" font-family="Arial-BoldMT, Arial" font-weight="700"><tspan x="0" y="0">19.5</tspan><tspan y="0" font-size="15">%</tspan></text>
    <text id="內文p-19" data-name="內文p" transform="translate(517 4026)" fill="#8e8e8e" font-size="20" font-family="Arial-BoldMT, Arial" font-weight="700"><tspan x="0" y="0">3.8</tspan><tspan y="0" font-size="15">%</tspan></text>
    <text id="內文p-20" data-name="內文p" transform="translate(534 3909)" fill="#8e8e8e" font-size="20" font-family="Arial-BoldMT, Arial" font-weight="700"><tspan x="0" y="0">7.2</tspan><tspan y="0" font-size="15">%</tspan></text>
    <text id="內文p-21" data-name="內文p" transform="translate(511 4142)" fill="#8e8e8e" font-size="20" font-family="Arial-BoldMT, Arial" font-weight="700"><tspan x="0" y="0">2.6</tspan><tspan y="0" font-size="15">%</tspan></text>
    <text id="內文p-22" data-name="內文p" transform="translate(583 3831)" fill="#8e8e8e" font-size="20" font-family="Arial-BoldMT, Arial" font-weight="700"><tspan x="0" y="0">18.9</tspan><tspan y="0" font-size="15">%</tspan></text>
    <text id="內文p-23" data-name="內文p" transform="translate(516 4064)" fill="#8e8e8e" font-size="20" font-family="Arial-BoldMT, Arial" font-weight="700"><tspan x="0" y="0">3.5</tspan><tspan y="0" font-size="15">%</tspan></text>
    <text id="內文p-24" data-name="內文p" transform="translate(529 3948)" fill="#8e8e8e" font-size="20" font-family="Arial-BoldMT, Arial" font-weight="700"><tspan x="0" y="0">6.7</tspan><tspan y="0" font-size="15">%</tspan></text>
    <text id="內文p-25" data-name="內文p" transform="translate(509 4181)" fill="#8e8e8e" font-size="20" font-family="Arial-BoldMT, Arial" font-weight="700"><tspan x="0" y="0">2.2</tspan><tspan y="0" font-size="15">%</tspan></text>
    <text id="內文p-26" data-name="內文p" transform="translate(550 3870)" fill="#8e8e8e" font-size="20" font-family="Arial-BoldMT, Arial" font-weight="700"><tspan x="0" y="0">11.8</tspan><tspan y="0" font-size="15">%</tspan></text>
    <text id="內文p-27" data-name="內文p" transform="translate(512 4103)" fill="#8e8e8e" font-size="20" font-family="Arial-BoldMT, Arial" font-weight="700"><tspan x="0" y="0">3.0</tspan><tspan y="0" font-size="15">%</tspan></text>
    <text id="內文p-28" data-name="內文p" transform="translate(526 3987)" fill="#8e8e8e" font-size="20" font-family="Arial-BoldMT, Arial" font-weight="700"><tspan x="0" y="0">6.4</tspan><tspan y="0" font-size="15">%</tspan></text>
    <text id="內文p-29" data-name="內文p" transform="translate(508 4221)" fill="#8e8e8e" font-size="20" font-family="Arial-BoldMT, Arial" font-weight="700"><tspan x="0" y="0">2.2</tspan><tspan y="0" font-size="15">%</tspan></text>
    <text id="內文p-30" data-name="內文p" transform="translate(549 4260)" fill="#8e8e8e" font-size="20" font-family="Arial-BoldMT, Arial" font-weight="700"><tspan x="0" y="0">11.3</tspan><tspan y="0" font-size="15">%</tspan></text>
    <text id="內文p-31" data-name="內文p" transform="translate(618 3689)" fill="#8e8e8e" font-size="20" font-family="Arial-BoldMT, Arial" font-weight="700"><tspan x="0" y="0">23.3</tspan><tspan y="0" font-size="15">%</tspan></text>
    <text id="內文p-32" data-name="內文p" transform="translate(604 3727)" fill="#8e8e8e" font-size="20" font-family="Arial-BoldMT, Arial" font-weight="700"><tspan x="0" y="0">20.9</tspan><tspan y="0" font-size="15">%</tspan></text>
  </g>
</svg>
