<svg xmlns="http://www.w3.org/2000/svg" width="850" height="928" viewBox="0 0 850 928">
  <g id="poll_chart__web" data-name="poll_chart７_web" transform="translate(-215 -5727)">
    <rect id="Rectangle_3188" data-name="Rectangle 3188" width="850" height="928" rx="5" transform="translate(215 5727)" fill="#fff"/>
    <text id="內文p" transform="translate(280 5812)" font-size="25" font-family="SourceHanSansTW-Bold, Source Han Sans TW" font-weight="700"><tspan x="0" y="0">新課綱對城鄉差距的影響？</tspan></text>
    <text id="內文p-2" data-name="內文p" transform="translate(314 6087)" font-size="20" font-family="SourceHanSansTW-Regular, Source Han Sans TW"><tspan x="0" y="0">拉大城鄉差距</tspan></text>
    <text id="內文p-3" data-name="內文p" transform="translate(640 6087)" font-size="20" font-family="SourceHanSansTW-Regular, Source Han Sans TW"><tspan x="-40" y="0">沒有影響</tspan></text>
    <text id="內文p-4" data-name="內文p" transform="translate(906 6087)" font-size="20" font-family="SourceHanSansTW-Regular, Source Han Sans TW"><tspan x="-60" y="0">縮減城鄉差距</tspan></text>
    <text id="_40.3_" data-name="40.3%" transform="translate(318 5967)" fill="#8e8e8e" font-size="40" font-family="Arial-Black, Arial" font-weight="800"><tspan x="0" y="0">40.3</tspan><tspan y="0" font-size="25">%</tspan></text>
    <path id="Subtraction_102" data-name="Subtraction 102" d="M103,206a103.772,103.772,0,0,1-20.758-2.093,102.437,102.437,0,0,1-36.83-15.5A103.311,103.311,0,0,1,8.094,143.092a102.516,102.516,0,0,1-6-19.334,104.006,104.006,0,0,1,0-41.516,102.422,102.422,0,0,1,15.5-36.83A103.3,103.3,0,0,1,62.907,8.094a102.494,102.494,0,0,1,19.334-6,104,104,0,0,1,41.517,0,102.422,102.422,0,0,1,36.83,15.5,103.306,103.306,0,0,1,37.318,45.317,102.462,102.462,0,0,1,6,19.334,103.994,103.994,0,0,1,0,41.516,102.415,102.415,0,0,1-15.5,36.83,103.3,103.3,0,0,1-45.317,37.318,102.494,102.494,0,0,1-19.334,6A103.774,103.774,0,0,1,103,206Zm.395-181.532a78.927,78.927,0,1,0,78.927,78.927A79.016,79.016,0,0,0,103.395,24.468Z" transform="translate(271 5851)" fill="#eee"/>
    <text id="_29.9_" data-name="29.9%" transform="translate(584 5967)" fill="#8e8e8e" font-size="40" font-family="Arial-Black, Arial" font-weight="800"><tspan x="0" y="0">29.9</tspan><tspan y="0" font-size="25">%</tspan></text>
    <text id="_15.0_" data-name="15.0%" transform="translate(848 5967)" fill="#8e8e8e" font-size="40" font-family="Arial-Black, Arial" font-weight="800"><tspan x="0" y="0">15.0</tspan><tspan y="0" font-size="25">%</tspan></text>
    <path id="Subtraction_105" data-name="Subtraction 105" d="M103,206a103.772,103.772,0,0,1-20.758-2.093,102.437,102.437,0,0,1-36.83-15.5A103.311,103.311,0,0,1,8.094,143.092a102.516,102.516,0,0,1-6-19.334,104.006,104.006,0,0,1,0-41.516,102.422,102.422,0,0,1,15.5-36.83A103.3,103.3,0,0,1,62.907,8.094a102.494,102.494,0,0,1,19.334-6,104,104,0,0,1,41.517,0,102.422,102.422,0,0,1,36.83,15.5,103.306,103.306,0,0,1,37.318,45.317,102.462,102.462,0,0,1,6,19.334,103.994,103.994,0,0,1,0,41.516,102.415,102.415,0,0,1-15.5,36.83,103.3,103.3,0,0,1-45.317,37.318,102.494,102.494,0,0,1-19.334,6A103.774,103.774,0,0,1,103,206Zm.395-181.532a78.927,78.927,0,1,0,78.927,78.927A79.016,79.016,0,0,0,103.395,24.468Z" transform="translate(537 5851)" fill="#eee"/>
    <path id="Subtraction_109" data-name="Subtraction 109" d="M103,206a103.772,103.772,0,0,1-20.758-2.093,102.437,102.437,0,0,1-36.83-15.5A103.311,103.311,0,0,1,8.094,143.092a102.516,102.516,0,0,1-6-19.334,104.006,104.006,0,0,1,0-41.516,102.422,102.422,0,0,1,15.5-36.83A103.3,103.3,0,0,1,62.907,8.094a102.494,102.494,0,0,1,19.334-6,104,104,0,0,1,41.517,0,102.422,102.422,0,0,1,36.83,15.5,103.306,103.306,0,0,1,37.318,45.317,102.462,102.462,0,0,1,6,19.334,103.994,103.994,0,0,1,0,41.516,102.415,102.415,0,0,1-15.5,36.83,103.3,103.3,0,0,1-45.317,37.318,102.494,102.494,0,0,1-19.334,6A103.774,103.774,0,0,1,103,206Zm.395-181.532a78.927,78.927,0,1,0,78.927,78.927A79.016,79.016,0,0,0,103.395,24.468Z" transform="translate(803 5851)" fill="#eee"/>
    <path id="Subtraction_108" data-name="Subtraction 108" d="M3986.294,3348.746h0l-22.3-7.873a78.134,78.134,0,0,0,6.994-32.477,79.016,79.016,0,0,0-78.927-78.928l-.394,0V3205a103.731,103.731,0,0,1,20.757,2.094,102.4,102.4,0,0,1,36.83,15.5,103.348,103.348,0,0,1,37.319,45.317,102.545,102.545,0,0,1,6,19.335,103.933,103.933,0,0,1,0,41.516,102.482,102.482,0,0,1-6,19.332c-.092.219-.186.438-.28.654Z" transform="translate(-3251.667 2646)" fill="#00ccb1"/>
    <path id="Subtraction_114" data-name="Subtraction 114" d="M-1209.469,9666.729h0l-17.538-16.045a78.609,78.609,0,0,0,29.662-61.623,78.579,78.579,0,0,0-76.321-78.886V9485.71a103.663,103.663,0,0,1,17.759,2.051,102.542,102.542,0,0,1,19.334,6,102.841,102.841,0,0,1,17.495,9.494,103.808,103.808,0,0,1,15.245,12.578,103.616,103.616,0,0,1,12.575,15.245,102.891,102.891,0,0,1,9.5,17.5,102.415,102.415,0,0,1,6,19.334,103.858,103.858,0,0,1,2.094,20.759,103.844,103.844,0,0,1-2.094,20.756,102.511,102.511,0,0,1-6,19.334,102.983,102.983,0,0,1-9.5,17.5,103.694,103.694,0,0,1-12.575,15.242c-1.8,1.8-3.7,3.561-5.635,5.231Z" transform="translate(1650.667 -3634.666)" fill="#eb0f43"/>
    <path id="Subtraction_113" data-name="Subtraction 113" d="M-1234.014,62.135h0A79.288,79.288,0,0,0-1302.273,22.8h-.395V-1.667A103.837,103.837,0,0,1-1281.908.427a102.591,102.591,0,0,1,19.333,6,103.09,103.09,0,0,1,17.5,9.5A103.835,103.835,0,0,1-1229.836,28.5a103.457,103.457,0,0,1,12.577,15.244c1.889,2.8,3.663,5.724,5.271,8.7l-22.026,9.688h0Z" transform="translate(2208.667 5852.668)" fill="#00ccb1"/>
    <text id="內文p-5" data-name="內文p" transform="translate(280 6143)" font-size="20" font-family="SourceHanSansTW-Bold, Source Han Sans TW" font-weight="700"><tspan x="0" y="23">拉大城鄉差距的原因？（可複選）</tspan></text>
    <text id="內文p-6" data-name="內文p" transform="translate(280 6420)" font-size="20" font-family="SourceHanSansTW-Bold, Source Han Sans TW" font-weight="700"><tspan x="0" y="23">縮減城鄉差距的原因？（可複選）</tspan></text>
    <text id="內文p-7" data-name="內文p" transform="translate(440 6211)" font-size="20" font-family="SourceHanSansTW-Regular, Source Han Sans TW"><tspan x="-160" y="0">偏鄉學生資源較少</tspan></text>
    <text id="內文p-8" data-name="內文p" transform="translate(420 6488)" font-size="20" font-family="SourceHanSansTW-Regular, Source Han Sans TW"><tspan x="-140" y="0">新課綱重視多元</tspan></text>
    <text id="內文p-9" data-name="內文p" transform="translate(500 6249)" font-size="20" font-family="SourceHanSansTW-Regular, Source Han Sans TW"><tspan x="-220" y="0">偏鄉師資設備不足難開課</tspan></text>
    <text id="內文p-10" data-name="內文p" transform="translate(408 6526)" font-size="20" font-family="SourceHanSansTW-Regular, Source Han Sans TW"><tspan x="-127.84" y="0">無意見/未回答</tspan></text>
    <text id="內文p-11" data-name="內文p" transform="translate(280 6288)" font-size="20" font-family="SourceHanSansTW-Regular, Source Han Sans TW"><tspan x="0" y="0">鄉下教師仍習慣舊式教學</tspan></text>
    <text id="內文p-12" data-name="內文p" transform="translate(280 6565)" font-size="20" font-family="SourceHanSansTW-Regular, Source Han Sans TW"><tspan x="0" y="0">翻轉明星學校迷思</tspan></text>
    <text id="內文p-13" data-name="內文p" transform="translate(280 6364)" font-size="20" font-family="SourceHanSansTW-Regular, Source Han Sans TW"><tspan x="0" y="0">偏鄉地區家長觀念老舊</tspan></text>
    <text id="內文p-14" data-name="內文p" transform="translate(280 6324)" font-size="20" font-family="SourceHanSansTW-Regular, Source Han Sans TW"><tspan x="0" y="0">無意見/未回答</tspan></text>
    <text id="內文p-15" data-name="內文p" transform="translate(280 6601)" font-size="20" font-family="SourceHanSansTW-Regular, Source Han Sans TW"><tspan x="0" y="0">對學生較公平</tspan></text>
    <rect id="Rectangle_3191" data-name="Rectangle 3191" width="494" height="25" transform="translate(506 6231)" fill="#f6f6f6"/>
    <rect id="Rectangle_3201" data-name="Rectangle 3201" width="494" height="25" transform="translate(506 6508)" fill="#f6f6f6"/>
    <rect id="Rectangle_3193" data-name="Rectangle 3193" width="494" height="25" transform="translate(506 6267)" fill="#f6f6f6"/>
    <rect id="Rectangle_3203" data-name="Rectangle 3203" width="494" height="25" transform="translate(506 6544)" fill="#f6f6f6"/>
    <rect id="Rectangle_3197" data-name="Rectangle 3197" width="494" height="25" transform="translate(506 6343)" fill="#f6f6f6"/>
    <rect id="Rectangle_3195" data-name="Rectangle 3195" width="494" height="25" transform="translate(506 6303)" fill="#f6f6f6"/>
    <rect id="Rectangle_3205" data-name="Rectangle 3205" width="494" height="25" transform="translate(506 6580)" fill="#f6f6f6"/>
    <rect id="Rectangle_3189" data-name="Rectangle 3189" width="494" height="25" transform="translate(506 6193)" fill="#f6f6f6"/>
    <rect id="Rectangle_3199" data-name="Rectangle 3199" width="494" height="25" transform="translate(506 6470)" fill="#f6f6f6"/>
    <rect id="Rectangle_3192" data-name="Rectangle 3192" width="179" height="25" transform="translate(506 6231)" fill="#00ccb1"/>
    <rect id="Rectangle_3202" data-name="Rectangle 3202" width="182" height="25" transform="translate(506 6508)" fill="#00ccb1"/>
    <rect id="Rectangle_3194" data-name="Rectangle 3194" width="41" height="25" transform="translate(506 6267)" fill="#00ccb1"/>
    <rect id="Rectangle_3204" data-name="Rectangle 3204" width="106" height="25" transform="translate(506 6544)" fill="#00ccb1"/>
    <rect id="Rectangle_3198" data-name="Rectangle 3198" width="13" height="25" transform="translate(506 6343)" fill="#00ccb1"/>
    <rect id="Rectangle_3196" data-name="Rectangle 3196" width="37" height="25" transform="translate(506 6303)" fill="#00ccb1"/>
    <rect id="Rectangle_3206" data-name="Rectangle 3206" width="27" height="25" transform="translate(506 6580)" fill="#00ccb1"/>
    <rect id="Rectangle_3190" data-name="Rectangle 3190" width="377" height="25" transform="translate(506 6193)" fill="#00ccb1"/>
    <rect id="Rectangle_3200" data-name="Rectangle 3200" width="262" height="25" transform="translate(506 6470)" fill="#00ccb1"/>
    <text id="內文p-16" data-name="內文p" transform="translate(889 6212)" fill="#8e8e8e" font-size="20" font-family="Arial-BoldMT, Arial" font-weight="700"><tspan x="0" y="0">75.1</tspan><tspan y="0" font-size="15">%</tspan></text>
    <text id="內文p-17" data-name="內文p" transform="translate(774 6489)" fill="#8e8e8e" font-size="20" font-family="Arial-BoldMT, Arial" font-weight="700"><tspan x="0" y="0">52.7</tspan><tspan y="0" font-size="15">%</tspan></text>
    <text id="內文p-18" data-name="內文p" transform="translate(691 6250)" fill="#8e8e8e" font-size="20" font-family="Arial-BoldMT, Arial" font-weight="700"><tspan x="0" y="0">35.9</tspan><tspan y="0" font-size="15">%</tspan></text>
    <text id="內文p-19" data-name="內文p" transform="translate(692 6527)" fill="#8e8e8e" font-size="20" font-family="Arial-BoldMT, Arial" font-weight="700"><tspan x="0" y="0">36.3</tspan><tspan y="0" font-size="15">%</tspan></text>
    <text id="內文p-20" data-name="內文p" transform="translate(553 6286)" fill="#8e8e8e" font-size="20" font-family="Arial-BoldMT, Arial" font-weight="700"><tspan x="0" y="0">9.1</tspan><tspan y="0" font-size="15">%</tspan></text>
    <text id="內文p-21" data-name="內文p" transform="translate(616 6564)" fill="#8e8e8e" font-size="20" font-family="Arial-BoldMT, Arial" font-weight="700"><tspan x="0" y="0">11.9</tspan><tspan y="0" font-size="15">%</tspan></text>
    <text id="內文p-22" data-name="內文p" transform="translate(525 6362)" fill="#8e8e8e" font-size="20" font-family="Arial-BoldMT, Arial" font-weight="700"><tspan x="0" y="0">2.1</tspan><tspan y="0" font-size="15">%</tspan></text>
    <text id="內文p-23" data-name="內文p" transform="translate(547 6322)" fill="#8e8e8e" font-size="20" font-family="Arial-BoldMT, Arial" font-weight="700"><tspan x="0" y="0">8.7</tspan><tspan y="0" font-size="15">%</tspan></text>
    <text id="內文p-24" data-name="內文p" transform="translate(538 6599)" fill="#8e8e8e" font-size="20" font-family="Arial-BoldMT, Arial" font-weight="700"><tspan x="0" y="0">5.1</tspan><tspan y="0" font-size="15">%</tspan></text>
  </g>
</svg>
