<svg xmlns="http://www.w3.org/2000/svg" width="500" height="265" viewBox="0 0 500 265">
  <g id="Group_2024" data-name="Group 2024" transform="translate(-159 -5187)">
    <path id="Path_1526" data-name="Path 1526" d="M-8146,341V562.171h447" transform="translate(8357.998 4857.13)" fill="none" stroke="#707070" stroke-width="1" stroke-dasharray="3"/>
    <line id="Line_373" data-name="Line 373" y1="37.464" x2="388.11" transform="translate(253.5 5370.036)" fill="none" stroke="#eb0f43" stroke-width="4"/>
    <line id="Line_374" data-name="Line 374" y1="43.047" x2="390.11" transform="translate(251.5 5229.453)" fill="none" stroke="#00ccb1" stroke-width="4"/>
    <circle id="Ellipse_134" data-name="Ellipse 134" cx="10" cy="10" r="10" transform="translate(246 5397)" fill="#eb0f43"/>
    <circle id="Ellipse_135" data-name="Ellipse 135" cx="10" cy="10" r="10" transform="translate(246 5262)" fill="#00ccb1"/>
    <circle id="Ellipse_136" data-name="Ellipse 136" cx="11" cy="11" r="11" transform="translate(623 5357)" fill="#eb0f43"/>
    <circle id="Ellipse_137" data-name="Ellipse 137" cx="11" cy="11" r="11" transform="translate(622 5216)" fill="#00ccb1"/>
    <text id="_1994" data-name="1994" transform="translate(236 5429)" fill="#8d8d8d" font-size="18" font-family="ArialMT, Arial"><tspan x="0" y="16">1994</tspan></text>
    <text id="_所_" data-name="(所)" transform="translate(159 5417)" fill="#8d8d8d" font-size="18" font-family="ArialMT, Arial"><tspan x="0" y="0">(</tspan><tspan y="0" font-family="YuGothicUI-Regular, Yu Gothic UI">所</tspan><tspan y="0">)</tspan></text>
    <text id="_年_" data-name="(年)" transform="translate(612 5442)" fill="#8d8d8d" font-size="18" font-family="ArialMT, Arial"><tspan x="0" y="0">(</tspan><tspan y="0" font-family="YuGothicUI-Regular, Yu Gothic UI">年</tspan><tspan y="0">)</tspan></text>
    <text id="_0" data-name="0" transform="translate(188 5418)" fill="#8d8d8d" font-size="18" font-family="ArialMT, Arial"><tspan x="0" y="0">0</tspan></text>
    <text id="_200" data-name="200" transform="translate(170 5351)" fill="#8d8d8d" font-size="18" font-family="ArialMT, Arial"><tspan x="0" y="0">200</tspan></text>
    <text id="_400" data-name="400" transform="translate(170 5276)" fill="#8d8d8d" font-size="18" font-family="ArialMT, Arial"><tspan x="0" y="0">400</tspan></text>
    <text id="_600" data-name="600" transform="translate(170 5210)" fill="#8d8d8d" font-size="18" font-family="ArialMT, Arial"><tspan x="0" y="0">600</tspan></text>
    <text id="_2019" data-name="2019" transform="translate(569 5426)" fill="#8d8d8d" font-size="18" font-family="ArialMT, Arial"><tspan x="0" y="16">2019</tspan></text>
    <text id="_23" data-name="23" transform="translate(237 5389)" fill="#eb0f43" font-size="25" font-family="Arial-BoldMT, Arial" font-weight="700"><tspan x="0" y="0">23</tspan></text>
    <text id="_402" data-name="402" transform="translate(232 5251)" fill="#00ccb1" font-size="25" font-family="Arial-BoldMT, Arial" font-weight="700"><tspan x="0" y="0">402</tspan></text>
    <text id="_126" data-name="126" transform="translate(599 5352)" fill="#eb0f43" font-size="25" font-family="Arial-BoldMT, Arial" font-weight="700"><tspan x="0" y="0">126</tspan></text>
    <text id="_513" data-name="513" transform="translate(599 5210)" fill="#00ccb1" font-size="25" font-family="Arial-BoldMT, Arial" font-weight="700"><tspan x="0" y="0">513</tspan></text>
    <text id="大學數量" transform="translate(349 5447)" fill="#8d8d8d" font-size="18" font-family="YuGothicUI-Regular, Yu Gothic UI"><tspan x="0" y="0">大學數量</tspan></text>
    <text id="高中數量" transform="translate(462 5447)" fill="#8d8d8d" font-size="18" font-family="YuGothicUI-Regular, Yu Gothic UI"><tspan x="0" y="0">高中數量</tspan></text>
    <rect id="Rectangle_1900" data-name="Rectangle 1900" width="20" height="11" transform="translate(322 5437)" fill="#eb0f43"/>
    <rect id="Rectangle_1901" data-name="Rectangle 1901" width="19" height="11" transform="translate(435 5437)" fill="#00ccb1"/>
  </g>
</svg>
