<svg xmlns="http://www.w3.org/2000/svg" width="382" height="491" viewBox="0 0 382 491">
  <g id="Group_2076" data-name="Group 2076" transform="translate(-16 -3831)">
    <rect id="Rectangle_2717" data-name="Rectangle 2717" width="382" height="491" rx="5" transform="translate(16 3831)" fill="#fff"/>
    <text id="標題2" transform="translate(37 3861)" fill="#00ccb1" font-size="24" font-family="SourceHanSansTW-Bold, Source Han Sans TW" font-weight="700"><tspan x="0" y="28">48.7%</tspan><tspan y="28" fill="#131313">民眾認為台灣教育制度需</tspan><tspan x="0" y="64.4" fill="#131313">改革</tspan></text>
    <text id="內文p" transform="translate(37 3943)" font-size="18" font-family="SourceHanSansTW-Regular, Source Han Sans TW"><tspan x="0" y="21">民眾心目中的前五大教育問題（複選）：</tspan></text>
    <text id="內文p-2" data-name="內文p" transform="translate(127 4011)" font-size="18" font-family="SourceHanSansTW-Regular, Source Han Sans TW"><tspan x="-90" y="0">填鴨式教學</tspan></text>
    <text id="內文p-3" data-name="內文p" transform="translate(181 4073)" font-size="18" font-family="SourceHanSansTW-Regular, Source Han Sans TW"><tspan x="-144" y="0">教育資源分配不均</tspan></text>
    <text id="內文p-4" data-name="內文p" transform="translate(145 4135)" font-size="18" font-family="SourceHanSansTW-Regular, Source Han Sans TW"><tspan x="-108" y="0">升學主義過盛</tspan></text>
    <text id="內文p-5" data-name="內文p" transform="translate(145 4197)" font-size="18" font-family="SourceHanSansTW-Regular, Source Han Sans TW"><tspan x="-108" y="0">學用落差嚴重</tspan></text>
    <text id="內文p-6" data-name="內文p" transform="translate(181 4259)" font-size="18" font-family="SourceHanSansTW-Regular, Source Han Sans TW"><tspan x="-144" y="0">升學制度不利弱勢</tspan></text>
    <rect id="Rectangle_2718" data-name="Rectangle 2718" width="340" height="25" transform="translate(37 4019)" fill="#f6f6f6"/>
    <rect id="Rectangle_2719" data-name="Rectangle 2719" width="340" height="25" transform="translate(37 4081)" fill="#f6f6f6"/>
    <rect id="Rectangle_2722" data-name="Rectangle 2722" width="340" height="25" transform="translate(37 4143)" fill="#f6f6f6"/>
    <rect id="Rectangle_2724" data-name="Rectangle 2724" width="340" height="25" transform="translate(37 4205)" fill="#f6f6f6"/>
    <rect id="Rectangle_2726" data-name="Rectangle 2726" width="340" height="25" transform="translate(37 4267)" fill="#f6f6f6"/>
    <rect id="Rectangle_2720" data-name="Rectangle 2720" width="126" height="25" transform="translate(37 4019)" fill="#00ccb1"/>
    <rect id="Rectangle_2721" data-name="Rectangle 2721" width="117" height="25" transform="translate(37 4081)" fill="#00ccb1"/>
    <rect id="Rectangle_2723" data-name="Rectangle 2723" width="115" height="25" transform="translate(37 4143)" fill="#00ccb1"/>
    <rect id="Rectangle_2725" data-name="Rectangle 2725" width="112" height="25" transform="translate(37 4205)" fill="#00ccb1"/>
    <rect id="Rectangle_2727" data-name="Rectangle 2727" width="107" height="25" transform="translate(37 4267)" fill="#00ccb1"/>
    <text id="內文p-7" data-name="內文p" transform="translate(333 4038)" fill="#8e8e8e" font-size="20" font-family="Arial-BoldMT, Arial" font-weight="700"><tspan x="0" y="0">37</tspan><tspan y="0" font-size="15">%</tspan></text>
    <text id="內文p-8" data-name="內文p" transform="translate(317 4101)" fill="#8e8e8e" font-size="20" font-family="Arial-BoldMT, Arial" font-weight="700"><tspan x="0" y="0">33.1</tspan><tspan y="0" font-size="15">%</tspan></text>
    <text id="內文p-9" data-name="內文p" transform="translate(317 4163)" fill="#8e8e8e" font-size="20" font-family="Arial-BoldMT, Arial" font-weight="700"><tspan x="0" y="0">32.7</tspan><tspan y="0" font-size="15">%</tspan></text>
    <text id="內文p-10" data-name="內文p" transform="translate(317 4223)" fill="#8e8e8e" font-size="20" font-family="Arial-BoldMT, Arial" font-weight="700"><tspan x="0" y="0">31.7</tspan><tspan y="0" font-size="15">%</tspan></text>
    <text id="內文p-11" data-name="內文p" transform="translate(317 4287)" fill="#8e8e8e" font-size="20" font-family="Arial-BoldMT, Arial" font-weight="700"><tspan x="0" y="0">30.1</tspan><tspan y="0" font-size="15">%</tspan></text>
  </g>
</svg>
