<svg xmlns="http://www.w3.org/2000/svg" width="382" height="286" viewBox="0 0 382 286">
  <g id="Group_2078" data-name="Group 2078" transform="translate(-16 -4807)">
    <rect id="Rectangle_2735" data-name="Rectangle 2735" width="382" height="286" rx="5" transform="translate(16 4807)" fill="#fff"/>
    <text id="標題2" transform="translate(37 4837)" fill="#131313" font-size="24" font-family="SourceHanSansTW-Bold, Source Han Sans TW" font-weight="700"><tspan x="0" y="28">最擔心的變革是？（複選）</tspan></text>
    <text id="內文p" transform="translate(109 4906)" font-size="18" font-family="SourceHanSansTW-Regular, Source Han Sans TW"><tspan x="-72" y="0">升學制度</tspan></text>
    <text id="內文p-2" data-name="內文p" transform="translate(37 4968)" font-size="18" font-family="SourceHanSansTW-Regular, Source Han Sans TW"><tspan x="0" y="0">素養學習</tspan></text>
    <text id="內文p-3" data-name="內文p" transform="translate(145 5030)" font-size="18" font-family="SourceHanSansTW-Regular, Source Han Sans TW"><tspan x="-108" y="0">必修時數減少</tspan></text>
    <rect id="Rectangle_2736" data-name="Rectangle 2736" width="340" height="25" transform="translate(37 4914)" fill="#f6f6f6"/>
    <rect id="Rectangle_2737" data-name="Rectangle 2737" width="340" height="25" transform="translate(37 4976)" fill="#f6f6f6"/>
    <rect id="Rectangle_2738" data-name="Rectangle 2738" width="340" height="25" transform="translate(37 5038)" fill="#f6f6f6"/>
    <rect id="Rectangle_2739" data-name="Rectangle 2739" width="127" height="25" transform="translate(37 4914)" fill="#00ccb1"/>
    <rect id="Rectangle_2740" data-name="Rectangle 2740" width="79" height="25" transform="translate(37 4976)" fill="#00ccb1"/>
    <rect id="Rectangle_2741" data-name="Rectangle 2741" width="76" height="25" transform="translate(37 5038)" fill="#00ccb1"/>
    <text id="內文p-4" data-name="內文p" transform="translate(317 5057)" fill="#8e8e8e" font-size="20" font-family="Arial-BoldMT, Arial" font-weight="700"><tspan x="0" y="0">21.7</tspan><tspan y="0" font-size="15">%</tspan></text>
    <text id="內文p-5" data-name="內文p" transform="translate(317 4996)" fill="#8e8e8e" font-size="20" font-family="Arial-BoldMT, Arial" font-weight="700"><tspan x="0" y="0">22.9</tspan><tspan y="0" font-size="15">%</tspan></text>
    <text id="內文p-6" data-name="內文p" transform="translate(317 4933)" fill="#8e8e8e" font-size="20" font-family="Arial-BoldMT, Arial" font-weight="700"><tspan x="0" y="0">37.2</tspan><tspan y="0" font-size="15">%</tspan></text>
  </g>
</svg>
