<svg xmlns="http://www.w3.org/2000/svg" width="382" height="366" viewBox="0 0 382 366">
  <g id="Group_2083" data-name="Group 2083" transform="translate(-16 -8487)">
    <rect id="Rectangle_2770" data-name="Rectangle 2770" width="382" height="366" rx="5" transform="translate(16 8487)" fill="#fff"/>
    <text id="標題2" transform="translate(37 8517)" fill="#131313" font-size="24" font-family="SourceHanSansTW-Bold, Source Han Sans TW" font-weight="700"><tspan x="0" y="28">76.8%國中認為會考制度會影響</tspan><tspan x="0" y="64.4">新課綱落實</tspan></text>
    <text id="內文p" transform="translate(37 8603)" font-size="18" font-family="SourceHanSansTW-Regular, Source Han Sans TW"><tspan x="0" y="21">原因為（複選）：</tspan></text>
    <text id="內文p-2" data-name="內文p" transform="translate(163 8666)" font-size="18" font-family="SourceHanSansTW-Regular, Source Han Sans TW"><tspan x="-126" y="0">家長以升學為重</tspan></text>
    <text id="內文p-3" data-name="內文p" transform="translate(37 8728)" font-size="18" font-family="SourceHanSansTW-Regular, Source Han Sans TW"><tspan x="0" y="0">老師有教學進度壓力</tspan></text>
    <text id="內文p-4" data-name="內文p" transform="translate(163 8790)" font-size="18" font-family="SourceHanSansTW-Regular, Source Han Sans TW"><tspan x="-126" y="0">學校有招生壓力</tspan></text>
    <g id="Group_2000" data-name="Group 2000" transform="translate(0 96)">
      <rect id="Rectangle_2771" data-name="Rectangle 2771" width="340" height="25" transform="translate(37 8578)" fill="#f6f6f6"/>
      <rect id="Rectangle_2772" data-name="Rectangle 2772" width="340" height="25" transform="translate(37 8640)" fill="#f6f6f6"/>
      <rect id="Rectangle_2773" data-name="Rectangle 2773" width="340" height="25" transform="translate(37 8702)" fill="#f6f6f6"/>
      <rect id="Rectangle_2774" data-name="Rectangle 2774" width="284" height="25" transform="translate(37 8578)" fill="#00ccb1"/>
      <rect id="Rectangle_2775" data-name="Rectangle 2775" width="263" height="25" transform="translate(37 8640)" fill="#00ccb1"/>
      <rect id="Rectangle_2776" data-name="Rectangle 2776" width="177" height="25" transform="translate(37 8702)" fill="#00ccb1"/>
    </g>
    <text id="內文p-5" data-name="內文p" transform="translate(322 8694)" fill="#8e8e8e" font-size="20" font-family="Arial-BoldMT, Arial" font-weight="700"><tspan x="0" y="0">83.5</tspan><tspan y="0" font-size="15">%</tspan></text>
    <text id="內文p-6" data-name="內文p" transform="translate(322 8755)" fill="#8e8e8e" font-size="20" font-family="Arial-BoldMT, Arial" font-weight="700"><tspan x="0" y="0">76.5</tspan><tspan y="0" font-size="15">%</tspan></text>
    <text id="內文p-7" data-name="內文p" transform="translate(322 8817)" fill="#8e8e8e" font-size="20" font-family="Arial-BoldMT, Arial" font-weight="700"><tspan x="0" y="0">50.8</tspan><tspan y="0" font-size="15">%</tspan></text>
  </g>
</svg>
