<svg xmlns="http://www.w3.org/2000/svg" width="382" height="706" viewBox="0 0 382 706">
  <g id="Group_2084" data-name="Group 2084" transform="translate(-16 -8873)">
    <rect id="Rectangle_2777" data-name="Rectangle 2777" width="382" height="706" rx="5" transform="translate(16 8873)" fill="#fff"/>
    <text id="標題2" transform="translate(37 8903)" fill="#131313" font-size="24" font-family="SourceHanSansTW-Bold, Source Han Sans TW" font-weight="700"><tspan x="0" y="28">偏遠地區高中實施多元選修課程</tspan><tspan x="0" y="64.4">更困難</tspan></text>
    <text id="內文p" transform="translate(104 9243)" font-size="18" font-family="SourceHanSansTW-Regular, Source Han Sans TW"><tspan x="0" y="0">高中多元選修課遇到困難</tspan></text>
    <text id="_43.4_" data-name="43.4%" transform="translate(151 9124)" fill="#8e8e8e" font-size="40" font-family="Arial-Black, Arial" font-weight="800"><tspan x="0" y="0">43.4</tspan><tspan y="0" font-size="25">%</tspan></text>
    <path id="Subtraction_40" data-name="Subtraction 40" d="M103,206a103.772,103.772,0,0,1-20.758-2.093,102.437,102.437,0,0,1-36.83-15.5A103.311,103.311,0,0,1,8.094,143.092a102.516,102.516,0,0,1-6-19.334,104.006,104.006,0,0,1,0-41.516,102.422,102.422,0,0,1,15.5-36.83A103.3,103.3,0,0,1,62.907,8.094a102.494,102.494,0,0,1,19.334-6,104,104,0,0,1,41.517,0,102.422,102.422,0,0,1,36.83,15.5,103.306,103.306,0,0,1,37.318,45.317,102.462,102.462,0,0,1,6,19.334,103.994,103.994,0,0,1,0,41.516,102.415,102.415,0,0,1-15.5,36.83,103.3,103.3,0,0,1-45.317,37.318,102.494,102.494,0,0,1-19.334,6A103.774,103.774,0,0,1,103,206Zm.395-181.532a78.927,78.927,0,1,0,78.927,78.927A79.016,79.016,0,0,0,103.395,24.468Z" transform="translate(104 9008)" fill="#eee"/>
    <path id="Subtraction_45" data-name="Subtraction 45" d="M-1207.578,167.107h0l-17.589-16.03a78.542,78.542,0,0,0,30.155-62.015,78.578,78.578,0,0,0-76.322-78.884V-14.29a103.705,103.705,0,0,1,17.759,2.049,102.5,102.5,0,0,1,19.334,6,103.031,103.031,0,0,1,17.5,9.5A103.745,103.745,0,0,1-1201.5,15.835a103.692,103.692,0,0,1,12.577,15.244,103.04,103.04,0,0,1,9.5,17.5,102.477,102.477,0,0,1,6,19.335,103.745,103.745,0,0,1,2.093,20.758,103.762,103.762,0,0,1-2.093,20.758,102.491,102.491,0,0,1-6,19.334,102.962,102.962,0,0,1-9.5,17.5A103.744,103.744,0,0,1-1201.5,161.5c-1.937,1.937-3.982,3.824-6.076,5.607Z" transform="translate(1481.333 9022.334)" fill="#00ccb1"/>
    <text id="內文p-2" data-name="內文p" transform="translate(207 9513)" font-size="18" font-family="SourceHanSansTW-Regular, Source Han Sans TW"><tspan x="-54" y="0">偏遠地區高中</tspan><tspan x="-81" y="30.6">多元選修課遇到困難</tspan></text>
    <text id="_55.5_" data-name="55.5%" transform="translate(151 9394)" fill="#8e8e8e" font-size="40" font-family="Arial-Black, Arial" font-weight="800"><tspan x="0" y="0">55.5</tspan><tspan y="0" font-size="25">%</tspan></text>
    <path id="Subtraction_43" data-name="Subtraction 43" d="M103,206a103.772,103.772,0,0,1-20.758-2.093,102.437,102.437,0,0,1-36.83-15.5A103.311,103.311,0,0,1,8.094,143.092a102.516,102.516,0,0,1-6-19.334,104.006,104.006,0,0,1,0-41.516,102.422,102.422,0,0,1,15.5-36.83A103.3,103.3,0,0,1,62.907,8.094a102.494,102.494,0,0,1,19.334-6,104,104,0,0,1,41.517,0,102.422,102.422,0,0,1,36.83,15.5,103.306,103.306,0,0,1,37.318,45.317,102.462,102.462,0,0,1,6,19.334,103.994,103.994,0,0,1,0,41.516,102.415,102.415,0,0,1-15.5,36.83,103.3,103.3,0,0,1-45.317,37.318,102.494,102.494,0,0,1-19.334,6A103.774,103.774,0,0,1,103,206Zm.395-181.532a78.927,78.927,0,1,0,78.927,78.927A79.016,79.016,0,0,0,103.395,24.468Z" transform="translate(104 9278)" fill="#eee"/>
    <path id="Subtraction_47" data-name="Subtraction 47" d="M-1297.667,187.666a103.756,103.756,0,0,1-20.758-2.093,102.437,102.437,0,0,1-19.334-6,103.173,103.173,0,0,1-10.824-5.351l14.512-19.349a78.941,78.941,0,0,0,36.8,9.116,79.016,79.016,0,0,0,78.926-78.927,79.016,79.016,0,0,0-78.926-78.926h-.4V-18.334a103.755,103.755,0,0,1,20.759,2.093,102.436,102.436,0,0,1,19.334,6,103.022,103.022,0,0,1,17.5,9.5,103.7,103.7,0,0,1,15.244,12.577,103.68,103.68,0,0,1,12.577,15.243,103.012,103.012,0,0,1,9.5,17.5,102.475,102.475,0,0,1,6,19.334,103.754,103.754,0,0,1,2.093,20.759,103.75,103.75,0,0,1-2.093,20.758,102.458,102.458,0,0,1-6,19.335,102.946,102.946,0,0,1-9.5,17.5,103.7,103.7,0,0,1-12.577,15.244,103.7,103.7,0,0,1-15.244,12.578,103.09,103.09,0,0,1-17.5,9.5,102.459,102.459,0,0,1-19.334,6A103.756,103.756,0,0,1-1297.667,187.666Z" transform="translate(1504.667 9296.334)" fill="#eb0f43"/>
  </g>
</svg>
