<svg xmlns="http://www.w3.org/2000/svg" width="680" height="589" viewBox="0 0 680 589">
  <g id="Group_2074" data-name="Group 2074" transform="translate(-44 -8881)">
    <rect id="Rectangle_2928" data-name="Rectangle 2928" width="680" height="589" rx="5" transform="translate(44 8881)" fill="#fff"/>
    <text id="內文p" transform="translate(96 8960)" font-size="25" font-family="SourceHanSansTW-Bold, Source Han Sans TW" font-weight="700"><tspan x="0" y="0">學校對推動新課綱有信心，但需要1到3年時間到位</tspan></text>
    <g id="Group_2048" data-name="Group 2048" transform="translate(2 7)">
      <g id="Group_2047" data-name="Group 2047" transform="translate(-248 614)">
        <text id="內文p-2" data-name="內文p" transform="translate(385 8612)" font-size="20" font-family="SourceHanSansTW-Regular, Source Han Sans TW"><tspan x="0" y="0">國中對新課綱推動有信心</tspan></text>
        <text id="_84.2_" data-name="84.2%" transform="translate(443 8492)" fill="#8e8e8e" font-size="40" font-family="Arial-Black, Arial" font-weight="800"><tspan x="0" y="0">84.2</tspan><tspan y="0" font-size="25">%</tspan></text>
        <path id="Subtraction_48" data-name="Subtraction 48" d="M103,206a103.772,103.772,0,0,1-20.758-2.093,102.437,102.437,0,0,1-36.83-15.5A103.311,103.311,0,0,1,8.094,143.092a102.516,102.516,0,0,1-6-19.334,104.006,104.006,0,0,1,0-41.516,102.422,102.422,0,0,1,15.5-36.83A103.3,103.3,0,0,1,62.907,8.094a102.494,102.494,0,0,1,19.334-6,104,104,0,0,1,41.517,0,102.422,102.422,0,0,1,36.83,15.5,103.306,103.306,0,0,1,37.318,45.317,102.462,102.462,0,0,1,6,19.334,103.994,103.994,0,0,1,0,41.516,102.415,102.415,0,0,1-15.5,36.83,103.3,103.3,0,0,1-45.317,37.318,102.494,102.494,0,0,1-19.334,6A103.774,103.774,0,0,1,103,206Zm.395-181.532a78.927,78.927,0,1,0,78.927,78.927A79.016,79.016,0,0,0,103.395,24.468Z" transform="translate(396 8376)" fill="#eee"/>
        <path id="Subtraction_55" data-name="Subtraction 55" d="M-1314.333,193a103.755,103.755,0,0,1-20.759-2.092,102.47,102.47,0,0,1-19.335-6,103.06,103.06,0,0,1-17.5-9.5,103.734,103.734,0,0,1-15.243-12.577,103.736,103.736,0,0,1-12.577-15.243,103.016,103.016,0,0,1-9.5-17.5,102.475,102.475,0,0,1-6-19.335A103.825,103.825,0,0,1-1417.333,90a103.829,103.829,0,0,1,2.092-20.758,102.477,102.477,0,0,1,6-19.334c.522-1.235,1.078-2.479,1.651-3.7l23.264,8.489a77.936,77.936,0,0,0-8.542,35.7,79.017,79.017,0,0,0,78.927,78.928,79.017,79.017,0,0,0,78.927-78.928,78.578,78.578,0,0,0-76.322-78.884V-12.956a103.69,103.69,0,0,1,17.758,2.049,102.467,102.467,0,0,1,19.335,6,103.08,103.08,0,0,1,17.5,9.5A103.688,103.688,0,0,1-1241.5,17.168a103.736,103.736,0,0,1,12.578,15.243,103.065,103.065,0,0,1,9.5,17.5,102.491,102.491,0,0,1,6,19.334A103.76,103.76,0,0,1-1211.333,90a103.756,103.756,0,0,1-2.093,20.758,102.549,102.549,0,0,1-6,19.335,103.06,103.06,0,0,1-9.5,17.5,103.733,103.733,0,0,1-12.578,15.243,103.675,103.675,0,0,1-15.243,12.577,103.088,103.088,0,0,1-17.5,9.5,102.47,102.47,0,0,1-19.335,6A103.735,103.735,0,0,1-1314.333,193Z" transform="translate(1813.333 8389)" fill="#00ccb1"/>
      </g>
      <g id="Group_2046" data-name="Group 2046" transform="translate(-248 614)">
        <text id="內文p-3" data-name="內文p" transform="translate(765 8612)" font-size="20" font-family="SourceHanSansTW-Regular, Source Han Sans TW"><tspan x="-110" y="0">高中對新課綱推動有信心</tspan></text>
        <text id="_88.1_" data-name="88.1%" transform="translate(709 8492)" fill="#8e8e8e" font-size="40" font-family="Arial-Black, Arial" font-weight="800"><tspan x="0" y="0">88.1</tspan><tspan y="0" font-size="25">%</tspan></text>
        <path id="Subtraction_51" data-name="Subtraction 51" d="M103,206a103.772,103.772,0,0,1-20.758-2.093,102.437,102.437,0,0,1-36.83-15.5A103.311,103.311,0,0,1,8.094,143.092a102.516,102.516,0,0,1-6-19.334,104.006,104.006,0,0,1,0-41.516,102.422,102.422,0,0,1,15.5-36.83A103.3,103.3,0,0,1,62.907,8.094a102.494,102.494,0,0,1,19.334-6,104,104,0,0,1,41.517,0,102.422,102.422,0,0,1,36.83,15.5,103.306,103.306,0,0,1,37.318,45.317,102.462,102.462,0,0,1,6,19.334,103.994,103.994,0,0,1,0,41.516,102.415,102.415,0,0,1-15.5,36.83,103.3,103.3,0,0,1-45.317,37.318,102.494,102.494,0,0,1-19.334,6A103.774,103.774,0,0,1,103,206Zm.395-181.532a78.927,78.927,0,1,0,78.927,78.927A79.016,79.016,0,0,0,103.395,24.468Z" transform="translate(662 8376)" fill="#eee"/>
        <path id="Subtraction_57" data-name="Subtraction 57" d="M-1328,194.333a103.816,103.816,0,0,1-20.758-2.093,102.536,102.536,0,0,1-19.335-6,103,103,0,0,1-17.5-9.5,103.788,103.788,0,0,1-15.243-12.577,103.857,103.857,0,0,1-12.578-15.244,103.058,103.058,0,0,1-9.5-17.5,102.543,102.543,0,0,1-6-19.335A103.754,103.754,0,0,1-1431,91.333a103.741,103.741,0,0,1,2.092-20.758,102.476,102.476,0,0,1,6-19.335,103.058,103.058,0,0,1,9.5-17.5,103.822,103.822,0,0,1,11.067-13.7l18.089,16.778a78.5,78.5,0,0,0-22.279,54.9,79.017,79.017,0,0,0,78.927,78.928,79.017,79.017,0,0,0,78.927-78.928A79.016,79.016,0,0,0-1327.605,12.8h-.4V-11.667a103.754,103.754,0,0,1,20.759,2.092,102.536,102.536,0,0,1,19.335,6,103.128,103.128,0,0,1,17.5,9.5A103.783,103.783,0,0,1-1255.168,18.5a103.736,103.736,0,0,1,12.578,15.243,103.065,103.065,0,0,1,9.5,17.5,102.48,102.48,0,0,1,6,19.335A103.742,103.742,0,0,1-1225,91.333a103.756,103.756,0,0,1-2.093,20.758,102.549,102.549,0,0,1-6,19.335,103.065,103.065,0,0,1-9.5,17.5,103.835,103.835,0,0,1-12.578,15.244,103.788,103.788,0,0,1-15.243,12.577,103,103,0,0,1-17.5,9.5,102.536,102.536,0,0,1-19.335,6A103.821,103.821,0,0,1-1328,194.333Z" transform="translate(2093 8387.667)" fill="#00ccb1"/>
      </g>
    </g>
    <text id="內文p-4" data-name="內文p" transform="translate(96 9289)" font-size="20" font-family="SourceHanSansTW-Bold, Source Han Sans TW" font-weight="700"><tspan x="0" y="23">成功得靠（複選）：</tspan><tspan font-family="SourceHanSansTW-Regular, Source Han Sans TW" font-weight="400"><tspan x="0" y="57">1. 教師能力提升（國中：78.1%；高中80.7%）</tspan><tspan x="0" y="91">2. 家長觀念翻轉（國中：69.5%；高中：76.4%）</tspan><tspan x="0" y="125">3. 學校、師生、家長互相信任（國中：64.3%；高中68.8%）</tspan></tspan></text>
  </g>
</svg>
