<svg xmlns="http://www.w3.org/2000/svg" width="680" height="411" viewBox="0 0 680 411">
  <g id="Group_2063" data-name="Group 2063" transform="translate(-44 -3046)">
    <rect id="Rectangle_2852" data-name="Rectangle 2852" width="680" height="411" rx="5" transform="translate(44 3046)" fill="#fff"/>
    <text id="內文p" transform="translate(96 3125)" font-size="25" font-family="SourceHanSansTW-Bold, Source Han Sans TW" font-weight="700"><tspan x="0" y="0">政策溝通失效？民眾沒聽過、家長不清楚</tspan></text>
    <text id="內文p-2" data-name="內文p" transform="translate(87 3372)" font-size="19" font-family="SourceHanSansTW-Regular, Source Han Sans TW"><tspan x="0" y="0">民眾沒聽過108課綱</tspan></text>
    <text id="內文p-3" data-name="內文p" transform="translate(390 3372)" font-size="19" font-family="SourceHanSansTW-Regular, Source Han Sans TW"><tspan x="-114" y="0">家長完全不清楚或不太清楚</tspan><tspan x="-76" y="30">新課綱理念與內容</tspan></text>
    <text id="內文p-4" data-name="內文p" transform="translate(600 3372)" font-size="19" font-family="SourceHanSansTW-Regular, Source Han Sans TW"><tspan x="-66.5" y="0">民眾認為政府的</tspan><tspan x="-66.5" y="30">宣導與說明不足</tspan></text>
    <g id="Group_2031" data-name="Group 2031" transform="translate(79 3162.019)">
      <text id="_62.6_" data-name="62.6%" transform="translate(42 99.981)" fill="#8e8e8e" font-size="33" font-family="Arial-Black, Arial" font-weight="800"><tspan x="0" y="0">62.6</tspan><tspan y="0" font-size="21">%</tspan></text>
      <path id="Subtraction_75" data-name="Subtraction 75" d="M90,180a90.674,90.674,0,0,1-18.138-1.828A89.507,89.507,0,0,1,39.68,164.629a90.273,90.273,0,0,1-32.607-39.6,89.578,89.578,0,0,1-5.244-16.894,90.879,90.879,0,0,1,0-36.276A89.494,89.494,0,0,1,15.371,39.68a90.265,90.265,0,0,1,39.6-32.608A89.558,89.558,0,0,1,71.862,1.829a90.872,90.872,0,0,1,36.277,0A89.495,89.495,0,0,1,140.32,15.371a90.268,90.268,0,0,1,32.608,39.6,89.528,89.528,0,0,1,5.244,16.894,90.869,90.869,0,0,1,0,36.276,89.489,89.489,0,0,1-13.542,32.182,90.262,90.262,0,0,1-39.6,32.608,89.557,89.557,0,0,1-16.894,5.244A90.676,90.676,0,0,1,90,180Zm.345-158.621A68.966,68.966,0,1,0,159.31,90.345,69.043,69.043,0,0,0,90.345,21.379Z" transform="translate(0 -0.019)" fill="#eee"/>
      <path id="Subtraction_77" data-name="Subtraction 77" d="M65.116,179.985a90.655,90.655,0,0,1-18.137-1.828A89.485,89.485,0,0,1,14.8,164.615,90.637,90.637,0,0,1,1.481,153.626c-.5-.5-.994-1.006-1.481-1.516l14.072-15.834A68.946,68.946,0,1,0,65.46,21.378h-.345V0A90.657,90.657,0,0,1,83.252,1.828a89.482,89.482,0,0,1,32.178,13.541,90.248,90.248,0,0,1,32.6,39.594,89.5,89.5,0,0,1,5.244,16.893,90.84,90.84,0,0,1,0,36.273,89.51,89.51,0,0,1-13.54,32.179,90.269,90.269,0,0,1-39.594,32.606,89.577,89.577,0,0,1-16.892,5.243A90.654,90.654,0,0,1,65.116,179.985Z" transform="translate(24.877 0)" fill="#00ccb1"/>
    </g>
    <g id="Group_2029" data-name="Group 2029" transform="translate(299.844 3162.13)">
      <text id="_77.4_" data-name="77.4%" transform="translate(40.156 99.87)" fill="#8e8e8e" font-size="33" font-family="Arial-Black, Arial" font-weight="800"><tspan x="0" y="0">77.4</tspan><tspan y="0" font-size="21">%</tspan></text>
      <path id="Subtraction_72" data-name="Subtraction 72" d="M90,180a90.674,90.674,0,0,1-18.138-1.828A89.507,89.507,0,0,1,39.68,164.629a90.273,90.273,0,0,1-32.607-39.6,89.578,89.578,0,0,1-5.244-16.894,90.879,90.879,0,0,1,0-36.276A89.494,89.494,0,0,1,15.371,39.68a90.265,90.265,0,0,1,39.6-32.608A89.558,89.558,0,0,1,71.862,1.829a90.872,90.872,0,0,1,36.277,0A89.495,89.495,0,0,1,140.32,15.371a90.268,90.268,0,0,1,32.608,39.6,89.528,89.528,0,0,1,5.244,16.894,90.869,90.869,0,0,1,0,36.276,89.489,89.489,0,0,1-13.542,32.182,90.262,90.262,0,0,1-39.6,32.608,89.557,89.557,0,0,1-16.894,5.244A90.676,90.676,0,0,1,90,180Zm.345-158.621A68.966,68.966,0,1,0,159.31,90.345,69.043,69.043,0,0,0,90.345,21.379Z" transform="translate(0.156 -0.13)" fill="#eee"/>
      <path id="Subtraction_74" data-name="Subtraction 74" d="M90,180a90.723,90.723,0,0,1-18.138-1.828,89.506,89.506,0,0,1-32.183-13.543,90.283,90.283,0,0,1-32.607-39.6,89.627,89.627,0,0,1-5.244-16.895A90.954,90.954,0,0,1,1.037,76.3l21.111,3.734a68.969,68.969,0,1,0,68.2-58.656H90V0a90.66,90.66,0,0,1,18.138,1.828A89.491,89.491,0,0,1,140.32,15.37a90.278,90.278,0,0,1,32.607,39.6,89.46,89.46,0,0,1,5.243,16.894,90.846,90.846,0,0,1,0,36.276,89.46,89.46,0,0,1-13.542,32.181,90.265,90.265,0,0,1-39.6,32.608,89.53,89.53,0,0,1-16.894,5.245A90.726,90.726,0,0,1,90,180Z" transform="translate(0.156 -0.13)" fill="#00ccb1"/>
    </g>
    <g id="Group_2030" data-name="Group 2030" transform="translate(509.742 3162.019)">
      <text id="_58.2_" data-name="58.2%" transform="translate(41.258 99.981)" fill="#8e8e8e" font-size="33" font-family="Arial-Black, Arial" font-weight="800"><tspan x="0" y="0">58.2</tspan><tspan y="0" font-size="21">%</tspan></text>
      <path id="Subtraction_68" data-name="Subtraction 68" d="M90,180a90.674,90.674,0,0,1-18.138-1.828A89.507,89.507,0,0,1,39.68,164.629a90.273,90.273,0,0,1-32.607-39.6,89.578,89.578,0,0,1-5.244-16.894,90.879,90.879,0,0,1,0-36.276A89.494,89.494,0,0,1,15.371,39.68a90.265,90.265,0,0,1,39.6-32.608A89.558,89.558,0,0,1,71.862,1.829a90.872,90.872,0,0,1,36.277,0A89.495,89.495,0,0,1,140.32,15.371a90.268,90.268,0,0,1,32.608,39.6,89.528,89.528,0,0,1,5.244,16.894,90.869,90.869,0,0,1,0,36.276,89.489,89.489,0,0,1-13.542,32.182,90.262,90.262,0,0,1-39.6,32.608,89.557,89.557,0,0,1-16.894,5.244A90.676,90.676,0,0,1,90,180Zm.345-158.621A68.966,68.966,0,1,0,159.31,90.345,69.043,69.043,0,0,0,90.345,21.379Z" transform="translate(0.258 -0.019)" fill="#eee"/>
      <path id="Subtraction_71" data-name="Subtraction 71" d="M38.524,179.981a90.651,90.651,0,0,1-18.137-1.828A89.5,89.5,0,0,1,3.5,172.909c-1.168-.494-2.344-1.022-3.5-1.568l12.223-17.4A68.958,68.958,0,1,0,38.869,21.377h-.345V0A90.648,90.648,0,0,1,56.661,1.828,89.5,89.5,0,0,1,88.839,15.37a90.477,90.477,0,0,1,24.307,24.307,89.99,89.99,0,0,1,8.3,15.286,89.515,89.515,0,0,1,5.243,16.892,90.872,90.872,0,0,1,0,36.272,89.531,89.531,0,0,1-5.243,16.892,89.99,89.99,0,0,1-8.3,15.286,90.24,90.24,0,0,1-39.593,32.6,89.53,89.53,0,0,1-16.892,5.244A90.652,90.652,0,0,1,38.524,179.981Z" transform="translate(51.743 0)" fill="#00ccb1"/>
    </g>
  </g>
</svg>
