<svg xmlns="http://www.w3.org/2000/svg" width="680" height="335" viewBox="0 0 680 335">
  <g id="Group_2065" data-name="Group 2065" transform="translate(-44 -4014)">
    <rect id="Rectangle_2864" data-name="Rectangle 2864" width="680" height="335" rx="5" transform="translate(44 4014)" fill="#fff"/>
    <text id="內文p" transform="translate(96 4093)" font-size="25" font-family="SourceHanSansTW-Bold, Source Han Sans TW" font-weight="700"><tspan x="0" y="0">38.8%感到擔憂、焦慮</tspan></text>
    <text id="內文p-2" data-name="內文p" transform="translate(96 4120)" font-size="20" font-family="SourceHanSansTW-Regular, Source Han Sans TW"><tspan x="0" y="23">擔憂與焦慮的原因前三名（複選）：</tspan></text>
    <text id="內文p-3" data-name="內文p" transform="translate(236 4188)" font-size="20" font-family="SourceHanSansTW-Regular, Source Han Sans TW"><tspan x="-140" y="0">升學制度更複雜</tspan></text>
    <text id="內文p-4" data-name="內文p" transform="translate(96 4226)" font-size="20" font-family="SourceHanSansTW-Regular, Source Han Sans TW"><tspan x="0" y="0">對台灣過去教改經驗</tspan><tspan x="0" y="28">沒信心</tspan></text>
    <text id="內文p-5" data-name="內文p" transform="translate(236 4293)" font-size="20" font-family="SourceHanSansTW-Regular, Source Han Sans TW"><tspan x="-140" y="0">新舊課綱難銜接</tspan></text>
    <g id="Group_2034" data-name="Group 2034" transform="translate(0 -16)">
      <rect id="Rectangle_2865" data-name="Rectangle 2865" width="369" height="25" transform="translate(303 4186)" fill="#f6f6f6"/>
      <rect id="Rectangle_2866" data-name="Rectangle 2866" width="369" height="25" transform="translate(303 4224)" fill="#f6f6f6"/>
      <rect id="Rectangle_2869" data-name="Rectangle 2869" width="369" height="25" transform="translate(303 4290)" fill="#f6f6f6"/>
      <rect id="Rectangle_2867" data-name="Rectangle 2867" width="88" height="25" transform="translate(303 4186)" fill="#00ccb1"/>
      <rect id="Rectangle_2868" data-name="Rectangle 2868" width="79" height="25" transform="translate(303 4224)" fill="#00ccb1"/>
      <rect id="Rectangle_2870" data-name="Rectangle 2870" width="69" height="25" transform="translate(303 4290)" fill="#00ccb1"/>
    </g>
    <text id="內文p-6" data-name="內文p" transform="translate(376 4294)" fill="#8e8e8e" font-size="20" font-family="Arial-BoldMT, Arial" font-weight="700"><tspan x="0" y="0">19.5</tspan><tspan y="0" font-size="15">%</tspan></text>
    <text id="內文p-7" data-name="內文p" transform="translate(404 4191)" fill="#8e8e8e" font-size="20" font-family="Arial-BoldMT, Arial" font-weight="700"><tspan x="0" y="0">23.3</tspan><tspan y="0" font-size="15">%</tspan></text>
    <text id="內文p-8" data-name="內文p" transform="translate(390 4229)" fill="#8e8e8e" font-size="20" font-family="Arial-BoldMT, Arial" font-weight="700"><tspan x="0" y="0">20.9</tspan><tspan y="0" font-size="15">%</tspan></text>
  </g>
</svg>
