<svg xmlns="http://www.w3.org/2000/svg" width="680" height="259" viewBox="0 0 680 259">
  <g id="Group_2066" data-name="Group 2066" transform="translate(-44 -4374)">
    <rect id="Rectangle_2871" data-name="Rectangle 2871" width="680" height="259" rx="5" transform="translate(44 4374)" fill="#fff"/>
    <text id="內文p" transform="translate(96 4424)" font-size="25" font-family="SourceHanSansTW-Bold, Source Han Sans TW" font-weight="700"><tspan x="0" y="29">最擔心的變革是？（複選）</tspan></text>
    <text id="內文p-2" data-name="內文p" transform="translate(176 4503)" font-size="20" font-family="SourceHanSansTW-Regular, Source Han Sans TW"><tspan x="-80" y="0">升學制度</tspan></text>
    <text id="內文p-3" data-name="內文p" transform="translate(96 4541)" font-size="20" font-family="SourceHanSansTW-Regular, Source Han Sans TW"><tspan x="0" y="0">素養學習</tspan></text>
    <text id="內文p-4" data-name="內文p" transform="translate(216 4579)" font-size="20" font-family="SourceHanSansTW-Regular, Source Han Sans TW"><tspan x="-120" y="0">必修時數減少</tspan></text>
    <g id="Group_2035" data-name="Group 2035" transform="translate(0 -16)">
      <rect id="Rectangle_2872" data-name="Rectangle 2872" width="369" height="25" transform="translate(303 4497)" fill="#f6f6f6"/>
      <rect id="Rectangle_2873" data-name="Rectangle 2873" width="369" height="25" transform="translate(303 4535)" fill="#f6f6f6"/>
      <rect id="Rectangle_2876" data-name="Rectangle 2876" width="369" height="25" transform="translate(303 4574)" fill="#f6f6f6"/>
      <rect id="Rectangle_2874" data-name="Rectangle 2874" width="137" height="25" transform="translate(303 4497)" fill="#00ccb1"/>
      <rect id="Rectangle_2875" data-name="Rectangle 2875" width="86" height="25" transform="translate(303 4535)" fill="#00ccb1"/>
      <rect id="Rectangle_2877" data-name="Rectangle 2877" width="83" height="25" transform="translate(303 4574)" fill="#00ccb1"/>
    </g>
    <text id="內文p-5" data-name="內文p" transform="translate(393 4577)" fill="#8e8e8e" font-size="20" font-family="Arial-BoldMT, Arial" font-weight="700"><tspan x="0" y="0">21.7</tspan><tspan y="0" font-size="15">%</tspan></text>
    <text id="內文p-6" data-name="內文p" transform="translate(449 4500)" fill="#8e8e8e" font-size="20" font-family="Arial-BoldMT, Arial" font-weight="700"><tspan x="0" y="0">37.2</tspan><tspan y="0" font-size="15">%</tspan></text>
    <text id="內文p-7" data-name="內文p" transform="translate(399 4539)" fill="#8e8e8e" font-size="20" font-family="Arial-BoldMT, Arial" font-weight="700"><tspan x="0" y="0">22.9</tspan><tspan y="0" font-size="15">%</tspan></text>
  </g>
</svg>
