<svg xmlns="http://www.w3.org/2000/svg" width="680" height="408" viewBox="0 0 680 408">
  <g id="Group_2068" data-name="Group 2068" transform="translate(-44 -5602)">
    <rect id="Rectangle_2879" data-name="Rectangle 2879" width="680" height="408" rx="5" transform="translate(44 5602)" fill="#fff"/>
    <text id="內文p" transform="translate(96 5681)" font-size="25" font-family="SourceHanSansTW-Bold, Source Han Sans TW" font-weight="700"><tspan x="0" y="0">民眾仍支持改革</tspan></text>
    <g id="Group_2040" data-name="Group 2040" transform="translate(9 5)">
      <g id="Group_2039" data-name="Group 2039" transform="translate(-260 557)">
        <text id="內文p-2" data-name="內文p" transform="translate(765 5392)" font-size="20" font-family="SourceHanSansTW-Regular, Source Han Sans TW"><tspan x="-110" y="0">民眾對新課綱成功有信心</tspan></text>
        <text id="_47.8_" data-name="47.8%" transform="translate(709 5272)" fill="#8e8e8e" font-size="40" font-family="Arial-Black, Arial" font-weight="800"><tspan x="0" y="0">47.8</tspan><tspan y="0" font-size="25">%</tspan></text>
        <path id="Subtraction_7" data-name="Subtraction 7" d="M103,206a103.772,103.772,0,0,1-20.758-2.093,102.437,102.437,0,0,1-36.83-15.5A103.311,103.311,0,0,1,8.094,143.092a102.516,102.516,0,0,1-6-19.334,104.006,104.006,0,0,1,0-41.516,102.422,102.422,0,0,1,15.5-36.83A103.3,103.3,0,0,1,62.907,8.094a102.494,102.494,0,0,1,19.334-6,104,104,0,0,1,41.517,0,102.422,102.422,0,0,1,36.83,15.5,103.306,103.306,0,0,1,37.318,45.317,102.462,102.462,0,0,1,6,19.334,103.994,103.994,0,0,1,0,41.516,102.415,102.415,0,0,1-15.5,36.83,103.3,103.3,0,0,1-45.317,37.318,102.494,102.494,0,0,1-19.334,6A103.774,103.774,0,0,1,103,206Zm.395-181.532a78.927,78.927,0,1,0,78.927,78.927A79.016,79.016,0,0,0,103.395,24.468Z" transform="translate(662 5156)" fill="#eee"/>
        <path id="Subtraction_25" data-name="Subtraction 25" d="M3919.466,3423.918h0l-10.517-21.547a78.932,78.932,0,0,0-19.554-155.4H3889V3222.5a103.674,103.674,0,0,1,20.759,2.093,102.434,102.434,0,0,1,36.83,15.5,103.3,103.3,0,0,1,37.317,45.317,102.431,102.431,0,0,1,6,19.334,103.982,103.982,0,0,1,0,41.516,102.418,102.418,0,0,1-15.5,36.83,103.292,103.292,0,0,1-45.317,37.318c-3.127,1.323-6.366,2.5-9.626,3.512Z" transform="translate(-3124 1933.5)" fill="#00ccb1"/>
      </g>
      <text id="內文p-3" data-name="內文p" transform="translate(149 5949)" font-size="20" font-family="SourceHanSansTW-Regular, Source Han Sans TW"><tspan x="0" y="0">民眾支持新課綱改革</tspan></text>
      <text id="_58.7_" data-name="58.7%" transform="translate(183 5829)" fill="#8e8e8e" font-size="40" font-family="Arial-Black, Arial" font-weight="800"><tspan x="0" y="0">58.7</tspan><tspan y="0" font-size="25">%</tspan></text>
      <path id="Subtraction_78" data-name="Subtraction 78" d="M103,206a103.772,103.772,0,0,1-20.758-2.093,102.437,102.437,0,0,1-36.83-15.5A103.311,103.311,0,0,1,8.094,143.092a102.516,102.516,0,0,1-6-19.334,104.006,104.006,0,0,1,0-41.516,102.422,102.422,0,0,1,15.5-36.83A103.3,103.3,0,0,1,62.907,8.094a102.494,102.494,0,0,1,19.334-6,104,104,0,0,1,41.517,0,102.422,102.422,0,0,1,36.83,15.5,103.306,103.306,0,0,1,37.318,45.317,102.462,102.462,0,0,1,6,19.334,103.994,103.994,0,0,1,0,41.516,102.415,102.415,0,0,1-15.5,36.83,103.3,103.3,0,0,1-45.317,37.318,102.494,102.494,0,0,1-19.334,6A103.774,103.774,0,0,1,103,206Zm.395-181.532a78.927,78.927,0,1,0,78.927,78.927A79.016,79.016,0,0,0,103.395,24.468Z" transform="translate(136 5713)" fill="#eee"/>
      <path id="Subtraction_80" data-name="Subtraction 80" d="M3885,3427.5a103.818,103.818,0,0,1-20.759-2.092,102.463,102.463,0,0,1-36.83-15.5c-2.8-1.892-5.545-3.951-8.157-6.119l16.333-17.711a78.914,78.914,0,1,0,49.806-140.112H3885V3221.5a103.727,103.727,0,0,1,20.759,2.093,102.414,102.414,0,0,1,36.829,15.5,103.313,103.313,0,0,1,37.318,45.317,102.474,102.474,0,0,1,6,19.333,104,104,0,0,1,0,41.516,102.4,102.4,0,0,1-15.5,36.83,103.289,103.289,0,0,1-45.317,37.318,102.456,102.456,0,0,1-19.333,6A103.818,103.818,0,0,1,3885,3427.5Z" transform="translate(-3646 2491.5)" fill="#00ccb1"/>
    </g>
  </g>
</svg>
