<svg xmlns="http://www.w3.org/2000/svg" width="382" height="1111" viewBox="0 0 382 1111">
  <g id="poll_chart5_mob" transform="translate(-16 -6288)">
    <rect id="Rectangle_2735" data-name="Rectangle 2735" width="382" height="1111" rx="5" transform="translate(16 6288)" fill="#fff"/>
    <text id="標題2" transform="translate(37 6318)" fill="#131313" font-size="24" font-family="SourceHanSansTW-Bold, Source Han Sans TW" font-weight="700"><tspan x="0" y="28">最擔心的變革是？（可複選）</tspan></text>
    <text id="內文p" transform="translate(109 6962)" font-size="18" font-family="SourceHanSansTW-Regular, Source Han Sans TW"><tspan x="-72" y="0">升學制度</tspan></text>
    <text id="內文p-2" data-name="內文p" transform="translate(109 7148)" font-size="18" font-family="SourceHanSansTW-Regular, Source Han Sans TW"><tspan x="-72" y="0">生涯引導</tspan></text>
    <text id="內文p-3" data-name="內文p" transform="translate(37 7024)" font-size="18" font-family="SourceHanSansTW-Regular, Source Han Sans TW"><tspan x="0" y="0">素養學習</tspan></text>
    <text id="內文p-4" data-name="內文p" transform="translate(37 7210)" font-size="18" font-family="SourceHanSansTW-Regular, Source Han Sans TW"><tspan x="0" y="0">多元選修課增加</tspan></text>
    <text id="內文p-5" data-name="內文p" transform="translate(145 7086)" font-size="18" font-family="SourceHanSansTW-Regular, Source Han Sans TW"><tspan x="-108" y="0">必修時數減少</tspan></text>
    <text id="內文p-6" data-name="內文p" transform="translate(145 7272)" font-size="18" font-family="SourceHanSansTW-Regular, Source Han Sans TW"><tspan x="-108" y="0">學習歷程檔案</tspan></text>
    <text id="內文p-7" data-name="內文p" transform="translate(109 7336)" font-size="18" font-family="SourceHanSansTW-Regular, Source Han Sans TW"><tspan x="-72" y="0">彈性課程</tspan></text>
    <rect id="Rectangle_2736" data-name="Rectangle 2736" width="340" height="25" transform="translate(37 6970)" fill="#f6f6f6"/>
    <rect id="Rectangle_3364" data-name="Rectangle 3364" width="340" height="25" transform="translate(37 7156)" fill="#f6f6f6"/>
    <rect id="Rectangle_2737" data-name="Rectangle 2737" width="340" height="25" transform="translate(37 7032)" fill="#f6f6f6"/>
    <rect id="Rectangle_3365" data-name="Rectangle 3365" width="340" height="25" transform="translate(37 7218)" fill="#f6f6f6"/>
    <rect id="Rectangle_2738" data-name="Rectangle 2738" width="340" height="25" transform="translate(37 7094)" fill="#f6f6f6"/>
    <rect id="Rectangle_3366" data-name="Rectangle 3366" width="340" height="25" transform="translate(37 7280)" fill="#f6f6f6"/>
    <rect id="Rectangle_3367" data-name="Rectangle 3367" width="340" height="25" transform="translate(37 7344)" fill="#f6f6f6"/>
    <rect id="Rectangle_2739" data-name="Rectangle 2739" width="127" height="25" transform="translate(37 6970)" fill="#00ccb1"/>
    <rect id="Rectangle_2740" data-name="Rectangle 2740" width="79" height="25" transform="translate(37 7032)" fill="#00ccb1"/>
    <rect id="Rectangle_2741" data-name="Rectangle 2741" width="76" height="25" transform="translate(37 7094)" fill="#00ccb1"/>
    <text id="內文p-8" data-name="內文p" transform="translate(317 7113)" fill="#8e8e8e" font-size="20" font-family="Arial-BoldMT, Arial" font-weight="700"><tspan x="0" y="0">21.7</tspan><tspan y="0" font-size="15">%</tspan></text>
    <text id="內文p-9" data-name="內文p" transform="translate(317 7175)" fill="#8e8e8e" font-size="20" font-family="Arial-BoldMT, Arial" font-weight="700"><tspan x="0" y="0">20.1</tspan><tspan y="0" font-size="15">%</tspan></text>
    <text id="內文p-10" data-name="內文p" transform="translate(317 7237)" fill="#8e8e8e" font-size="20" font-family="Arial-BoldMT, Arial" font-weight="700"><tspan x="0" y="0">18.7</tspan><tspan y="0" font-size="15">%</tspan></text>
    <text id="內文p-11" data-name="內文p" transform="translate(317 7300)" fill="#8e8e8e" font-size="20" font-family="Arial-BoldMT, Arial" font-weight="700"><tspan x="0" y="0">17.4</tspan><tspan y="0" font-size="15">%</tspan></text>
    <text id="內文p-12" data-name="內文p" transform="translate(317 7363)" fill="#8e8e8e" font-size="20" font-family="Arial-BoldMT, Arial" font-weight="700"><tspan x="0" y="0">10.9</tspan><tspan y="0" font-size="15">%</tspan></text>
    <text id="內文p-13" data-name="內文p" transform="translate(317 7052)" fill="#8e8e8e" font-size="20" font-family="Arial-BoldMT, Arial" font-weight="700"><tspan x="0" y="0">22.9</tspan><tspan y="0" font-size="15">%</tspan></text>
    <text id="內文p-14" data-name="內文p" transform="translate(317 6989)" fill="#8e8e8e" font-size="20" font-family="Arial-BoldMT, Arial" font-weight="700"><tspan x="0" y="0">37.2</tspan><tspan y="0" font-size="15">%</tspan></text>
    <rect id="Rectangle_3359" data-name="Rectangle 3359" width="70" height="25" transform="translate(37 7156)" fill="#00ccb1"/>
    <rect id="Rectangle_3360" data-name="Rectangle 3360" width="64" height="25" transform="translate(37 7218)" fill="#00ccb1"/>
    <rect id="Rectangle_3361" data-name="Rectangle 3361" width="61" height="25" transform="translate(37 7280)" fill="#00ccb1"/>
    <rect id="Rectangle_3363" data-name="Rectangle 3363" width="37" height="25" transform="translate(37 7344)" fill="#00ccb1"/>
    <g id="Group_2122" data-name="Group 2122" transform="translate(125 -590)">
      <g id="Group_2119" data-name="Group 2119" transform="translate(-20.873 6966)">
        <text id="內文p-15" data-name="內文p" transform="translate(63 213)" font-size="20" font-family="SourceHanSansTW-Regular, Source Han Sans TW"><tspan x="0" y="23">都不擔心</tspan></text>
        <text id="_13.6_" data-name="13.6%" transform="translate(47 116)" fill="#8e8e8e" font-size="40" font-family="Arial-Black, Arial" font-weight="800"><tspan x="0" y="0">13.6</tspan><tspan y="0" font-size="25">%</tspan></text>
        <path id="Subtraction_35" data-name="Subtraction 35" d="M103,206a103.772,103.772,0,0,1-20.758-2.093,102.437,102.437,0,0,1-36.83-15.5A103.311,103.311,0,0,1,8.094,143.092a102.516,102.516,0,0,1-6-19.334,104.006,104.006,0,0,1,0-41.516,102.422,102.422,0,0,1,15.5-36.83A103.3,103.3,0,0,1,62.907,8.094a102.494,102.494,0,0,1,19.334-6,104,104,0,0,1,41.517,0,102.422,102.422,0,0,1,36.83,15.5,103.306,103.306,0,0,1,37.318,45.317,102.462,102.462,0,0,1,6,19.334,103.994,103.994,0,0,1,0,41.516,102.415,102.415,0,0,1-15.5,36.83,103.3,103.3,0,0,1-45.317,37.318,102.494,102.494,0,0,1-19.334,6A103.774,103.774,0,0,1,103,206Zm.395-181.532a78.927,78.927,0,1,0,78.927,78.927A79.016,79.016,0,0,0,103.395,24.468Z" fill="#eee"/>
      </g>
      <g id="Group_2120" data-name="Group 2120" transform="translate(-21.205 7238)">
        <text id="內文p-16" data-name="內文p" transform="translate(42 213)" font-size="20" font-family="SourceHanSansTW-Regular, Source Han Sans TW"><tspan x="0.08" y="23">無意見/未回答</tspan></text>
        <text id="_9.4_" data-name="9.4%" transform="translate(63 72)" fill="#8e8e8e" font-size="40" font-family="Arial-Black, Arial" font-weight="800"><tspan x="0" y="44">9.4</tspan><tspan y="44" font-size="25">%</tspan></text>
        <path id="Subtraction_32" data-name="Subtraction 32" d="M103,206a103.772,103.772,0,0,1-20.758-2.093,102.437,102.437,0,0,1-36.83-15.5A103.311,103.311,0,0,1,8.094,143.092a102.516,102.516,0,0,1-6-19.334,104.006,104.006,0,0,1,0-41.516,102.422,102.422,0,0,1,15.5-36.83A103.3,103.3,0,0,1,62.907,8.094a102.494,102.494,0,0,1,19.334-6,104,104,0,0,1,41.517,0,102.422,102.422,0,0,1,36.83,15.5,103.306,103.306,0,0,1,37.318,45.317,102.462,102.462,0,0,1,6,19.334,103.994,103.994,0,0,1,0,41.516,102.415,102.415,0,0,1-15.5,36.83,103.3,103.3,0,0,1-45.317,37.318,102.494,102.494,0,0,1-19.334,6A103.774,103.774,0,0,1,103,206Zm.395-181.532a78.927,78.927,0,1,0,78.927,78.927A79.016,79.016,0,0,0,103.395,24.468Z" fill="#eee"/>
        <path id="Subtraction_260" data-name="Subtraction 260" d="M-1897.963,18855.957a79.064,79.064,0,0,0-58.642-26.158c-.133,0-.264,0-.4,0v-24.467a103.574,103.574,0,0,1,20.762,2.1,102.6,102.6,0,0,1,19.333,6,103.188,103.188,0,0,1,17.494,9.5,103.458,103.458,0,0,1,15.244,12.58c1.886,1.885,3.736,3.887,5.5,5.947l-19.294,14.5Z" transform="translate(2060 -18805.334)" fill="#eb0f43"/>
      </g>
      <path id="Subtraction_259" data-name="Subtraction 259" d="M-1215.044,23845.465a78.548,78.548,0,0,0-70.765-44c-.133,0-.265,0-.4,0V23777a103.564,103.564,0,0,1,20.759,2.092,102.237,102.237,0,0,1,19.331,6,103,103,0,0,1,17.5,9.5,103.524,103.524,0,0,1,15.24,12.576,103.573,103.573,0,0,1,12.582,15.246,103.3,103.3,0,0,1,7.96,14.043l-22.209,9.006Z" transform="translate(1368.333 -16811)" fill="#00ccb1"/>
    </g>
  </g>
</svg>
