<svg xmlns="http://www.w3.org/2000/svg" width="382" height="361" viewBox="0 0 382 361">
  <g id="poll_chart18_mob" transform="translate(-16 -20851)">
    <rect id="Rectangle_3911" data-name="Rectangle 3911" width="382" height="361" rx="5" transform="translate(16 20851)" fill="#fff"/>
    <text id="標題2" transform="translate(37 20881)" fill="#131313" font-size="24" font-family="SourceHanSansTW-Bold, Source Han Sans TW" font-weight="700"><tspan x="0" y="28">高中彈性學習時間如何運用？</tspan></text>
    <rect id="Rectangle_3878" data-name="Rectangle 3878" width="340" height="25" transform="translate(37 21033)" fill="#f6f6f6"/>
    <rect id="Rectangle_3880" data-name="Rectangle 3880" width="340" height="25" transform="translate(37 21095)" fill="#f6f6f6"/>
    <rect id="Rectangle_3876" data-name="Rectangle 3876" width="340" height="25" transform="translate(37 20971)" fill="#f6f6f6"/>
    <rect id="Rectangle_3882" data-name="Rectangle 3882" width="340" height="25" transform="translate(37 21157)" fill="#f6f6f6"/>
    <text id="內文p" transform="translate(199 20963)" font-size="18" font-family="SourceHanSansTW-Regular, Source Han Sans TW"><tspan x="-162" y="0">學生提自主學習計畫</tspan></text>
    <text id="內文p-2" data-name="內文p" transform="translate(163 21149)" font-size="18" font-family="SourceHanSansTW-Regular, Source Han Sans TW"><tspan x="-126" y="0">開設補強性教學</tspan></text>
    <text id="內文p-3" data-name="內文p" transform="translate(181 21087)" font-size="18" font-family="SourceHanSansTW-Regular, Source Han Sans TW"><tspan x="-144" y="0">辦理學校特色活動</tspan></text>
    <text id="內文p-4" data-name="內文p" transform="translate(217 21025)" font-size="18" font-family="SourceHanSansTW-Regular, Source Han Sans TW"><tspan x="-180" y="0">開設充實（增廣）課程</tspan></text>
    <text id="內文p-5" data-name="內文p" transform="translate(340 21177)" fill="#8e8e8e" font-size="20" font-family="Arial-BoldMT, Arial" font-weight="700"><tspan x="0" y="0">57</tspan><tspan y="0" font-size="15">%</tspan></text>
    <text id="內文p-6" data-name="內文p" transform="translate(324 21053)" fill="#8e8e8e" font-size="20" font-family="Arial-BoldMT, Arial" font-weight="700"><tspan x="0" y="0">82.5</tspan><tspan y="0" font-size="15">%</tspan></text>
    <text id="內文p-7" data-name="內文p" transform="translate(324 21115)" fill="#8e8e8e" font-size="20" font-family="Arial-BoldMT, Arial" font-weight="700"><tspan x="0" y="0">73.5</tspan><tspan y="0" font-size="15">%</tspan></text>
    <rect id="Rectangle_3919" data-name="Rectangle 3919" width="319" height="25" transform="translate(37 20971)" fill="#00ccb1"/>
    <rect id="Rectangle_3917" data-name="Rectangle 3917" width="283" height="25" transform="translate(37 21033)" fill="#00ccb1"/>
    <rect id="Rectangle_3915" data-name="Rectangle 3915" width="253" height="25" transform="translate(37 21095)" fill="#00ccb1"/>
    <rect id="Rectangle_3913" data-name="Rectangle 3913" width="194" height="25" transform="translate(37 21157)" fill="#00ccb1"/>
    <text id="內文p-8" data-name="內文p" transform="translate(298 20991)" fill="#fff" font-size="20" font-family="Arial-BoldMT, Arial" font-weight="700"><tspan x="0" y="0">93.0</tspan><tspan y="0" font-size="15">%</tspan></text>
  </g>
</svg>
