<svg xmlns="http://www.w3.org/2000/svg" width="382" height="914" viewBox="0 0 382 914">
  <g id="poll_chart11_mob" transform="translate(-16 -12246)">
    <rect id="Rectangle_3471" data-name="Rectangle 3471" width="382" height="914" rx="5" transform="translate(16 12246)" fill="#fff"/>
    <text id="標題2" transform="translate(37 12276)" fill="#131313" font-size="24" font-family="SourceHanSansTW-Bold, Source Han Sans TW" font-weight="700"><tspan x="0" y="28">對新課綱成功是否有信心？</tspan></text>
    <g id="Group_2105" data-name="Group 2105" transform="translate(218 -652)">
      <text id="內文p" transform="translate(-78 13232.001)" font-size="20" font-family="SourceHanSansTW-Regular, Source Han Sans TW"><tspan x="0" y="0">非常／還算信心</tspan></text>
      <text id="_47.8_" data-name="47.8%" transform="translate(-67 13112.001)" fill="#8e8e8e" font-size="40" font-family="Arial-Black, Arial" font-weight="800"><tspan x="0" y="0">47.8</tspan><tspan y="0" font-size="25">%</tspan></text>
      <path id="Subtraction_215" data-name="Subtraction 215" d="M103,206a103.772,103.772,0,0,1-20.758-2.093,102.437,102.437,0,0,1-36.83-15.5A103.311,103.311,0,0,1,8.094,143.092a102.516,102.516,0,0,1-6-19.334,104.006,104.006,0,0,1,0-41.516,102.422,102.422,0,0,1,15.5-36.83A103.3,103.3,0,0,1,62.907,8.094a102.494,102.494,0,0,1,19.334-6,104,104,0,0,1,41.517,0,102.422,102.422,0,0,1,36.83,15.5,103.306,103.306,0,0,1,37.318,45.317,102.462,102.462,0,0,1,6,19.334,103.994,103.994,0,0,1,0,41.516,102.415,102.415,0,0,1-15.5,36.83,103.3,103.3,0,0,1-45.317,37.318,102.494,102.494,0,0,1-19.334,6A103.774,103.774,0,0,1,103,206Zm.395-181.532a78.927,78.927,0,1,0,78.927,78.927A79.016,79.016,0,0,0,103.395,24.468Z" transform="translate(-114 12996.001)" fill="#eee"/>
      <path id="Subtraction_218" data-name="Subtraction 218" d="M3916.382,3422.63h0l-9.542-21.768A78.933,78.933,0,0,0,3889,3246.049v-24.472a103.7,103.7,0,0,1,16.758,2.016,102.372,102.372,0,0,1,36.83,15.5,103.306,103.306,0,0,1,37.317,45.316,102.318,102.318,0,0,1,6,19.334,103.99,103.99,0,0,1,0,41.515,102.448,102.448,0,0,1-15.5,36.831,103.308,103.308,0,0,1-45.316,37.317c-2.839,1.2-5.769,2.285-8.71,3.224Z" transform="translate(-3896 9774.501)" fill="#00ccb1"/>
    </g>
    <g id="Group_2104" data-name="Group 2104" transform="translate(-48 -380)">
      <text id="內文p-2" data-name="內文p" transform="translate(256 13232.001)" font-size="20" font-family="SourceHanSansTW-Regular, Source Han Sans TW"><tspan x="-80" y="0">不太／完全沒信心</tspan></text>
      <text id="_39.6_" data-name="39.6%" transform="translate(199 13112.001)" fill="#8e8e8e" font-size="40" font-family="Arial-Black, Arial" font-weight="800"><tspan x="0" y="0">39.6</tspan><tspan y="0" font-size="25">%</tspan></text>
      <path id="Subtraction_219" data-name="Subtraction 219" d="M103,206a103.772,103.772,0,0,1-20.758-2.093,102.437,102.437,0,0,1-36.83-15.5A103.311,103.311,0,0,1,8.094,143.092a102.516,102.516,0,0,1-6-19.334,104.006,104.006,0,0,1,0-41.516,102.422,102.422,0,0,1,15.5-36.83A103.3,103.3,0,0,1,62.907,8.094a102.494,102.494,0,0,1,19.334-6,104,104,0,0,1,41.517,0,102.422,102.422,0,0,1,36.83,15.5,103.306,103.306,0,0,1,37.318,45.317,102.462,102.462,0,0,1,6,19.334,103.994,103.994,0,0,1,0,41.516,102.415,102.415,0,0,1-15.5,36.83,103.3,103.3,0,0,1-45.317,37.318,102.494,102.494,0,0,1-19.334,6A103.774,103.774,0,0,1,103,206Zm.395-181.532a78.927,78.927,0,1,0,78.927,78.927A79.016,79.016,0,0,0,103.395,24.468Z" transform="translate(152 12996.001)" fill="#eee"/>
      <path id="Subtraction_225" data-name="Subtraction 225" d="M-1205.365,9662.689h0l-17.713-15.521a78.832,78.832,0,0,0,19.4-51.774,79.016,79.016,0,0,0-78.927-78.926h-.4V9492a103.807,103.807,0,0,1,20.758,2.094,102.346,102.346,0,0,1,19.334,6,102.954,102.954,0,0,1,17.5,9.5,103.674,103.674,0,0,1,15.243,12.576,103.638,103.638,0,0,1,12.576,15.243,102.934,102.934,0,0,1,9.5,17.5,102.659,102.659,0,0,1,6,19.334A103.881,103.881,0,0,1-1180,9595a103.9,103.9,0,0,1-2.093,20.761,102.57,102.57,0,0,1-6,19.334,102.934,102.934,0,0,1-9.5,17.5,103.907,103.907,0,0,1-7.772,10.1Z" transform="translate(1538 3504.001)" fill="#00ccb1"/>
    </g>
    <g id="Group_2103" data-name="Group 2103" transform="translate(-988 9352)">
      <text id="內文p-3" data-name="內文p" transform="translate(1198 3772)" font-size="20" font-family="SourceHanSansTW-Regular, Source Han Sans TW"><tspan x="-70" y="0">無意見／未回答</tspan></text>
      <text id="_12.6_" data-name="12.6%" transform="translate(1138 3652)" fill="#8e8e8e" font-size="40" font-family="Arial-Black, Arial" font-weight="800"><tspan x="0" y="0">12.6</tspan><tspan y="0" font-size="25">%</tspan></text>
      <path id="Subtraction_226" data-name="Subtraction 226" d="M103,206a103.772,103.772,0,0,1-20.758-2.093,102.437,102.437,0,0,1-36.83-15.5A103.311,103.311,0,0,1,8.094,143.092a102.516,102.516,0,0,1-6-19.334,104.006,104.006,0,0,1,0-41.516,102.422,102.422,0,0,1,15.5-36.83A103.3,103.3,0,0,1,62.907,8.094a102.494,102.494,0,0,1,19.334-6,104,104,0,0,1,41.517,0,102.422,102.422,0,0,1,36.83,15.5,103.306,103.306,0,0,1,37.318,45.317,102.462,102.462,0,0,1,6,19.334,103.994,103.994,0,0,1,0,41.516,102.415,102.415,0,0,1-15.5,36.83,103.3,103.3,0,0,1-45.317,37.318,102.494,102.494,0,0,1-19.334,6A103.774,103.774,0,0,1,103,206Zm.395-181.532a78.927,78.927,0,1,0,78.927,78.927A79.016,79.016,0,0,0,103.395,24.468Z" transform="translate(1092 3536)" fill="#eee"/>
      <path id="Subtraction_228" data-name="Subtraction 228" d="M-1241.235,9540.2h0a78.314,78.314,0,0,0-56.369-23.734h-.4V9492a103.708,103.708,0,0,1,20.758,2.095,102.363,102.363,0,0,1,19.334,6,102.972,102.972,0,0,1,17.5,9.5,103.875,103.875,0,0,1,15.245,12.577c.413.413.858.866,1.323,1.349l-17.391,16.688Z" transform="translate(2493 -5956)" fill="#00ccb1"/>
    </g>
  </g>
</svg>
