<svg xmlns="http://www.w3.org/2000/svg" width="382" height="671" viewBox="0 0 382 671">
  <g id="poll_chart5_mob" transform="translate(-16 -6288)">
    <rect id="Rectangle_2735" data-name="Rectangle 2735" width="382" height="671" rx="5" transform="translate(16 6288)" fill="#fff"/>
    <text id="標題2" transform="translate(37 6318)" fill="#131313" font-size="24" font-family="SourceHanSansTW-Bold, Source Han Sans TW" font-weight="700"><tspan x="0" y="28">最擔心的變革是？（可複選）</tspan></text>
    <text id="內文p" transform="translate(109 6397)" font-size="18" font-family="SourceHanSansTW-Regular, Source Han Sans TW"><tspan x="-72" y="0">升學制度</tspan></text>
    <text id="內文p-2" data-name="內文p" transform="translate(109 6583)" font-size="18" font-family="SourceHanSansTW-Regular, Source Han Sans TW"><tspan x="-72" y="0">生涯引導</tspan></text>
    <text id="內文p-3" data-name="內文p" transform="translate(37 6459)" font-size="18" font-family="SourceHanSansTW-Regular, Source Han Sans TW"><tspan x="0" y="0">素養學習</tspan></text>
    <text id="內文p-4" data-name="內文p" transform="translate(37 6645)" font-size="18" font-family="SourceHanSansTW-Regular, Source Han Sans TW"><tspan x="0" y="0">多元選修課增加</tspan></text>
    <text id="內文p-5" data-name="內文p" transform="translate(145 6521)" font-size="18" font-family="SourceHanSansTW-Regular, Source Han Sans TW"><tspan x="-108" y="0">必修時數減少</tspan></text>
    <text id="內文p-6" data-name="內文p" transform="translate(145 6707)" font-size="18" font-family="SourceHanSansTW-Regular, Source Han Sans TW"><tspan x="-108" y="0">學習歷程檔案</tspan></text>
    <text id="內文p-7" data-name="內文p" transform="translate(109 6770)" font-size="18" font-family="SourceHanSansTW-Regular, Source Han Sans TW"><tspan x="-72" y="0">都不擔心</tspan></text>
    <text id="內文p-8" data-name="內文p" transform="translate(109 6834)" font-size="18" font-family="SourceHanSansTW-Regular, Source Han Sans TW"><tspan x="-72" y="0">彈性課程</tspan></text>
    <text id="內文p-9" data-name="內文p" transform="translate(152 6896)" font-size="18" font-family="SourceHanSansTW-Regular, Source Han Sans TW"><tspan x="-115.056" y="0">無意見/未回答</tspan></text>
    <rect id="Rectangle_2736" data-name="Rectangle 2736" width="340" height="25" transform="translate(37 6405)" fill="#f6f6f6"/>
    <rect id="Rectangle_3364" data-name="Rectangle 3364" width="340" height="25" transform="translate(37 6591)" fill="#f6f6f6"/>
    <rect id="Rectangle_2737" data-name="Rectangle 2737" width="340" height="25" transform="translate(37 6467)" fill="#f6f6f6"/>
    <rect id="Rectangle_3365" data-name="Rectangle 3365" width="340" height="25" transform="translate(37 6653)" fill="#f6f6f6"/>
    <rect id="Rectangle_2738" data-name="Rectangle 2738" width="340" height="25" transform="translate(37 6529)" fill="#f6f6f6"/>
    <rect id="Rectangle_3366" data-name="Rectangle 3366" width="340" height="25" transform="translate(37 6715)" fill="#f6f6f6"/>
    <rect id="Rectangle_4220" data-name="Rectangle 4220" width="340" height="25" transform="translate(37 6778)" fill="#f6f6f6"/>
    <rect id="Rectangle_3367" data-name="Rectangle 3367" width="340" height="25" transform="translate(37 6842)" fill="#f6f6f6"/>
    <rect id="Rectangle_4218" data-name="Rectangle 4218" width="340" height="25" transform="translate(37 6904)" fill="#f6f6f6"/>
    <rect id="Rectangle_2739" data-name="Rectangle 2739" width="127" height="25" transform="translate(37 6405)" fill="#00ccb1"/>
    <rect id="Rectangle_2740" data-name="Rectangle 2740" width="79" height="25" transform="translate(37 6467)" fill="#00ccb1"/>
    <rect id="Rectangle_2741" data-name="Rectangle 2741" width="76" height="25" transform="translate(37 6529)" fill="#00ccb1"/>
    <text id="內文p-10" data-name="內文p" transform="translate(317 6548)" fill="#8e8e8e" font-size="20" font-family="Arial-BoldMT, Arial" font-weight="700"><tspan x="0" y="0">21.7</tspan><tspan y="0" font-size="15">%</tspan></text>
    <text id="內文p-11" data-name="內文p" transform="translate(317 6610)" fill="#8e8e8e" font-size="20" font-family="Arial-BoldMT, Arial" font-weight="700"><tspan x="0" y="0">20.1</tspan><tspan y="0" font-size="15">%</tspan></text>
    <text id="內文p-12" data-name="內文p" transform="translate(317 6672)" fill="#8e8e8e" font-size="20" font-family="Arial-BoldMT, Arial" font-weight="700"><tspan x="0" y="0">18.7</tspan><tspan y="0" font-size="15">%</tspan></text>
    <text id="內文p-13" data-name="內文p" transform="translate(317 6735)" fill="#8e8e8e" font-size="20" font-family="Arial-BoldMT, Arial" font-weight="700"><tspan x="0" y="0">17.4</tspan><tspan y="0" font-size="15">%</tspan></text>
    <text id="內文p-14" data-name="內文p" transform="translate(317 6798)" fill="#8e8e8e" font-size="20" font-family="Arial-BoldMT, Arial" font-weight="700"><tspan x="0" y="0">13.6</tspan><tspan y="0" font-size="15">%</tspan></text>
    <text id="內文p-15" data-name="內文p" transform="translate(317 6861)" fill="#8e8e8e" font-size="20" font-family="Arial-BoldMT, Arial" font-weight="700"><tspan x="0" y="0">10.9</tspan><tspan y="0" font-size="15">%</tspan></text>
    <text id="內文p-16" data-name="內文p" transform="translate(328 6923)" fill="#8e8e8e" font-size="20" font-family="Arial-BoldMT, Arial" font-weight="700"><tspan x="0" y="0">9.4</tspan><tspan y="0" font-size="15">%</tspan></text>
    <text id="內文p-17" data-name="內文p" transform="translate(317 6487)" fill="#8e8e8e" font-size="20" font-family="Arial-BoldMT, Arial" font-weight="700"><tspan x="0" y="0">22.9</tspan><tspan y="0" font-size="15">%</tspan></text>
    <text id="內文p-18" data-name="內文p" transform="translate(317 6424)" fill="#8e8e8e" font-size="20" font-family="Arial-BoldMT, Arial" font-weight="700"><tspan x="0" y="0">37.2</tspan><tspan y="0" font-size="15">%</tspan></text>
    <rect id="Rectangle_3359" data-name="Rectangle 3359" width="70" height="25" transform="translate(37 6591)" fill="#00ccb1"/>
    <rect id="Rectangle_3360" data-name="Rectangle 3360" width="64" height="25" transform="translate(37 6653)" fill="#00ccb1"/>
    <rect id="Rectangle_3361" data-name="Rectangle 3361" width="61" height="25" transform="translate(37 6715)" fill="#00ccb1"/>
    <rect id="Rectangle_4221" data-name="Rectangle 4221" width="51" height="25" transform="translate(37 6778)" fill="#00ccb1"/>
    <rect id="Rectangle_3363" data-name="Rectangle 3363" width="37" height="25" transform="translate(37 6842)" fill="#00ccb1"/>
    <rect id="Rectangle_4219" data-name="Rectangle 4219" width="31" height="25" transform="translate(37 6904)" fill="#00ccb1"/>
  </g>
</svg>
