<svg xmlns="http://www.w3.org/2000/svg" width="382" height="555" viewBox="0 0 382 555">
  <g id="poll_chart19_mob" transform="translate(-16 -21232)">
    <rect id="Rectangle_3932" data-name="Rectangle 3932" width="382" height="555" rx="5" transform="translate(16 21232)" fill="#fff"/>
    <text id="標題2" transform="translate(37 21262)" fill="#131313" font-size="24" font-family="SourceHanSansTW-Bold, Source Han Sans TW" font-weight="700"><tspan x="0" y="28">40.6%高中實施彈性學習時間遇</tspan><tspan x="0" y="64.4">到困難</tspan></text>
    <rect id="Rectangle_3935" data-name="Rectangle 3935" width="340" height="25" transform="translate(37 21484)" fill="#f6f6f6"/>
    <rect id="Rectangle_3941" data-name="Rectangle 3941" width="340" height="25" transform="translate(37 21670)" fill="#f6f6f6"/>
    <rect id="Rectangle_3937" data-name="Rectangle 3937" width="340" height="25" transform="translate(37 21546)" fill="#f6f6f6"/>
    <rect id="Rectangle_3943" data-name="Rectangle 3943" width="340" height="25" transform="translate(37 21732)" fill="#f6f6f6"/>
    <rect id="Rectangle_3933" data-name="Rectangle 3933" width="340" height="25" transform="translate(37 21422)" fill="#f6f6f6"/>
    <rect id="Rectangle_3939" data-name="Rectangle 3939" width="340" height="25" transform="translate(37 21608)" fill="#f6f6f6"/>
    <text id="內文p" transform="translate(37 21354)" font-size="18" font-family="SourceHanSansTW-Bold, Source Han Sans TW" font-weight="700"><tspan x="0" y="21">遇到的困難為：（可複選）</tspan></text>
    <text id="內文p-2" data-name="內文p" transform="translate(253 21414)" font-size="18" font-family="SourceHanSansTW-Regular, Source Han Sans TW"><tspan x="-216" y="0">學生無法提出自主學習計畫</tspan></text>
    <text id="內文p-3" data-name="內文p" transform="translate(181 21600)" font-size="18" font-family="SourceHanSansTW-Regular, Source Han Sans TW"><tspan x="-144" y="0">教師不知如何規劃</tspan></text>
    <text id="內文p-4" data-name="內文p" transform="translate(145 21538)" font-size="18" font-family="SourceHanSansTW-Regular, Source Han Sans TW"><tspan x="-108" y="0">教學資源不足</tspan></text>
    <text id="內文p-5" data-name="內文p" transform="translate(235 21476)" font-size="18" font-family="SourceHanSansTW-Regular, Source Han Sans TW"><tspan x="-198" y="0">學校難協助學生自主學習</tspan></text>
    <text id="內文p-6" data-name="內文p" transform="translate(319 21442)" fill="#8e8e8e" font-size="20" font-family="Arial-BoldMT, Arial" font-weight="700"><tspan x="0" y="0">60.7</tspan><tspan y="0" font-size="15">%</tspan></text>
    <text id="內文p-7" data-name="內文p" transform="translate(319 21628)" fill="#8e8e8e" font-size="20" font-family="Arial-BoldMT, Arial" font-weight="700"><tspan x="0" y="0">31.1</tspan><tspan y="0" font-size="15">%</tspan></text>
    <text id="內文p-8" data-name="內文p" transform="translate(319 21504)" fill="#8e8e8e" font-size="20" font-family="Arial-BoldMT, Arial" font-weight="700"><tspan x="0" y="0">39.5</tspan><tspan y="0" font-size="15">%</tspan></text>
    <text id="內文p-9" data-name="內文p" transform="translate(319 21690)" fill="#8e8e8e" font-size="20" font-family="Arial-BoldMT, Arial" font-weight="700"><tspan x="0" y="0">16.9</tspan><tspan y="0" font-size="15">%</tspan></text>
    <text id="內文p-10" data-name="內文p" transform="translate(319 21566)" fill="#8e8e8e" font-size="20" font-family="Arial-BoldMT, Arial" font-weight="700"><tspan x="0" y="0">38.3</tspan><tspan y="0" font-size="15">%</tspan></text>
    <text id="內文p-11" data-name="內文p" transform="translate(330 21752)" fill="#8e8e8e" font-size="20" font-family="Arial-BoldMT, Arial" font-weight="700"><tspan x="0" y="0">9.4</tspan><tspan y="0" font-size="15">%</tspan></text>
    <text id="內文p-12" data-name="內文p" transform="translate(181 21724)" font-size="18" font-family="SourceHanSansTW-Regular, Source Han Sans TW"><tspan x="-144" y="0">家長質疑課程內容</tspan></text>
    <text id="內文p-13" data-name="內文p" transform="translate(73 21662)" font-size="18" font-family="SourceHanSansTW-Regular, Source Han Sans TW"><tspan x="-36" y="0">其他</tspan></text>
    <rect id="Rectangle_3955" data-name="Rectangle 3955" width="208" height="25" transform="translate(37 21422)" fill="#00ccb1"/>
    <rect id="Rectangle_3953" data-name="Rectangle 3953" width="134" height="25" transform="translate(37 21484)" fill="#00ccb1"/>
    <rect id="Rectangle_3951" data-name="Rectangle 3951" width="129" height="25" transform="translate(37 21546)" fill="#00ccb1"/>
    <rect id="Rectangle_3949" data-name="Rectangle 3949" width="108" height="25" transform="translate(37 21608)" fill="#00ccb1"/>
    <rect id="Rectangle_3947" data-name="Rectangle 3947" width="57" height="25" transform="translate(37 21670)" fill="#00ccb1"/>
    <rect id="Rectangle_3945" data-name="Rectangle 3945" width="32" height="25" transform="translate(37 21732)" fill="#00ccb1"/>
  </g>
</svg>
