<svg xmlns="http://www.w3.org/2000/svg" width="382" height="1094" viewBox="0 0 382 1094">
  <g id="poll_chart3_mob" transform="translate(-16 -4528)">
    <rect id="Rectangle_2728" data-name="Rectangle 2728" width="382" height="1094" rx="5" transform="translate(16 4528)" fill="#fff"/>
    <text id="標題2" transform="translate(37 4558)" fill="#131313" font-size="24" font-family="SourceHanSansTW-Bold, Source Han Sans TW" font-weight="700"><tspan x="0" y="28">38.8%感到擔憂、焦慮</tspan></text>
    <text id="內文p" transform="translate(37 4606)" font-size="18" font-family="SourceHanSansTW-Regular, Source Han Sans TW"><tspan x="0" y="21">擔憂與焦慮的原因（可複選）：</tspan></text>
    <text id="內文p-2" data-name="內文p" transform="translate(162 4674)" font-size="18" font-family="SourceHanSansTW-Regular, Source Han Sans TW"><tspan x="-126" y="0">升學制度更複雜</tspan></text>
    <text id="內文p-3" data-name="內文p" transform="translate(144 4863)" font-size="18" font-family="SourceHanSansTW-Regular, Source Han Sans TW"><tspan x="-108" y="0">學生負擔加重</tspan></text>
    <text id="內文p-4" data-name="內文p" transform="translate(126 5242)" font-size="18" font-family="SourceHanSansTW-Regular, Source Han Sans TW"><tspan x="-90" y="0">實施太倉促</tspan></text>
    <text id="內文p-5" data-name="內文p" transform="translate(144 5053)" font-size="18" font-family="SourceHanSansTW-Regular, Source Han Sans TW"><tspan x="-108" y="0">城鄉差距拉大</tspan></text>
    <text id="內文p-6" data-name="內文p" transform="translate(198 5432)" font-size="18" font-family="SourceHanSansTW-Regular, Source Han Sans TW"><tspan x="-162" y="0">新課綱變動幅度太大</tspan></text>
    <text id="內文p-7" data-name="內文p" transform="translate(36 4737)" font-size="18" font-family="SourceHanSansTW-Regular, Source Han Sans TW"><tspan x="0" y="0">對臺灣過去教改經驗沒信心</tspan></text>
    <text id="內文p-8" data-name="內文p" transform="translate(36 4926)" font-size="18" font-family="SourceHanSansTW-Regular, Source Han Sans TW"><tspan x="0" y="0">課綱與教學現場落差大</tspan></text>
    <text id="內文p-9" data-name="內文p" transform="translate(36 5305)" font-size="18" font-family="SourceHanSansTW-Regular, Source Han Sans TW"><tspan x="0" y="0">太重意識形態</tspan></text>
    <text id="內文p-10" data-name="內文p" transform="translate(36 5116)" font-size="18" font-family="SourceHanSansTW-Regular, Source Han Sans TW"><tspan x="0" y="0">新課綱內容難以理解</tspan></text>
    <text id="內文p-11" data-name="內文p" transform="translate(36 5495)" font-size="18" font-family="SourceHanSansTW-Regular, Source Han Sans TW"><tspan x="0" y="0">學用難銜接</tspan></text>
    <text id="內文p-12" data-name="內文p" transform="translate(162 4801)" font-size="18" font-family="SourceHanSansTW-Regular, Source Han Sans TW"><tspan x="-126" y="0">新舊課綱難銜接</tspan></text>
    <text id="內文p-13" data-name="內文p" transform="translate(180 4990)" font-size="18" font-family="SourceHanSansTW-Regular, Source Han Sans TW"><tspan x="-144" y="0">教師授課方式老舊</tspan></text>
    <text id="內文p-14" data-name="內文p" transform="translate(126 5369)" font-size="18" font-family="SourceHanSansTW-Regular, Source Han Sans TW"><tspan x="-90" y="0">缺乏國際觀</tspan></text>
    <text id="內文p-15" data-name="內文p" transform="translate(126 5180)" font-size="18" font-family="SourceHanSansTW-Regular, Source Han Sans TW"><tspan x="-90" y="0">學校難落實</tspan></text>
    <text id="內文p-16" data-name="內文p" transform="translate(151 5559)" font-size="18" font-family="SourceHanSansTW-Regular, Source Han Sans TW"><tspan x="-115.056" y="0">無意見/未回答</tspan></text>
    <rect id="Rectangle_2729" data-name="Rectangle 2729" width="340" height="25" transform="translate(37 4683)" fill="#f6f6f6"/>
    <rect id="Rectangle_3279" data-name="Rectangle 3279" width="340" height="25" transform="translate(37 4872)" fill="#f6f6f6"/>
    <rect id="Rectangle_3288" data-name="Rectangle 3288" width="340" height="25" transform="translate(37 5251)" fill="#f6f6f6"/>
    <rect id="Rectangle_3282" data-name="Rectangle 3282" width="340" height="25" transform="translate(37 5062)" fill="#f6f6f6"/>
    <rect id="Rectangle_3285" data-name="Rectangle 3285" width="340" height="25" transform="translate(37 5441)" fill="#f6f6f6"/>
    <rect id="Rectangle_2730" data-name="Rectangle 2730" width="340" height="25" transform="translate(37 4747)" fill="#f6f6f6"/>
    <rect id="Rectangle_3278" data-name="Rectangle 3278" width="340" height="25" transform="translate(37 4936)" fill="#f6f6f6"/>
    <rect id="Rectangle_3287" data-name="Rectangle 3287" width="340" height="25" transform="translate(37 5315)" fill="#f6f6f6"/>
    <rect id="Rectangle_3281" data-name="Rectangle 3281" width="340" height="25" transform="translate(37 5126)" fill="#f6f6f6"/>
    <rect id="Rectangle_3284" data-name="Rectangle 3284" width="340" height="25" transform="translate(37 5505)" fill="#f6f6f6"/>
    <rect id="Rectangle_2733" data-name="Rectangle 2733" width="340" height="25" transform="translate(37 4809)" fill="#f6f6f6"/>
    <rect id="Rectangle_3277" data-name="Rectangle 3277" width="340" height="25" transform="translate(37 4998)" fill="#f6f6f6"/>
    <rect id="Rectangle_3286" data-name="Rectangle 3286" width="340" height="25" transform="translate(37 5377)" fill="#f6f6f6"/>
    <rect id="Rectangle_3280" data-name="Rectangle 3280" width="340" height="25" transform="translate(37 5188)" fill="#f6f6f6"/>
    <rect id="Rectangle_3283" data-name="Rectangle 3283" width="340" height="25" transform="translate(37 5567)" fill="#f6f6f6"/>
    <rect id="Rectangle_2731" data-name="Rectangle 2731" width="81" height="25" transform="translate(37 4683)" fill="#00ccb1"/>
    <rect id="Rectangle_2732" data-name="Rectangle 2732" width="73" height="25" transform="translate(37 4747)" fill="#00ccb1"/>
    <rect id="Rectangle_2734" data-name="Rectangle 2734" width="64" height="25" transform="translate(37 4809)" fill="#00ccb1"/>
    <text id="內文p-17" data-name="內文p" transform="translate(318 4829)" fill="#8e8e8e" font-size="20" font-family="Arial-BoldMT, Arial" font-weight="700"><tspan x="0" y="0">19.5</tspan><tspan y="0" font-size="15">%</tspan></text>
    <text id="內文p-18" data-name="內文p" transform="translate(329 5018)" fill="#8e8e8e" font-size="20" font-family="Arial-BoldMT, Arial" font-weight="700"><tspan x="0" y="0">7.2</tspan><tspan y="0" font-size="15">%</tspan></text>
    <text id="內文p-19" data-name="內文p" transform="translate(329 5397)" fill="#8e8e8e" font-size="20" font-family="Arial-BoldMT, Arial" font-weight="700"><tspan x="0" y="0">2.6</tspan><tspan y="0" font-size="15">%</tspan></text>
    <text id="內文p-20" data-name="內文p" transform="translate(329 5208)" fill="#8e8e8e" font-size="20" font-family="Arial-BoldMT, Arial" font-weight="700"><tspan x="0" y="0">3.8</tspan><tspan y="0" font-size="15">%</tspan></text>
    <text id="內文p-21" data-name="內文p" transform="translate(319 5587)" fill="#8e8e8e" font-size="20" font-family="Arial-BoldMT, Arial" font-weight="700"><tspan x="0" y="0">11.3</tspan><tspan y="0" font-size="15">%</tspan></text>
    <text id="內文p-22" data-name="內文p" transform="translate(318 4768)" fill="#8e8e8e" font-size="20" font-family="Arial-BoldMT, Arial" font-weight="700"><tspan x="0" y="0">20.9</tspan><tspan y="0" font-size="15">%</tspan></text>
    <text id="內文p-23" data-name="內文p" transform="translate(319 4957)" fill="#8e8e8e" font-size="20" font-family="Arial-BoldMT, Arial" font-weight="700"><tspan x="0" y="0">11.8</tspan><tspan y="0" font-size="15">%</tspan></text>
    <text id="內文p-24" data-name="內文p" transform="translate(329 5336)" fill="#8e8e8e" font-size="20" font-family="Arial-BoldMT, Arial" font-weight="700"><tspan x="0" y="0">3.0</tspan><tspan y="0" font-size="15">%</tspan></text>
    <text id="內文p-25" data-name="內文p" transform="translate(329 5147)" fill="#8e8e8e" font-size="20" font-family="Arial-BoldMT, Arial" font-weight="700"><tspan x="0" y="0">6.4</tspan><tspan y="0" font-size="15">%</tspan></text>
    <text id="內文p-26" data-name="內文p" transform="translate(329 5526)" fill="#8e8e8e" font-size="20" font-family="Arial-BoldMT, Arial" font-weight="700"><tspan x="0" y="0">2.2</tspan><tspan y="0" font-size="15">%</tspan></text>
    <text id="內文p-27" data-name="內文p" transform="translate(318 4704)" fill="#8e8e8e" font-size="20" font-family="Arial-BoldMT, Arial" font-weight="700"><tspan x="0" y="0">23.3</tspan><tspan y="0" font-size="15">%</tspan></text>
    <text id="內文p-28" data-name="內文p" transform="translate(318 4893)" fill="#8e8e8e" font-size="20" font-family="Arial-BoldMT, Arial" font-weight="700"><tspan x="0" y="0">18.9</tspan><tspan y="0" font-size="15">%</tspan></text>
    <text id="內文p-29" data-name="內文p" transform="translate(329 5272)" fill="#8e8e8e" font-size="20" font-family="Arial-BoldMT, Arial" font-weight="700"><tspan x="0" y="0">3.5</tspan><tspan y="0" font-size="15">%</tspan></text>
    <text id="內文p-30" data-name="內文p" transform="translate(329 5083)" fill="#8e8e8e" font-size="20" font-family="Arial-BoldMT, Arial" font-weight="700"><tspan x="0" y="0">6.7</tspan><tspan y="0" font-size="15">%</tspan></text>
    <text id="內文p-31" data-name="內文p" transform="translate(329 5462)" fill="#8e8e8e" font-size="20" font-family="Arial-BoldMT, Arial" font-weight="700"><tspan x="0" y="0">2.2</tspan><tspan y="0" font-size="15">%</tspan></text>
    <rect id="Rectangle_3312" data-name="Rectangle 3312" width="61" height="25" transform="translate(37 4873)" fill="#00ccb1"/>
    <rect id="Rectangle_3310" data-name="Rectangle 3310" width="39" height="25" transform="translate(37 4937)" fill="#00ccb1"/>
    <rect id="Rectangle_3308" data-name="Rectangle 3308" width="28" height="25" transform="translate(37 4998)" fill="#00ccb1"/>
    <rect id="Rectangle_3306" data-name="Rectangle 3306" width="25" height="25" transform="translate(37 5062)" fill="#00ccb1"/>
    <rect id="Rectangle_3304" data-name="Rectangle 3304" width="24" height="25" transform="translate(37 5126)" fill="#00ccb1"/>
    <rect id="Rectangle_3302" data-name="Rectangle 3302" width="17" height="25" transform="translate(37 5188)" fill="#00ccb1"/>
    <rect id="Rectangle_3300" data-name="Rectangle 3300" width="16" height="25" transform="translate(37 5251)" fill="#00ccb1"/>
    <rect id="Rectangle_3298" data-name="Rectangle 3298" width="14" height="25" transform="translate(37 5315)" fill="#00ccb1"/>
    <rect id="Rectangle_3296" data-name="Rectangle 3296" width="12" height="25" transform="translate(37 5377)" fill="#00ccb1"/>
    <rect id="Rectangle_3294" data-name="Rectangle 3294" width="11" height="25" transform="translate(37 5441)" fill="#00ccb1"/>
    <rect id="Rectangle_3292" data-name="Rectangle 3292" width="11" height="25" transform="translate(37 5505)" fill="#00ccb1"/>
    <rect id="Rectangle_3290" data-name="Rectangle 3290" width="38" height="25" transform="translate(37 5567)" fill="#00ccb1"/>
  </g>
</svg>
