<svg xmlns="http://www.w3.org/2000/svg" width="382" height="626" viewBox="0 0 382 626">
  <g id="poll_chart4_mob" transform="translate(-16 -5642)">
    <rect id="Rectangle_3313" data-name="Rectangle 3313" width="382" height="626" rx="5" transform="translate(16 5642)" fill="#fff"/>
    <text id="標題2" transform="translate(37 5672)" fill="#131313" font-size="24" font-family="SourceHanSansTW-Bold, Source Han Sans TW" font-weight="700"><tspan x="0" y="28">28.0%對新課綱放心、樂觀，</tspan><tspan x="0" y="64.4">14.0%以平常心看待</tspan></text>
    <text id="內文p" transform="translate(37 5757)" font-size="18" font-family="SourceHanSansTW-Regular, Source Han Sans TW"><tspan x="0" y="21">放心與樂觀的原因：（可複選）</tspan></text>
    <text id="內文p-2" data-name="內文p" transform="translate(151 5825)" font-size="18" font-family="SourceHanSansTW-Regular, Source Han Sans TW"><tspan x="-115.056" y="0">無意見/未回答</tspan></text>
    <text id="內文p-3" data-name="內文p" transform="translate(216 6014)" font-size="18" font-family="SourceHanSansTW-Regular, Source Han Sans TW"><tspan x="-180" y="0">有助引導孩子思考未來</tspan></text>
    <text id="內文p-4" data-name="內文p" transform="translate(144 6204)" font-size="18" font-family="SourceHanSansTW-Regular, Source Han Sans TW"><tspan x="-108" y="0">課業壓力減輕</tspan></text>
    <text id="內文p-5" data-name="內文p" transform="translate(36 5888)" font-size="18" font-family="SourceHanSansTW-Regular, Source Han Sans TW"><tspan x="0" y="0">認同新課綱理念</tspan></text>
    <text id="內文p-6" data-name="內文p" transform="translate(36 6077)" font-size="18" font-family="SourceHanSansTW-Regular, Source Han Sans TW"><tspan x="0" y="0">教師教學方式改善</tspan></text>
    <text id="內文p-7" data-name="內文p" transform="translate(162 5952)" font-size="18" font-family="SourceHanSansTW-Regular, Source Han Sans TW"><tspan x="-126" y="0">課程內容更多元</tspan></text>
    <text id="內文p-8" data-name="內文p" transform="translate(144 6141)" font-size="18" font-family="SourceHanSansTW-Regular, Source Han Sans TW"><tspan x="-108" y="0">學生反應良好</tspan></text>
    <rect id="Rectangle_3314" data-name="Rectangle 3314" width="340" height="25" transform="translate(37 5834)" fill="#f6f6f6"/>
    <rect id="Rectangle_3320" data-name="Rectangle 3320" width="340" height="25" transform="translate(37 6023)" fill="#f6f6f6"/>
    <rect id="Rectangle_3326" data-name="Rectangle 3326" width="340" height="25" transform="translate(37 6213)" fill="#f6f6f6"/>
    <rect id="Rectangle_3316" data-name="Rectangle 3316" width="340" height="25" transform="translate(37 5898)" fill="#f6f6f6"/>
    <rect id="Rectangle_3322" data-name="Rectangle 3322" width="340" height="25" transform="translate(37 6087)" fill="#f6f6f6"/>
    <rect id="Rectangle_3318" data-name="Rectangle 3318" width="340" height="25" transform="translate(37 5960)" fill="#f6f6f6"/>
    <rect id="Rectangle_3324" data-name="Rectangle 3324" width="340" height="25" transform="translate(37 6149)" fill="#f6f6f6"/>
    <text id="內文p-9" data-name="內文p" transform="translate(317 5980)" fill="#8e8e8e" font-size="20" font-family="Arial-BoldMT, Arial" font-weight="700"><tspan x="0" y="0">20.3</tspan><tspan y="0" font-size="15">%</tspan></text>
    <text id="內文p-10" data-name="內文p" transform="translate(328 6169)" fill="#8e8e8e" font-size="20" font-family="Arial-BoldMT, Arial" font-weight="700"><tspan x="0" y="0">8.0</tspan><tspan y="0" font-size="15">%</tspan></text>
    <text id="內文p-11" data-name="內文p" transform="translate(317 5919)" fill="#8e8e8e" font-size="20" font-family="Arial-BoldMT, Arial" font-weight="700"><tspan x="0" y="0">28.4</tspan><tspan y="0" font-size="15">%</tspan></text>
    <text id="內文p-12" data-name="內文p" transform="translate(317 6108)" fill="#8e8e8e" font-size="20" font-family="Arial-BoldMT, Arial" font-weight="700"><tspan x="0" y="0">13.8</tspan><tspan y="0" font-size="15">%</tspan></text>
    <text id="內文p-13" data-name="內文p" transform="translate(317 5855)" fill="#8e8e8e" font-size="20" font-family="Arial-BoldMT, Arial" font-weight="700"><tspan x="0" y="0">32.6</tspan><tspan y="0" font-size="15">%</tspan></text>
    <text id="內文p-14" data-name="內文p" transform="translate(317 6044)" fill="#8e8e8e" font-size="20" font-family="Arial-BoldMT, Arial" font-weight="700"><tspan x="0" y="0">14.4</tspan><tspan y="0" font-size="15">%</tspan></text>
    <text id="內文p-15" data-name="內文p" transform="translate(328 6234)" fill="#8e8e8e" font-size="20" font-family="Arial-BoldMT, Arial" font-weight="700"><tspan x="0" y="0">6.7</tspan><tspan y="0" font-size="15">%</tspan></text>
    <rect id="Rectangle_3355" data-name="Rectangle 3355" width="111" height="25" transform="translate(37 5834)" fill="#00ccb1"/>
    <rect id="Rectangle_3353" data-name="Rectangle 3353" width="97" height="25" transform="translate(37 5898)" fill="#00ccb1"/>
    <rect id="Rectangle_3351" data-name="Rectangle 3351" width="70" height="25" transform="translate(37 5960)" fill="#00ccb1"/>
    <rect id="Rectangle_3349" data-name="Rectangle 3349" width="49" height="25" transform="translate(37 6023)" fill="#00ccb1"/>
    <rect id="Rectangle_3347" data-name="Rectangle 3347" width="46" height="25" transform="translate(37 6087)" fill="#00ccb1"/>
    <rect id="Rectangle_3345" data-name="Rectangle 3345" width="27" height="25" transform="translate(37 6149)" fill="#00ccb1"/>
    <rect id="Rectangle_3343" data-name="Rectangle 3343" width="23" height="25" transform="translate(37 6213)" fill="#00ccb1"/>
  </g>
</svg>
