<svg xmlns="http://www.w3.org/2000/svg" width="382" height="2386" viewBox="0 0 382 2386">
  <g id="poll_chart23_mob" transform="translate(-16 -25385)">
    <rect id="Rectangle_4162" data-name="Rectangle 4162" width="382" height="2386" rx="5" transform="translate(16 25385)" fill="#fff"/>
    <text id="標題2" transform="translate(37 25415)" fill="#131313" font-size="24" font-family="SourceHanSansTW-Bold, Source Han Sans TW" font-weight="700"><tspan x="0" y="28">學校對推動新課綱有信心，但需</tspan><tspan x="0" y="64.4">要1到3年時間到位</tspan></text>
    <rect id="Rectangle_4165" data-name="Rectangle 4165" width="340" height="25" transform="translate(37 26897)" fill="#f6f6f6"/>
    <rect id="Rectangle_4194" data-name="Rectangle 4194" width="340" height="25" transform="translate(37 27406)" fill="#f6f6f6"/>
    <rect id="Rectangle_4171" data-name="Rectangle 4171" width="340" height="25" transform="translate(37 27083)" fill="#f6f6f6"/>
    <rect id="Rectangle_4191" data-name="Rectangle 4191" width="340" height="25" transform="translate(37 27592)" fill="#f6f6f6"/>
    <rect id="Rectangle_4173" data-name="Rectangle 4173" width="340" height="25" transform="translate(37 27207)" fill="#f6f6f6"/>
    <rect id="Rectangle_4189" data-name="Rectangle 4189" width="340" height="25" transform="translate(37 27716)" fill="#f6f6f6"/>
    <rect id="Rectangle_4167" data-name="Rectangle 4167" width="340" height="25" transform="translate(37 26959)" fill="#f6f6f6"/>
    <rect id="Rectangle_4193" data-name="Rectangle 4193" width="340" height="25" transform="translate(37 27468)" fill="#f6f6f6"/>
    <rect id="Rectangle_4163" data-name="Rectangle 4163" width="340" height="25" transform="translate(37 26835)" fill="#f6f6f6"/>
    <rect id="Rectangle_4196" data-name="Rectangle 4196" width="340" height="25" transform="translate(37 27344)" fill="#f6f6f6"/>
    <rect id="Rectangle_4169" data-name="Rectangle 4169" width="340" height="25" transform="translate(37 27021)" fill="#f6f6f6"/>
    <rect id="Rectangle_4192" data-name="Rectangle 4192" width="340" height="25" transform="translate(37 27530)" fill="#f6f6f6"/>
    <rect id="Rectangle_4174" data-name="Rectangle 4174" width="340" height="25" transform="translate(37 27145)" fill="#f6f6f6"/>
    <rect id="Rectangle_4190" data-name="Rectangle 4190" width="340" height="25" transform="translate(37 27654)" fill="#f6f6f6"/>
    <text id="內文p" transform="translate(37 26739)" font-size="18" font-family="SourceHanSansTW-Bold, Source Han Sans TW" font-weight="700"><tspan x="0" y="21">學校尚需多久時間讓新課綱到位？</tspan></text>
    <text id="內文p-2" data-name="內文p" transform="translate(129 26827)" font-size="18" font-family="SourceHanSansTW-Regular, Source Han Sans TW"><tspan x="-92.394" y="0">1年(含)-3年</tspan></text>
    <text id="內文p-3" data-name="內文p" transform="translate(129 27336)" font-size="18" font-family="SourceHanSansTW-Regular, Source Han Sans TW"><tspan x="-92.394" y="0">1年(含)-3年</tspan></text>
    <text id="內文p-4" data-name="內文p" transform="translate(91 26793)" font-size="18" font-family="SourceHanSansTW-Bold, Source Han Sans TW" font-weight="700"><tspan x="-54" y="0">國中：</tspan></text>
    <text id="內文p-5" data-name="內文p" transform="translate(91 27302)" font-size="18" font-family="SourceHanSansTW-Bold, Source Han Sans TW" font-weight="700"><tspan x="-54" y="0">高中：</tspan></text>
    <text id="內文p-6" data-name="內文p" transform="translate(109 27013)" font-size="18" font-family="SourceHanSansTW-Regular, Source Han Sans TW"><tspan x="-72" y="0">難以估計</tspan></text>
    <text id="內文p-7" data-name="內文p" transform="translate(101 27522)" font-size="18" font-family="SourceHanSansTW-Regular, Source Han Sans TW"><tspan x="-63.99" y="0">1年以內</tspan></text>
    <text id="內文p-8" data-name="內文p" transform="translate(139 27137)" font-size="18" font-family="SourceHanSansTW-Regular, Source Han Sans TW"><tspan x="-102.384" y="0">5年(含)-10年</tspan></text>
    <text id="內文p-9" data-name="內文p" transform="translate(139 27646)" font-size="18" font-family="SourceHanSansTW-Regular, Source Han Sans TW"><tspan x="-102.384" y="0">5年(含)-10年</tspan></text>
    <text id="內文p-10" data-name="內文p" transform="translate(101 26951)" font-size="18" font-family="SourceHanSansTW-Regular, Source Han Sans TW"><tspan x="-63.99" y="0">1年以內</tspan></text>
    <text id="內文p-11" data-name="內文p" transform="translate(163 27460)" font-size="18" font-family="SourceHanSansTW-Regular, Source Han Sans TW"><tspan x="-126" y="0">目前已完整到位</tspan></text>
    <text id="內文p-12" data-name="內文p" transform="translate(129 26889)" font-size="18" font-family="SourceHanSansTW-Regular, Source Han Sans TW"><tspan x="-92.394" y="0">3年(含)-5年</tspan></text>
    <text id="內文p-13" data-name="內文p" transform="translate(129 27398)" font-size="18" font-family="SourceHanSansTW-Regular, Source Han Sans TW"><tspan x="-92.394" y="0">3年(含)-5年</tspan></text>
    <text id="內文p-14" data-name="內文p" transform="translate(163 27075)" font-size="18" font-family="SourceHanSansTW-Regular, Source Han Sans TW"><tspan x="-126" y="0">目前已完整到位</tspan></text>
    <text id="內文p-15" data-name="內文p" transform="translate(109 27584)" font-size="18" font-family="SourceHanSansTW-Regular, Source Han Sans TW"><tspan x="-72" y="0">難以估計</tspan></text>
    <text id="內文p-16" data-name="內文p" transform="translate(141 27199)" font-size="18" font-family="SourceHanSansTW-Regular, Source Han Sans TW"><tspan x="-104.148" y="0">10年(含)以上</tspan></text>
    <text id="內文p-17" data-name="內文p" transform="translate(141 27708)" font-size="18" font-family="SourceHanSansTW-Regular, Source Han Sans TW"><tspan x="-104.148" y="0">10年(含)以上</tspan></text>
    <text id="內文p-18" data-name="內文p" transform="translate(37 26084)" font-size="18" font-family="SourceHanSansTW-Bold, Source Han Sans TW" font-weight="700"><tspan x="0" y="21">新課綱要成功得靠：（可複選）</tspan><tspan x="0" y="55">國中：</tspan><tspan font-family="SourceHanSansTW-Regular, Source Han Sans TW" font-weight="400"><tspan x="0" y="89">1. 教師能力提升（78.1%)</tspan><tspan x="0" y="123">2. 家長觀念翻轉（69.5%)</tspan><tspan x="0" y="157">3. 學校、師生、家長互相信任（64.3%)</tspan><tspan x="0" y="191">4. 學校改變升學思維（60.5%)</tspan><tspan x="0" y="225">5. 社會氛圍支持（55.6%)</tspan><tspan x="0" y="259">6. 政府提供教學現場資源（51.8%)</tspan><tspan x="0" y="293">7. 其他（2.6%)</tspan><tspan x="0" y="327"></tspan></tspan><tspan x="0" y="361">高中：</tspan><tspan font-family="SourceHanSansTW-Regular, Source Han Sans TW" font-weight="400"><tspan x="0" y="395">1. 教師能力提升（80.7%)</tspan><tspan x="0" y="429">2. 家長觀念翻轉（76.4%)</tspan><tspan x="0" y="463">3. 學校、師生、家長互相信任（68.8%)</tspan><tspan x="0" y="497">4. 社會氛圍支持（64.3%) </tspan><tspan x="0" y="531">5. 學校改變升學思維（55.9%)</tspan><tspan x="0" y="565">6. 政府提供教學現場資源（57.7%)</tspan><tspan x="0" y="599">7. 其他（4.3%)</tspan></tspan></text>
    <text id="內文p-19" data-name="內文p" transform="translate(321 26855)" fill="#8e8e8e" font-size="20" font-family="Arial-BoldMT, Arial" font-weight="700"><tspan x="0" y="0">57.4</tspan><tspan y="0" font-size="15">%</tspan></text>
    <text id="內文p-20" data-name="內文p" transform="translate(321 27364)" fill="#8e8e8e" font-size="20" font-family="Arial-BoldMT, Arial" font-weight="700"><tspan x="0" y="0">54.2</tspan><tspan y="0" font-size="15">%</tspan></text>
    <text id="內文p-21" data-name="內文p" transform="translate(332 27041)" fill="#8e8e8e" font-size="20" font-family="Arial-BoldMT, Arial" font-weight="700"><tspan x="0" y="0">4.3</tspan><tspan y="0" font-size="15">%</tspan></text>
    <text id="內文p-22" data-name="內文p" transform="translate(332 27550)" fill="#8e8e8e" font-size="20" font-family="Arial-BoldMT, Arial" font-weight="700"><tspan x="0" y="0">8.0</tspan><tspan y="0" font-size="15">%</tspan></text>
    <text id="內文p-23" data-name="內文p" transform="translate(332 27165)" fill="#8e8e8e" font-size="20" font-family="Arial-BoldMT, Arial" font-weight="700"><tspan x="0" y="0">2.3</tspan><tspan y="0" font-size="15">%</tspan></text>
    <text id="內文p-24" data-name="內文p" transform="translate(332 27674)" fill="#8e8e8e" font-size="20" font-family="Arial-BoldMT, Arial" font-weight="700"><tspan x="0" y="0">0.7</tspan><tspan y="0" font-size="15">%</tspan></text>
    <text id="內文p-25" data-name="內文p" transform="translate(321 26917)" fill="#8e8e8e" font-size="20" font-family="Arial-BoldMT, Arial" font-weight="700"><tspan x="0" y="0">24.4</tspan><tspan y="0" font-size="15">%</tspan></text>
    <text id="內文p-26" data-name="內文p" transform="translate(321 27426)" fill="#8e8e8e" font-size="20" font-family="Arial-BoldMT, Arial" font-weight="700"><tspan x="0" y="0">25.4</tspan><tspan y="0" font-size="15">%</tspan></text>
    <text id="內文p-27" data-name="內文p" transform="translate(332 27103)" fill="#8e8e8e" font-size="20" font-family="Arial-BoldMT, Arial" font-weight="700"><tspan x="0" y="0">4.3</tspan><tspan y="0" font-size="15">%</tspan></text>
    <text id="內文p-28" data-name="內文p" transform="translate(332 27612)" fill="#8e8e8e" font-size="20" font-family="Arial-BoldMT, Arial" font-weight="700"><tspan x="0" y="0">3.4</tspan><tspan y="0" font-size="15">%</tspan></text>
    <text id="內文p-29" data-name="內文p" transform="translate(332 27227)" fill="#8e8e8e" font-size="20" font-family="Arial-BoldMT, Arial" font-weight="700"><tspan x="0" y="0">0.4</tspan><tspan y="0" font-size="15">%</tspan></text>
    <text id="內文p-30" data-name="內文p" transform="translate(349 27736)" fill="#8e8e8e" font-size="20" font-family="Arial-BoldMT, Arial" font-weight="700"><tspan x="0" y="0">0</tspan><tspan y="0" font-size="15">%</tspan></text>
    <text id="內文p-31" data-name="內文p" transform="translate(332 26979)" fill="#8e8e8e" font-size="20" font-family="Arial-BoldMT, Arial" font-weight="700"><tspan x="0" y="0">6.9</tspan><tspan y="0" font-size="15">%</tspan></text>
    <text id="內文p-32" data-name="內文p" transform="translate(332 27488)" fill="#8e8e8e" font-size="20" font-family="Arial-BoldMT, Arial" font-weight="700"><tspan x="0" y="0">8.4</tspan><tspan y="0" font-size="15">%</tspan></text>
    <text id="內文p-33" data-name="內文p" transform="translate(97 25756)" font-size="20" font-family="SourceHanSansTW-Regular, Source Han Sans TW"><tspan x="0" y="0">國中對新課綱推動有信心</tspan></text>
    <g id="Group_2115" data-name="Group 2115" transform="translate(-4)">
      <text id="_84.2_" data-name="84.2%" transform="translate(155 25636)" fill="#8e8e8e" font-size="40" font-family="Arial-Black, Arial" font-weight="800"><tspan x="0" y="0">84.2</tspan><tspan y="0" font-size="25">%</tspan></text>
      <path id="Subtraction_48" data-name="Subtraction 48" d="M103,206a103.772,103.772,0,0,1-20.758-2.093,102.437,102.437,0,0,1-36.83-15.5A103.311,103.311,0,0,1,8.094,143.092a102.516,102.516,0,0,1-6-19.334,104.006,104.006,0,0,1,0-41.516,102.422,102.422,0,0,1,15.5-36.83A103.3,103.3,0,0,1,62.907,8.094a102.494,102.494,0,0,1,19.334-6,104,104,0,0,1,41.517,0,102.422,102.422,0,0,1,36.83,15.5,103.306,103.306,0,0,1,37.318,45.317,102.462,102.462,0,0,1,6,19.334,103.994,103.994,0,0,1,0,41.516,102.415,102.415,0,0,1-15.5,36.83,103.3,103.3,0,0,1-45.317,37.318,102.494,102.494,0,0,1-19.334,6A103.774,103.774,0,0,1,103,206Zm.395-181.532a78.927,78.927,0,1,0,78.927,78.927A79.016,79.016,0,0,0,103.395,24.468Z" transform="translate(108 25520)" fill="#eee"/>
      <path id="Subtraction_55" data-name="Subtraction 55" d="M-1314.333,193a103.755,103.755,0,0,1-20.759-2.092,102.47,102.47,0,0,1-19.335-6,103.06,103.06,0,0,1-17.5-9.5,103.734,103.734,0,0,1-15.243-12.577,103.736,103.736,0,0,1-12.577-15.243,103.016,103.016,0,0,1-9.5-17.5,102.475,102.475,0,0,1-6-19.335A103.825,103.825,0,0,1-1417.333,90a103.829,103.829,0,0,1,2.092-20.758,102.477,102.477,0,0,1,6-19.334c.522-1.235,1.078-2.479,1.651-3.7l23.264,8.489a77.936,77.936,0,0,0-8.542,35.7,79.017,79.017,0,0,0,78.927,78.928,79.017,79.017,0,0,0,78.927-78.928,78.578,78.578,0,0,0-76.322-78.884V-12.956a103.69,103.69,0,0,1,17.758,2.049,102.467,102.467,0,0,1,19.335,6,103.08,103.08,0,0,1,17.5,9.5A103.688,103.688,0,0,1-1241.5,17.168a103.736,103.736,0,0,1,12.578,15.243,103.065,103.065,0,0,1,9.5,17.5,102.491,102.491,0,0,1,6,19.334A103.76,103.76,0,0,1-1211.333,90a103.756,103.756,0,0,1-2.093,20.758,102.549,102.549,0,0,1-6,19.335,103.06,103.06,0,0,1-9.5,17.5,103.733,103.733,0,0,1-12.578,15.243,103.675,103.675,0,0,1-15.243,12.577,103.088,103.088,0,0,1-17.5,9.5,102.47,102.47,0,0,1-19.335,6A103.735,103.735,0,0,1-1314.333,193Z" transform="translate(1525.333 25533)" fill="#00ccb1"/>
    </g>
    <text id="內文p-34" data-name="內文p" transform="translate(207 26028)" font-size="20" font-family="SourceHanSansTW-Regular, Source Han Sans TW"><tspan x="-110" y="0">高中對新課綱推動有信心</tspan></text>
    <g id="Group_2116" data-name="Group 2116">
      <text id="_88.1_" data-name="88.1%" transform="translate(151 25908)" fill="#8e8e8e" font-size="40" font-family="Arial-Black, Arial" font-weight="800"><tspan x="0" y="0">88.1</tspan><tspan y="0" font-size="25">%</tspan></text>
      <path id="Subtraction_51" data-name="Subtraction 51" d="M103,206a103.772,103.772,0,0,1-20.758-2.093,102.437,102.437,0,0,1-36.83-15.5A103.311,103.311,0,0,1,8.094,143.092a102.516,102.516,0,0,1-6-19.334,104.006,104.006,0,0,1,0-41.516,102.422,102.422,0,0,1,15.5-36.83A103.3,103.3,0,0,1,62.907,8.094a102.494,102.494,0,0,1,19.334-6,104,104,0,0,1,41.517,0,102.422,102.422,0,0,1,36.83,15.5,103.306,103.306,0,0,1,37.318,45.317,102.462,102.462,0,0,1,6,19.334,103.994,103.994,0,0,1,0,41.516,102.415,102.415,0,0,1-15.5,36.83,103.3,103.3,0,0,1-45.317,37.318,102.494,102.494,0,0,1-19.334,6A103.774,103.774,0,0,1,103,206Zm.395-181.532a78.927,78.927,0,1,0,78.927,78.927A79.016,79.016,0,0,0,103.395,24.468Z" transform="translate(104 25792)" fill="#eee"/>
      <path id="Subtraction_57" data-name="Subtraction 57" d="M-1328,194.333a103.816,103.816,0,0,1-20.758-2.093,102.536,102.536,0,0,1-19.335-6,103,103,0,0,1-17.5-9.5,103.788,103.788,0,0,1-15.243-12.577,103.857,103.857,0,0,1-12.578-15.244,103.058,103.058,0,0,1-9.5-17.5,102.543,102.543,0,0,1-6-19.335A103.754,103.754,0,0,1-1431,91.333a103.741,103.741,0,0,1,2.092-20.758,102.476,102.476,0,0,1,6-19.335,103.058,103.058,0,0,1,9.5-17.5,103.822,103.822,0,0,1,11.067-13.7l18.089,16.778a78.5,78.5,0,0,0-22.279,54.9,79.017,79.017,0,0,0,78.927,78.928,79.017,79.017,0,0,0,78.927-78.928A79.016,79.016,0,0,0-1327.605,12.8h-.4V-11.667a103.754,103.754,0,0,1,20.759,2.092,102.536,102.536,0,0,1,19.335,6,103.128,103.128,0,0,1,17.5,9.5A103.783,103.783,0,0,1-1255.168,18.5a103.736,103.736,0,0,1,12.578,15.243,103.065,103.065,0,0,1,9.5,17.5,102.48,102.48,0,0,1,6,19.335A103.742,103.742,0,0,1-1225,91.333a103.756,103.756,0,0,1-2.093,20.758,102.549,102.549,0,0,1-6,19.335,103.065,103.065,0,0,1-9.5,17.5,103.835,103.835,0,0,1-12.578,15.244,103.788,103.788,0,0,1-15.243,12.577,103,103,0,0,1-17.5,9.5,102.536,102.536,0,0,1-19.335,6A103.821,103.821,0,0,1-1328,194.333Z" transform="translate(1535 25803.668)" fill="#00ccb1"/>
    </g>
    <rect id="Rectangle_4182" data-name="Rectangle 4182" width="194" height="25" transform="translate(37 26835)" fill="#00ccb1"/>
    <rect id="Rectangle_4183" data-name="Rectangle 4183" width="17" height="25" transform="translate(37 27021)" fill="#00ccb1"/>
    <rect id="Rectangle_4184" data-name="Rectangle 4184" width="84" height="25" transform="translate(37 26897)" fill="#00ccb1"/>
    <rect id="Rectangle_4185" data-name="Rectangle 4185" width="17" height="25" transform="translate(37 27083)" fill="#00ccb1"/>
    <rect id="Rectangle_4186" data-name="Rectangle 4186" width="2" height="25" transform="translate(37 27207)" fill="#00ccb1"/>
    <rect id="Rectangle_4187" data-name="Rectangle 4187" width="21" height="25" transform="translate(37 26959)" fill="#00ccb1"/>
    <rect id="Rectangle_4188" data-name="Rectangle 4188" width="11" height="25" transform="translate(37 27145)" fill="#00ccb1"/>
    <rect id="Rectangle_4203" data-name="Rectangle 4203" width="187" height="25" transform="translate(37 27344)" fill="#00ccb1"/>
    <rect id="Rectangle_4204" data-name="Rectangle 4204" width="24" height="25" transform="translate(37 27530)" fill="#00ccb1"/>
    <rect id="Rectangle_4205" data-name="Rectangle 4205" width="86" height="25" transform="translate(37 27406)" fill="#00ccb1"/>
    <rect id="Rectangle_4206" data-name="Rectangle 4206" width="14" height="25" transform="translate(37 27592)" fill="#00ccb1"/>
    <rect id="Rectangle_4207" data-name="Rectangle 4207" width="26" height="25" transform="translate(37 27468)" fill="#00ccb1"/>
    <rect id="Rectangle_4208" data-name="Rectangle 4208" width="4" height="25" transform="translate(37 27654)" fill="#00ccb1"/>
  </g>
</svg>
