<svg xmlns="http://www.w3.org/2000/svg" width="382" height="1318" viewBox="0 0 382 1318">
  <g id="poll_chart16_mob" transform="translate(-16 -18271)">
    <rect id="Rectangle_3825" data-name="Rectangle 3825" width="382" height="1318" rx="5" transform="translate(16 18271)" fill="#fff"/>
    <text id="標題2" transform="translate(37 18301)" fill="#131313" font-size="24" font-family="SourceHanSansTW-Bold, Source Han Sans TW" font-weight="700"><tspan x="0" y="28">高中部定必修課程是否遇到</tspan><tspan x="0" y="64.4">困難？</tspan></text>
    <rect id="Rectangle_3828" data-name="Rectangle 3828" width="340" height="25" transform="translate(37 19098)" fill="#f6f6f6"/>
    <rect id="Rectangle_3834" data-name="Rectangle 3834" width="340" height="25" transform="translate(37 19284)" fill="#f6f6f6"/>
    <rect id="Rectangle_3840" data-name="Rectangle 3840" width="340" height="25" transform="translate(37 19472)" fill="#f6f6f6"/>
    <rect id="Rectangle_3830" data-name="Rectangle 3830" width="340" height="25" transform="translate(37 19160)" fill="#f6f6f6"/>
    <rect id="Rectangle_3836" data-name="Rectangle 3836" width="340" height="25" transform="translate(37 19346)" fill="#f6f6f6"/>
    <rect id="Rectangle_3842" data-name="Rectangle 3842" width="340" height="25" transform="translate(37 19534)" fill="#f6f6f6"/>
    <rect id="Rectangle_3826" data-name="Rectangle 3826" width="340" height="25" transform="translate(37 19036)" fill="#f6f6f6"/>
    <rect id="Rectangle_3832" data-name="Rectangle 3832" width="340" height="25" transform="translate(37 19222)" fill="#f6f6f6"/>
    <rect id="Rectangle_3838" data-name="Rectangle 3838" width="340" height="25" transform="translate(37 19410)" fill="#f6f6f6"/>
    <text id="內文p" transform="translate(37 18968)" font-size="18" font-family="SourceHanSansTW-Bold, Source Han Sans TW" font-weight="700"><tspan x="0" y="21">遇到困難的領域/科目為：（可複選）</tspan></text>
    <text id="內文p-2" data-name="內文p" transform="translate(109 19028)" font-size="18" font-family="SourceHanSansTW-Regular, Source Han Sans TW"><tspan x="-72" y="0">自然科學</tspan></text>
    <text id="內文p-3" data-name="內文p" transform="translate(73 19214)" font-size="18" font-family="SourceHanSansTW-Regular, Source Han Sans TW"><tspan x="-36" y="0">社會</tspan></text>
    <text id="內文p-4" data-name="內文p" transform="translate(73 19402)" font-size="18" font-family="SourceHanSansTW-Regular, Source Han Sans TW"><tspan x="-36" y="0">藝術</tspan></text>
    <text id="內文p-5" data-name="內文p" transform="translate(73 19152)" font-size="18" font-family="SourceHanSansTW-Regular, Source Han Sans TW"><tspan x="-36" y="0">數學</tspan></text>
    <text id="內文p-6" data-name="內文p" transform="translate(73 19090)" font-size="18" font-family="SourceHanSansTW-Regular, Source Han Sans TW"><tspan x="-36" y="0">科技</tspan></text>
    <text id="內文p-7" data-name="內文p" transform="translate(73 19276)" font-size="18" font-family="SourceHanSansTW-Regular, Source Han Sans TW"><tspan x="-36" y="0">語文</tspan></text>
    <text id="內文p-8" data-name="內文p" transform="translate(73 19464)" font-size="18" font-family="SourceHanSansTW-Regular, Source Han Sans TW"><tspan x="-36" y="0">其他</tspan></text>
    <text id="內文p-9" data-name="內文p" transform="translate(319 19056)" fill="#8e8e8e" font-size="20" font-family="Arial-BoldMT, Arial" font-weight="700"><tspan x="0" y="0">43.7</tspan><tspan y="0" font-size="15">%</tspan></text>
    <text id="內文p-10" data-name="內文p" transform="translate(319 19242)" fill="#8e8e8e" font-size="20" font-family="Arial-BoldMT, Arial" font-weight="700"><tspan x="0" y="0">23.5</tspan><tspan y="0" font-size="15">%</tspan></text>
    <text id="內文p-11" data-name="內文p" transform="translate(319 19430)" fill="#8e8e8e" font-size="20" font-family="Arial-BoldMT, Arial" font-weight="700"><tspan x="0" y="0">16.9</tspan><tspan y="0" font-size="15">%</tspan></text>
    <text id="內文p-12" data-name="內文p" transform="translate(319 19118)" fill="#8e8e8e" font-size="20" font-family="Arial-BoldMT, Arial" font-weight="700"><tspan x="0" y="0">41.1</tspan><tspan y="0" font-size="15">%</tspan></text>
    <text id="內文p-13" data-name="內文p" transform="translate(319 19304)" fill="#8e8e8e" font-size="20" font-family="Arial-BoldMT, Arial" font-weight="700"><tspan x="0" y="0">21.2</tspan><tspan y="0" font-size="15">%</tspan></text>
    <text id="內文p-14" data-name="內文p" transform="translate(337 19492)" fill="#8e8e8e" font-size="20" font-family="Arial-BoldMT, Arial" font-weight="700"><tspan x="0" y="0">11</tspan><tspan y="0" font-size="15">%</tspan></text>
    <text id="內文p-15" data-name="內文p" transform="translate(319 19180)" fill="#8e8e8e" font-size="20" font-family="Arial-BoldMT, Arial" font-weight="700"><tspan x="0" y="0">31.0</tspan><tspan y="0" font-size="15">%</tspan></text>
    <text id="內文p-16" data-name="內文p" transform="translate(335 19366)" fill="#8e8e8e" font-size="20" font-family="Arial-BoldMT, Arial" font-weight="700"><tspan x="0" y="0">18</tspan><tspan y="0" font-size="15">%</tspan></text>
    <text id="內文p-17" data-name="內文p" transform="translate(341 19554)" fill="#8e8e8e" font-size="20" font-family="Arial-BoldMT, Arial" font-weight="700"><tspan x="0" y="0">6.</tspan><tspan y="0" font-size="15">%</tspan></text>
    <text id="內文p-18" data-name="內文p" transform="translate(109 19338)" font-size="18" font-family="SourceHanSansTW-Regular, Source Han Sans TW"><tspan x="-72" y="0">綜合活動</tspan></text>
    <text id="內文p-19" data-name="內文p" transform="translate(127 19526)" font-size="18" font-family="SourceHanSansTW-Regular, Source Han Sans TW"><tspan x="-90" y="0">健康與體育</tspan></text>
    <g id="Group_2106" data-name="Group 2106" transform="translate(118.5 15759)">
      <text id="內文p-20" data-name="內文p" transform="translate(55.5 2881)" font-size="20" font-family="SourceHanSansTW-Regular, Source Han Sans TW"><tspan x="0" y="0">無困難</tspan></text>
      <text id="_76.7_" data-name="76.7%" transform="translate(32.5 2761)" fill="#8e8e8e" font-size="40" font-family="Arial-Black, Arial" font-weight="800"><tspan x="0" y="0">76.7</tspan><tspan y="0" font-size="25">%</tspan></text>
      <path id="Subtraction_229" data-name="Subtraction 229" d="M103,206a103.772,103.772,0,0,1-20.758-2.093,102.437,102.437,0,0,1-36.83-15.5A103.311,103.311,0,0,1,8.094,143.092a102.516,102.516,0,0,1-6-19.334,104.006,104.006,0,0,1,0-41.516,102.422,102.422,0,0,1,15.5-36.83A103.3,103.3,0,0,1,62.907,8.094a102.494,102.494,0,0,1,19.334-6,104,104,0,0,1,41.517,0,102.422,102.422,0,0,1,36.83,15.5,103.306,103.306,0,0,1,37.318,45.317,102.462,102.462,0,0,1,6,19.334,103.994,103.994,0,0,1,0,41.516,102.415,102.415,0,0,1-15.5,36.83,103.3,103.3,0,0,1-45.317,37.318,102.494,102.494,0,0,1-19.334,6A103.774,103.774,0,0,1,103,206Zm.395-181.532a78.927,78.927,0,1,0,78.927,78.927A79.016,79.016,0,0,0,103.395,24.468Z" transform="translate(-14.5 2645)" fill="#eee"/>
      <path id="Subtraction_232" data-name="Subtraction 232" d="M-1286.333,230a103.757,103.757,0,0,1-20.759-2.092,102.439,102.439,0,0,1-19.334-6,102.974,102.974,0,0,1-17.5-9.5,103.734,103.734,0,0,1-15.244-12.577,103.693,103.693,0,0,1-12.577-15.244,102.951,102.951,0,0,1-9.5-17.5,102.544,102.544,0,0,1-6-19.334A103.824,103.824,0,0,1-1389.334,127c0-3.434.173-6.91.514-10.332l24.385,2.451a79.829,79.829,0,0,0-.431,8.276,79.017,79.017,0,0,0,78.927,78.927,79.016,79.016,0,0,0,78.926-78.927,79.016,79.016,0,0,0-78.926-78.927c-1.127,0-2.27.024-3.4.072v-24.5c1.008-.029,2.017-.043,3-.043a103.758,103.758,0,0,1,20.759,2.093,102.476,102.476,0,0,1,19.334,6,103.017,103.017,0,0,1,17.5,9.5A103.728,103.728,0,0,1-1213.5,54.168a103.729,103.729,0,0,1,12.578,15.244,103.007,103.007,0,0,1,9.5,17.5,102.481,102.481,0,0,1,6,19.334A103.756,103.756,0,0,1-1183.333,127a103.76,103.76,0,0,1-2.093,20.758,102.481,102.481,0,0,1-6,19.334,103.007,103.007,0,0,1-9.5,17.5,103.635,103.635,0,0,1-12.578,15.244,103.745,103.745,0,0,1-15.243,12.577,103.016,103.016,0,0,1-17.5,9.5,102.483,102.483,0,0,1-19.334,6A103.757,103.757,0,0,1-1286.333,230Z" transform="translate(1374.833 2621)" fill="#00ccb1"/>
    </g>
    <g id="Group_2107" data-name="Group 2107" transform="translate(-147.5 16031)">
      <text id="內文p-21" data-name="內文p" transform="translate(354.5 2881)" font-size="20" font-family="SourceHanSansTW-Regular, Source Han Sans TW"><tspan x="-30" y="0">有困難</tspan></text>
      <text id="_23.3_" data-name="23.3%" transform="translate(298.5 2761)" fill="#8e8e8e" font-size="40" font-family="Arial-Black, Arial" font-weight="800"><tspan x="0" y="0">23.3</tspan><tspan y="0" font-size="25">%</tspan></text>
      <path id="Subtraction_233" data-name="Subtraction 233" d="M103,206a103.772,103.772,0,0,1-20.758-2.093,102.437,102.437,0,0,1-36.83-15.5A103.311,103.311,0,0,1,8.094,143.092a102.516,102.516,0,0,1-6-19.334,104.006,104.006,0,0,1,0-41.516,102.422,102.422,0,0,1,15.5-36.83A103.3,103.3,0,0,1,62.907,8.094a102.494,102.494,0,0,1,19.334-6,104,104,0,0,1,41.517,0,102.422,102.422,0,0,1,36.83,15.5,103.306,103.306,0,0,1,37.318,45.317,102.462,102.462,0,0,1,6,19.334,103.994,103.994,0,0,1,0,41.516,102.415,102.415,0,0,1-15.5,36.83,103.3,103.3,0,0,1-45.317,37.318,102.494,102.494,0,0,1-19.334,6A103.774,103.774,0,0,1,103,206Zm.395-181.532a78.927,78.927,0,1,0,78.927,78.927A79.016,79.016,0,0,0,103.395,24.468Z" transform="translate(251.5 2645)" fill="#eee"/>
      <path id="Subtraction_236" data-name="Subtraction 236" d="M-1206.173,97.979a78.792,78.792,0,0,0-71.16-50.8V22.711a103.711,103.711,0,0,1,17.758,2.049,102.54,102.54,0,0,1,19.335,6,102.955,102.955,0,0,1,17.495,9.5A103.749,103.749,0,0,1-1207.5,52.835a103.664,103.664,0,0,1,12.577,15.244,102.95,102.95,0,0,1,9.5,17.5c1.067,2.524,2.046,5.129,2.91,7.742l-23.655,4.661h0Z" transform="translate(1634.833 2622.332)" fill="#eb0f43"/>
    </g>
    <rect id="Rectangle_3858" data-name="Rectangle 3858" width="143" height="25" transform="translate(37 19098)" fill="#00ccb1"/>
    <rect id="Rectangle_3856" data-name="Rectangle 3856" width="109" height="25" transform="translate(37 19160)" fill="#00ccb1"/>
    <rect id="Rectangle_3852" data-name="Rectangle 3852" width="75" height="25" transform="translate(37 19284)" fill="#00ccb1"/>
    <rect id="Rectangle_3846" data-name="Rectangle 3846" width="38" height="25" transform="translate(37 19472)" fill="#00ccb1"/>
    <rect id="Rectangle_3854" data-name="Rectangle 3854" width="85" height="25" transform="translate(37 19222)" fill="#00ccb1"/>
    <rect id="Rectangle_3848" data-name="Rectangle 3848" width="58" height="25" transform="translate(37 19410)" fill="#00ccb1"/>
    <rect id="Rectangle_3850" data-name="Rectangle 3850" width="62" height="25" transform="translate(37 19346)" fill="#00ccb1"/>
    <rect id="Rectangle_3844" data-name="Rectangle 3844" width="24" height="25" transform="translate(37 19534)" fill="#00ccb1"/>
    <rect id="Rectangle_3860" data-name="Rectangle 3860" width="150" height="25" transform="translate(37 19036)" fill="#00ccb1"/>
  </g>
</svg>
