<svg xmlns="http://www.w3.org/2000/svg" width="382" height="1272" viewBox="0 0 382 1272">
  <g id="poll_chart8_mob" transform="translate(-16 -9254)">
    <rect id="Rectangle_3424" data-name="Rectangle 3424" width="382" height="1272" rx="5" transform="translate(16 9254)" fill="#fff"/>
    <text id="標題2" transform="translate(37 9284)" fill="#131313" font-size="24" font-family="SourceHanSansTW-Bold, Source Han Sans TW" font-weight="700"><tspan x="0" y="28">家長會因為新課綱調整教育方式</tspan><tspan x="0" y="64.4">嗎？</tspan></text>
    <text id="內文p" transform="translate(37 9950)" font-size="18" font-family="SourceHanSansTW-Bold, Source Han Sans TW" font-weight="700"><tspan x="0" y="21">怎麼調整：（可複選）</tspan></text>
    <text id="內文p-2" data-name="內文p" transform="translate(152 10018)" font-size="18" font-family="SourceHanSansTW-Regular, Source Han Sans TW"><tspan x="-115.056" y="0">無意見/未回答</tspan></text>
    <text id="內文p-3" data-name="內文p" transform="translate(181 10207)" font-size="18" font-family="SourceHanSansTW-Regular, Source Han Sans TW"><tspan x="-144" y="0">尋找線上教學資源</tspan></text>
    <text id="內文p-4" data-name="內文p" transform="translate(163 10398)" font-size="18" font-family="SourceHanSansTW-Regular, Source Han Sans TW"><tspan x="-126" y="0">找升學顧問協助</tspan></text>
    <text id="內文p-5" data-name="內文p" transform="translate(37 10081)" font-size="18" font-family="SourceHanSansTW-Regular, Source Han Sans TW"><tspan x="0" y="0">親子共學</tspan></text>
    <text id="內文p-6" data-name="內文p" transform="translate(37 10270)" font-size="18" font-family="SourceHanSansTW-Regular, Source Han Sans TW"><tspan x="0" y="0">為孩子挑選特色學校</tspan></text>
    <text id="內文p-7" data-name="內文p" transform="translate(37 10461)" font-size="18" font-family="SourceHanSansTW-Regular, Source Han Sans TW"><tspan x="0" y="0">送孩子出國留學</tspan></text>
    <text id="內文p-8" data-name="內文p" transform="translate(163 10145)" font-size="18" font-family="SourceHanSansTW-Regular, Source Han Sans TW"><tspan x="-126" y="0">找補習班或家教</tspan></text>
    <text id="內文p-9" data-name="內文p" transform="translate(163 10336)" font-size="18" font-family="SourceHanSansTW-Regular, Source Han Sans TW"><tspan x="-126" y="0">轉學至私立學校</tspan></text>
    <rect id="Rectangle_3425" data-name="Rectangle 3425" width="340" height="25" transform="translate(37 10027)" fill="#f6f6f6"/>
    <rect id="Rectangle_3431" data-name="Rectangle 3431" width="340" height="25" transform="translate(37 10216)" fill="#f6f6f6"/>
    <rect id="Rectangle_3452" data-name="Rectangle 3452" width="340" height="25" transform="translate(37 10407)" fill="#f6f6f6"/>
    <rect id="Rectangle_3427" data-name="Rectangle 3427" width="340" height="25" transform="translate(37 10091)" fill="#f6f6f6"/>
    <rect id="Rectangle_3433" data-name="Rectangle 3433" width="340" height="25" transform="translate(37 10280)" fill="#f6f6f6"/>
    <rect id="Rectangle_3451" data-name="Rectangle 3451" width="340" height="25" transform="translate(37 10471)" fill="#f6f6f6"/>
    <rect id="Rectangle_3429" data-name="Rectangle 3429" width="340" height="25" transform="translate(37 10153)" fill="#f6f6f6"/>
    <rect id="Rectangle_3453" data-name="Rectangle 3453" width="340" height="25" transform="translate(37 10344)" fill="#f6f6f6"/>
    <text id="內文p-10" data-name="內文p" transform="translate(319 10173)" fill="#8e8e8e" font-size="20" font-family="Arial-BoldMT, Arial" font-weight="700"><tspan x="0" y="0">15.9</tspan><tspan y="0" font-size="15">%</tspan></text>
    <text id="內文p-11" data-name="內文p" transform="translate(330 10364)" fill="#8e8e8e" font-size="20" font-family="Arial-BoldMT, Arial" font-weight="700"><tspan x="0" y="0">4.9</tspan><tspan y="0" font-size="15">%</tspan></text>
    <text id="內文p-12" data-name="內文p" transform="translate(319 10112)" fill="#8e8e8e" font-size="20" font-family="Arial-BoldMT, Arial" font-weight="700"><tspan x="0" y="0">24.5</tspan><tspan y="0" font-size="15">%</tspan></text>
    <text id="內文p-13" data-name="內文p" transform="translate(319 10301)" fill="#8e8e8e" font-size="20" font-family="Arial-BoldMT, Arial" font-weight="700"><tspan x="0" y="0">10.7</tspan><tspan y="0" font-size="15">%</tspan></text>
    <text id="內文p-14" data-name="內文p" transform="translate(330 10492)" fill="#8e8e8e" font-size="20" font-family="Arial-BoldMT, Arial" font-weight="700"><tspan x="0" y="0">1.2</tspan><tspan y="0" font-size="15">%</tspan></text>
    <text id="內文p-15" data-name="內文p" transform="translate(319 10048)" fill="#8e8e8e" font-size="20" font-family="Arial-BoldMT, Arial" font-weight="700"><tspan x="0" y="0">33.6</tspan><tspan y="0" font-size="15">%</tspan></text>
    <text id="內文p-16" data-name="內文p" transform="translate(319 10237)" fill="#8e8e8e" font-size="20" font-family="Arial-BoldMT, Arial" font-weight="700"><tspan x="0" y="0">14.0</tspan><tspan y="0" font-size="15">%</tspan></text>
    <text id="內文p-17" data-name="內文p" transform="translate(330 10428)" fill="#8e8e8e" font-size="20" font-family="Arial-BoldMT, Arial" font-weight="700"><tspan x="0" y="0">3.0</tspan><tspan y="0" font-size="15">%</tspan></text>
    <g id="Group_2094" data-name="Group 2094" transform="translate(18 -29)">
      <text id="內文p-18" data-name="內文p" transform="translate(165 9651)" font-size="20" font-family="SourceHanSansTW-Regular, Source Han Sans TW"><tspan x="0" y="0">不會</tspan></text>
      <text id="_65.4_" data-name="65.4%" transform="translate(133 9531)" fill="#8e8e8e" font-size="40" font-family="Arial-Black, Arial" font-weight="800"><tspan x="0" y="0">65.4</tspan><tspan y="0" font-size="25">%</tspan></text>
      <path id="Subtraction_183" data-name="Subtraction 183" d="M103,206a103.772,103.772,0,0,1-20.758-2.093,102.437,102.437,0,0,1-36.83-15.5A103.311,103.311,0,0,1,8.094,143.092a102.516,102.516,0,0,1-6-19.334,104.006,104.006,0,0,1,0-41.516,102.422,102.422,0,0,1,15.5-36.83A103.3,103.3,0,0,1,62.907,8.094a102.494,102.494,0,0,1,19.334-6,104,104,0,0,1,41.517,0,102.422,102.422,0,0,1,36.83,15.5,103.306,103.306,0,0,1,37.318,45.317,102.462,102.462,0,0,1,6,19.334,103.994,103.994,0,0,1,0,41.516,102.415,102.415,0,0,1-15.5,36.83,103.3,103.3,0,0,1-45.317,37.318,102.494,102.494,0,0,1-19.334,6A103.774,103.774,0,0,1,103,206Zm.395-181.532a78.927,78.927,0,1,0,78.927,78.927A79.016,79.016,0,0,0,103.395,24.468Z" transform="translate(86 9415)" fill="#eee"/>
      <path id="Subtraction_187" data-name="Subtraction 187" d="M-1268,9690a103.7,103.7,0,0,1-20.759-2.091,102.626,102.626,0,0,1-19.336-6,103.3,103.3,0,0,1-17.495-9.5,103.918,103.918,0,0,1-15.243-12.577c-.655-.655-1.309-1.328-1.946-2l16.51-17.688a79.069,79.069,0,0,0,58.662,26.177,79.016,79.016,0,0,0,78.926-78.927,79.016,79.016,0,0,0-78.926-78.926c-1.451,0-2.93.041-4.394.121v-24.514c1.338-.052,2.683-.077,4-.077a103.729,103.729,0,0,1,20.758,2.094,102.661,102.661,0,0,1,19.333,6,102.789,102.789,0,0,1,17.495,9.5,103.712,103.712,0,0,1,15.245,12.578,103.818,103.818,0,0,1,12.575,15.243,102.962,102.962,0,0,1,9.5,17.5,102.405,102.405,0,0,1,6,19.333A103.754,103.754,0,0,1-1165,9587a103.739,103.739,0,0,1-2.094,20.756,102.376,102.376,0,0,1-6,19.336,103.061,103.061,0,0,1-9.5,17.5,103.867,103.867,0,0,1-12.575,15.245,104,104,0,0,1-15.245,12.577,103.2,103.2,0,0,1-17.495,9.5,102.661,102.661,0,0,1-19.333,6A103.731,103.731,0,0,1-1268,9690Z" transform="translate(1457 -69)" fill="#00ccb1"/>
    </g>
    <g id="Group_2095" data-name="Group 2095" transform="translate(-248 243)">
      <text id="_30.7_" data-name="30.7%" transform="translate(399 9531)" fill="#8e8e8e" font-size="40" font-family="Arial-Black, Arial" font-weight="800"><tspan x="0" y="0">30.7</tspan><tspan y="0" font-size="25">%</tspan></text>
      <path id="Subtraction_188" data-name="Subtraction 188" d="M103,206a103.772,103.772,0,0,1-20.758-2.093,102.437,102.437,0,0,1-36.83-15.5A103.311,103.311,0,0,1,8.094,143.092a102.516,102.516,0,0,1-6-19.334,104.006,104.006,0,0,1,0-41.516,102.422,102.422,0,0,1,15.5-36.83A103.3,103.3,0,0,1,62.907,8.094a102.494,102.494,0,0,1,19.334-6,104,104,0,0,1,41.517,0,102.422,102.422,0,0,1,36.83,15.5,103.306,103.306,0,0,1,37.318,45.317,102.462,102.462,0,0,1,6,19.334,103.994,103.994,0,0,1,0,41.516,102.415,102.415,0,0,1-15.5,36.83,103.3,103.3,0,0,1-45.317,37.318,102.494,102.494,0,0,1-19.334,6A103.774,103.774,0,0,1,103,206Zm.395-181.532a78.927,78.927,0,1,0,78.927,78.927A79.016,79.016,0,0,0,103.395,24.468Z" transform="translate(352 9415)" fill="#eee"/>
      <text id="內文p-19" data-name="內文p" transform="translate(455 9651)" font-size="20" font-family="SourceHanSansTW-Regular, Source Han Sans TW"><tspan x="-10" y="0">會</tspan></text>
      <path id="Subtraction_192" data-name="Subtraction 192" d="M3980,3361h0l-21.1-10.668a78.9,78.9,0,0,0-66.84-120.863l-.394,0V3205a103.731,103.731,0,0,1,20.757,2.094,102.4,102.4,0,0,1,36.83,15.5,103.348,103.348,0,0,1,37.319,45.317,102.545,102.545,0,0,1,6,19.335,103.933,103.933,0,0,1,0,41.516A102.294,102.294,0,0,1,3980,3361Z" transform="translate(-3436.667 6210)" fill="#00ccb1"/>
    </g>
    <rect id="Rectangle_3462" data-name="Rectangle 3462" width="85" height="25" transform="translate(37 10091)" fill="#00ccb1"/>
    <rect id="Rectangle_3463" data-name="Rectangle 3463" width="56" height="25" transform="translate(37 10153)" fill="#00ccb1"/>
    <rect id="Rectangle_3464" data-name="Rectangle 3464" width="36" height="25" transform="translate(37 10280)" fill="#00ccb1"/>
    <rect id="Rectangle_3465" data-name="Rectangle 3465" width="17" height="25" transform="translate(37 10407)" fill="#00ccb1"/>
    <rect id="Rectangle_3466" data-name="Rectangle 3466" width="52" height="25" transform="translate(37 10216)" fill="#00ccb1"/>
    <rect id="Rectangle_3467" data-name="Rectangle 3467" width="21" height="25" transform="translate(37 10344)" fill="#00ccb1"/>
    <rect id="Rectangle_3468" data-name="Rectangle 3468" width="7" height="25" transform="translate(37 10471)" fill="#00ccb1"/>
    <rect id="Rectangle_3469" data-name="Rectangle 3469" width="116" height="25" transform="translate(37 10027)" fill="#00ccb1"/>
  </g>
</svg>
